<?xml version="1.0" encoding="UTF-8"?>
<!DOCTYPE svg PUBLIC "-//W3C//DTD SVG 1.1//EN" "http://www.w3.org/Graphics/SVG/1.1/DTD/svg11.dtd">
<svg width="260mm" height="164mm" viewBox="0 0 26000 16400" version="1.1" xmlns="http://www.w3.org/2000/svg" stroke-width="28.222" stroke-linejoin="round" xml:space="preserve">
 <path fill="rgb(255,255,255)" stroke="none" d="M 12969,16406 L -23,16406 -23,0 25960,0 25960,16406 12969,16406 Z"/>
 <path fill="none" stroke="rgb(179,179,179)" stroke-linejoin="round" d="M 11717,13914 L 2850,13914 2850,527 20583,527 20583,13914 11717,13914 Z"/>
 <path fill="none" stroke="rgb(179,179,179)" stroke-linejoin="round" d="M 20583,13913 L 2850,13913"/>
 <path fill="none" stroke="rgb(179,179,179)" stroke-linejoin="round" d="M 20583,12000 L 2850,12000"/>
 <path fill="none" stroke="rgb(179,179,179)" stroke-linejoin="round" d="M 20583,10087 L 2850,10087"/>
 <path fill="none" stroke="rgb(179,179,179)" stroke-linejoin="round" d="M 20583,8176 L 2850,8176"/>
 <path fill="none" stroke="rgb(179,179,179)" stroke-linejoin="round" d="M 20583,6263 L 2850,6263"/>
 <path fill="none" stroke="rgb(179,179,179)" stroke-linejoin="round" d="M 20583,4351 L 2850,4351"/>
 <path fill="none" stroke="rgb(179,179,179)" stroke-linejoin="round" d="M 20583,2438 L 2850,2438"/>
 <path fill="none" stroke="rgb(179,179,179)" stroke-linejoin="round" d="M 20583,525 L 2850,525"/>
 <path fill="none" stroke="rgb(179,179,179)" stroke-linejoin="round" d="M 2850,14063 L 2850,13913"/>
 <path fill="none" stroke="rgb(179,179,179)" stroke-linejoin="round" d="M 2850,14063 L 2850,13913"/>
 <path fill="none" stroke="rgb(179,179,179)" stroke-linejoin="round" d="M 5805,14063 L 5805,13913"/>
 <path fill="none" stroke="rgb(179,179,179)" stroke-linejoin="round" d="M 5805,14063 L 5805,13913"/>
 <path fill="none" stroke="rgb(179,179,179)" stroke-linejoin="round" d="M 8761,14063 L 8761,13913"/>
 <path fill="none" stroke="rgb(179,179,179)" stroke-linejoin="round" d="M 8761,14063 L 8761,13913"/>
 <path fill="none" stroke="rgb(179,179,179)" stroke-linejoin="round" d="M 11717,14063 L 11717,13913"/>
 <path fill="none" stroke="rgb(179,179,179)" stroke-linejoin="round" d="M 11717,14063 L 11717,13913"/>
 <path fill="none" stroke="rgb(179,179,179)" stroke-linejoin="round" d="M 14671,14063 L 14671,13913"/>
 <path fill="none" stroke="rgb(179,179,179)" stroke-linejoin="round" d="M 14671,14063 L 14671,13913"/>
 <path fill="none" stroke="rgb(179,179,179)" stroke-linejoin="round" d="M 17627,14063 L 17627,13913"/>
 <path fill="none" stroke="rgb(179,179,179)" stroke-linejoin="round" d="M 17627,14063 L 17627,13913"/>
 <path fill="none" stroke="rgb(179,179,179)" stroke-linejoin="round" d="M 20583,14063 L 20583,13913"/>
 <path fill="none" stroke="rgb(179,179,179)" stroke-linejoin="round" d="M 20583,14063 L 20583,13913"/>
 <path fill="none" stroke="rgb(179,179,179)" stroke-linejoin="round" d="M 2850,13913 L 20583,13913"/>
 <path fill="none" stroke="rgb(179,179,179)" stroke-linejoin="round" d="M 2700,13913 L 2850,13913"/>
 <path fill="none" stroke="rgb(179,179,179)" stroke-linejoin="round" d="M 2700,13913 L 2850,13913"/>
 <path fill="none" stroke="rgb(179,179,179)" stroke-linejoin="round" d="M 2700,12000 L 2850,12000"/>
 <path fill="none" stroke="rgb(179,179,179)" stroke-linejoin="round" d="M 2700,12000 L 2850,12000"/>
 <path fill="none" stroke="rgb(179,179,179)" stroke-linejoin="round" d="M 2700,10087 L 2850,10087"/>
 <path fill="none" stroke="rgb(179,179,179)" stroke-linejoin="round" d="M 2700,10087 L 2850,10087"/>
 <path fill="none" stroke="rgb(179,179,179)" stroke-linejoin="round" d="M 2700,8176 L 2850,8176"/>
 <path fill="none" stroke="rgb(179,179,179)" stroke-linejoin="round" d="M 2700,8176 L 2850,8176"/>
 <path fill="none" stroke="rgb(179,179,179)" stroke-linejoin="round" d="M 2700,6263 L 2850,6263"/>
 <path fill="none" stroke="rgb(179,179,179)" stroke-linejoin="round" d="M 2700,6263 L 2850,6263"/>
 <path fill="none" stroke="rgb(179,179,179)" stroke-linejoin="round" d="M 2700,4351 L 2850,4351"/>
 <path fill="none" stroke="rgb(179,179,179)" stroke-linejoin="round" d="M 2700,4351 L 2850,4351"/>
 <path fill="none" stroke="rgb(179,179,179)" stroke-linejoin="round" d="M 2700,2438 L 2850,2438"/>
 <path fill="none" stroke="rgb(179,179,179)" stroke-linejoin="round" d="M 2700,2438 L 2850,2438"/>
 <path fill="none" stroke="rgb(179,179,179)" stroke-linejoin="round" d="M 2700,525 L 2850,525"/>
 <path fill="none" stroke="rgb(179,179,179)" stroke-linejoin="round" d="M 2700,525 L 2850,525"/>
 <path fill="none" stroke="rgb(179,179,179)" stroke-linejoin="round" d="M 2850,13913 L 2850,525"/>
 <path fill="none" stroke="rgb(153,255,102)" stroke-width="80" stroke-linejoin="round" d="M 4327,6057 L 5805,9889 7283,11188 8761,11880 10239,12232 11717,12582 13193,12764 14671,12908 16149,13043 17627,13121"/>
 <path fill="rgb(153,255,102)" stroke="none" d="M 4277,6007 L 4277,6107 4377,6107 4377,6007 4277,6007 Z"/>
 <path fill="none" stroke="rgb(153,255,102)" stroke-linejoin="round" d="M 4277,6007 L 4277,6107 4377,6107 4377,6007 4277,6007 Z"/>
 <path fill="rgb(153,255,102)" stroke="none" d="M 5755,9839 L 5755,9939 5855,9939 5855,9839 5755,9839 Z"/>
 <path fill="none" stroke="rgb(153,255,102)" stroke-linejoin="round" d="M 5755,9839 L 5755,9939 5855,9939 5855,9839 5755,9839 Z"/>
 <path fill="rgb(153,255,102)" stroke="none" d="M 7233,11138 L 7233,11238 7333,11238 7333,11138 7233,11138 Z"/>
 <path fill="none" stroke="rgb(153,255,102)" stroke-linejoin="round" d="M 7233,11138 L 7233,11238 7333,11238 7333,11138 7233,11138 Z"/>
 <path fill="rgb(153,255,102)" stroke="none" d="M 8711,11830 L 8711,11930 8811,11930 8811,11830 8711,11830 Z"/>
 <path fill="none" stroke="rgb(153,255,102)" stroke-linejoin="round" d="M 8711,11830 L 8711,11930 8811,11930 8811,11830 8711,11830 Z"/>
 <path fill="rgb(153,255,102)" stroke="none" d="M 10189,12182 L 10189,12282 10289,12282 10289,12182 10189,12182 Z"/>
 <path fill="none" stroke="rgb(153,255,102)" stroke-linejoin="round" d="M 10189,12182 L 10189,12282 10289,12282 10289,12182 10189,12182 Z"/>
 <path fill="rgb(153,255,102)" stroke="none" d="M 11667,12532 L 11667,12632 11767,12632 11767,12532 11667,12532 Z"/>
 <path fill="none" stroke="rgb(153,255,102)" stroke-linejoin="round" d="M 11667,12532 L 11667,12632 11767,12632 11767,12532 11667,12532 Z"/>
 <path fill="rgb(153,255,102)" stroke="none" d="M 13143,12714 L 13143,12814 13243,12814 13243,12714 13143,12714 Z"/>
 <path fill="none" stroke="rgb(153,255,102)" stroke-linejoin="round" d="M 13143,12714 L 13143,12814 13243,12814 13243,12714 13143,12714 Z"/>
 <path fill="rgb(153,255,102)" stroke="none" d="M 14621,12858 L 14621,12958 14721,12958 14721,12858 14621,12858 Z"/>
 <path fill="none" stroke="rgb(153,255,102)" stroke-linejoin="round" d="M 14621,12858 L 14621,12958 14721,12958 14721,12858 14621,12858 Z"/>
 <path fill="rgb(153,255,102)" stroke="none" d="M 16099,12993 L 16099,13093 16199,13093 16199,12993 16099,12993 Z"/>
 <path fill="none" stroke="rgb(153,255,102)" stroke-linejoin="round" d="M 16099,12993 L 16099,13093 16199,13093 16199,12993 16099,12993 Z"/>
 <path fill="rgb(153,255,102)" stroke="none" d="M 17577,13071 L 17577,13171 17677,13171 17677,13071 17577,13071 Z"/>
 <path fill="none" stroke="rgb(153,255,102)" stroke-linejoin="round" d="M 17577,13071 L 17577,13171 17677,13171 17677,13071 17577,13071 Z"/>
 <path fill="none" stroke="rgb(255,51,51)" stroke-width="80" stroke-linejoin="round" d="M 4327,1960 L 5805,7564 7283,8997 8761,10566 10239,10843 11717,11675 13193,11656 14671,11981 16149,12373 17627,12516"/>
 <path fill="rgb(255,51,51)" stroke="none" d="M 4277,1910 L 4277,2010 4377,2010 4377,1910 4277,1910 Z"/>
 <path fill="none" stroke="rgb(255,51,51)" stroke-linejoin="round" d="M 4277,1910 L 4277,2010 4377,2010 4377,1910 4277,1910 Z"/>
 <path fill="rgb(255,51,51)" stroke="none" d="M 5755,7514 L 5755,7614 5855,7614 5855,7514 5755,7514 Z"/>
 <path fill="none" stroke="rgb(255,51,51)" stroke-linejoin="round" d="M 5755,7514 L 5755,7614 5855,7614 5855,7514 5755,7514 Z"/>
 <path fill="rgb(255,51,51)" stroke="none" d="M 7233,8947 L 7233,9047 7333,9047 7333,8947 7233,8947 Z"/>
 <path fill="none" stroke="rgb(255,51,51)" stroke-linejoin="round" d="M 7233,8947 L 7233,9047 7333,9047 7333,8947 7233,8947 Z"/>
 <path fill="rgb(255,51,51)" stroke="none" d="M 8711,10516 L 8711,10616 8811,10616 8811,10516 8711,10516 Z"/>
 <path fill="none" stroke="rgb(255,51,51)" stroke-linejoin="round" d="M 8711,10516 L 8711,10616 8811,10616 8811,10516 8711,10516 Z"/>
 <path fill="rgb(255,51,51)" stroke="none" d="M 10189,10793 L 10189,10893 10289,10893 10289,10793 10189,10793 Z"/>
 <path fill="none" stroke="rgb(255,51,51)" stroke-linejoin="round" d="M 10189,10793 L 10189,10893 10289,10893 10289,10793 10189,10793 Z"/>
 <path fill="rgb(255,51,51)" stroke="none" d="M 11667,11625 L 11667,11725 11767,11725 11767,11625 11667,11625 Z"/>
 <path fill="none" stroke="rgb(255,51,51)" stroke-linejoin="round" d="M 11667,11625 L 11667,11725 11767,11725 11767,11625 11667,11625 Z"/>
 <path fill="rgb(255,51,51)" stroke="none" d="M 13143,11606 L 13143,11706 13243,11706 13243,11606 13143,11606 Z"/>
 <path fill="none" stroke="rgb(255,51,51)" stroke-linejoin="round" d="M 13143,11606 L 13143,11706 13243,11706 13243,11606 13143,11606 Z"/>
 <path fill="rgb(255,51,51)" stroke="none" d="M 14621,11931 L 14621,12031 14721,12031 14721,11931 14621,11931 Z"/>
 <path fill="none" stroke="rgb(255,51,51)" stroke-linejoin="round" d="M 14621,11931 L 14621,12031 14721,12031 14721,11931 14621,11931 Z"/>
 <path fill="rgb(255,51,51)" stroke="none" d="M 16099,12323 L 16099,12423 16199,12423 16199,12323 16099,12323 Z"/>
 <path fill="none" stroke="rgb(255,51,51)" stroke-linejoin="round" d="M 16099,12323 L 16099,12423 16199,12423 16199,12323 16099,12323 Z"/>
 <path fill="rgb(255,51,51)" stroke="none" d="M 17577,12466 L 17577,12566 17677,12566 17677,12466 17577,12466 Z"/>
 <path fill="none" stroke="rgb(255,51,51)" stroke-linejoin="round" d="M 17577,12466 L 17577,12566 17677,12566 17677,12466 17577,12466 Z"/>
 <text class="TextShape"><tspan class="TextParagraph" font-family="Liberation Sans, sans-serif" font-size="353px" font-weight="400"><tspan class="TextPosition" x="2757" y="14481"><tspan fill="rgb(0,0,0)" stroke="none">0</tspan></tspan></tspan></text>
 <text class="TextShape"><tspan class="TextParagraph" font-family="Liberation Sans, sans-serif" font-size="353px" font-weight="400"><tspan class="TextPosition" x="5712" y="14481"><tspan fill="rgb(0,0,0)" stroke="none">2</tspan></tspan></tspan></text>
 <text class="TextShape"><tspan class="TextParagraph" font-family="Liberation Sans, sans-serif" font-size="353px" font-weight="400"><tspan class="TextPosition" x="8668" y="14481"><tspan fill="rgb(0,0,0)" stroke="none">4</tspan></tspan></tspan></text>
 <text class="TextShape"><tspan class="TextParagraph" font-family="Liberation Sans, sans-serif" font-size="353px" font-weight="400"><tspan class="TextPosition" x="11624" y="14481"><tspan fill="rgb(0,0,0)" stroke="none">6</tspan></tspan></tspan></text>
 <text class="TextShape"><tspan class="TextParagraph" font-family="Liberation Sans, sans-serif" font-size="353px" font-weight="400"><tspan class="TextPosition" x="14579" y="14481"><tspan fill="rgb(0,0,0)" stroke="none">8</tspan></tspan></tspan></text>
 <text class="TextShape"><tspan class="TextParagraph" font-family="Liberation Sans, sans-serif" font-size="353px" font-weight="400"><tspan class="TextPosition" x="17443" y="14481"><tspan fill="rgb(0,0,0)" stroke="none">10</tspan></tspan></tspan></text>
 <text class="TextShape"><tspan class="TextParagraph" font-family="Liberation Sans, sans-serif" font-size="353px" font-weight="400"><tspan class="TextPosition" x="20399" y="14481"><tspan fill="rgb(0,0,0)" stroke="none">12</tspan></tspan></tspan></text>
 <text class="TextShape"><tspan class="TextParagraph" font-family="Liberation Sans, sans-serif" font-size="353px" font-weight="400"><tspan class="TextPosition" x="2415" y="14034"><tspan fill="rgb(0,0,0)" stroke="none">0</tspan></tspan></tspan></text>
 <text class="TextShape"><tspan class="TextParagraph" font-family="Liberation Sans, sans-serif" font-size="353px" font-weight="400"><tspan class="TextPosition" x="2044" y="12121"><tspan fill="rgb(0,0,0)" stroke="none">200</tspan></tspan></tspan></text>
 <text class="TextShape"><tspan class="TextParagraph" font-family="Liberation Sans, sans-serif" font-size="353px" font-weight="400"><tspan class="TextPosition" x="2044" y="10208"><tspan fill="rgb(0,0,0)" stroke="none">400</tspan></tspan></tspan></text>
 <text class="TextShape"><tspan class="TextParagraph" font-family="Liberation Sans, sans-serif" font-size="353px" font-weight="400"><tspan class="TextPosition" x="2044" y="8296"><tspan fill="rgb(0,0,0)" stroke="none">600</tspan></tspan></tspan></text>
 <text class="TextShape"><tspan class="TextParagraph" font-family="Liberation Sans, sans-serif" font-size="353px" font-weight="400"><tspan class="TextPosition" x="2044" y="6383"><tspan fill="rgb(0,0,0)" stroke="none">800</tspan></tspan></tspan></text>
 <text class="TextShape"><tspan class="TextParagraph" font-family="Liberation Sans, sans-serif" font-size="353px" font-weight="400"><tspan class="TextPosition" x="1859" y="4471"><tspan fill="rgb(0,0,0)" stroke="none">1000</tspan></tspan></tspan></text>
 <text class="TextShape"><tspan class="TextParagraph" font-family="Liberation Sans, sans-serif" font-size="353px" font-weight="400"><tspan class="TextPosition" x="1859" y="2558"><tspan fill="rgb(0,0,0)" stroke="none">1200</tspan></tspan></tspan></text>
 <text class="TextShape"><tspan class="TextParagraph" font-family="Liberation Sans, sans-serif" font-size="353px" font-weight="400"><tspan class="TextPosition" x="1859" y="645"><tspan fill="rgb(0,0,0)" stroke="none">1400</tspan></tspan></tspan></text>
 <path fill="none" stroke="rgb(255,51,51)" stroke-width="80" stroke-linejoin="round" d="M 21613,7927 L 22413,7927"/>
 <path fill="rgb(255,51,51)" stroke="none" d="M 21886,7800 L 21886,8054 22140,8054 22140,7800 21886,7800 Z"/>
 <path fill="none" stroke="rgb(255,51,51)" stroke-linejoin="round" d="M 21886,7800 L 21886,8054 22140,8054 22140,7800 21886,7800 Z"/>
 <path fill="none" stroke="rgb(153,255,102)" stroke-width="80" stroke-linejoin="round" d="M 21613,8477 L 22413,8477"/>
 <path fill="rgb(153,255,102)" stroke="none" d="M 21886,8350 L 21886,8604 22140,8604 22140,8350 21886,8350 Z"/>
 <path fill="none" stroke="rgb(153,255,102)" stroke-linejoin="round" d="M 21886,8350 L 21886,8604 22140,8604 22140,8350 21886,8350 Z"/>
 <text class="TextShape"><tspan class="TextParagraph" font-family="Liberation Sans, sans-serif" font-size="423px" font-weight="400"><tspan class="TextPosition" x="22513" y="8072"><tspan fill="rgb(0,0,0)" stroke="none">valeur_maximum</tspan></tspan></tspan></text>
 <text class="TextShape"><tspan class="TextParagraph" font-family="Liberation Sans, sans-serif" font-size="423px" font-weight="400"><tspan class="TextPosition" x="22513" y="8622"><tspan fill="rgb(0,0,0)" stroke="none">valeur_moyenne</tspan></tspan></tspan></text>
 <text class="TextShape"><tspan class="TextParagraph" font-family="Liberation Sans, sans-serif" font-size="635px" font-weight="400"><tspan class="TextPosition" x="10427" y="15663"><tspan fill="rgb(0,0,0)" stroke="none">Tortues</tspan></tspan></tspan></text>
 <text class="TextShape" transform="translate(1201,7907) rotate(-90) translate(-1201,-7907)"><tspan class="TextParagraph" font-family="Liberation Sans, sans-serif" font-size="635px" font-weight="400"><tspan class="TextPosition" x="1201" y="7907"><tspan fill="rgb(0,0,0)" stroke="none">IWI</tspan></tspan></tspan></text>
</svg>