<?xml version="1.0" encoding="UTF-8"?>
<!DOCTYPE svg PUBLIC "-//W3C//DTD SVG 1.1//EN" "http://www.w3.org/Graphics/SVG/1.1/DTD/svg11.dtd">
<svg width="283mm" height="154mm" viewBox="0 0 28300 15400" version="1.1" xmlns="http://www.w3.org/2000/svg" stroke-width="28.222" stroke-linejoin="round" xml:space="preserve">
 <path fill="rgb(255,255,255)" stroke="none" d="M 14606,15432 L 441,15432 441,0 28771,0 28771,15432 14606,15432 Z"/>
 <path fill="none" stroke="rgb(179,179,179)" stroke-linejoin="round" d="M 13493,12960 L 3361,12960 3361,507 23625,507 23625,12960 13493,12960 Z"/>
 <path fill="none" stroke="rgb(179,179,179)" stroke-linejoin="round" d="M 23625,12959 L 3361,12959"/>
 <path fill="none" stroke="rgb(179,179,179)" stroke-linejoin="round" d="M 23625,10883 L 3361,10883"/>
 <path fill="none" stroke="rgb(179,179,179)" stroke-linejoin="round" d="M 23625,8807 L 3361,8807"/>
 <path fill="none" stroke="rgb(179,179,179)" stroke-linejoin="round" d="M 23625,6733 L 3361,6733"/>
 <path fill="none" stroke="rgb(179,179,179)" stroke-linejoin="round" d="M 23625,4657 L 3361,4657"/>
 <path fill="none" stroke="rgb(179,179,179)" stroke-linejoin="round" d="M 23625,2581 L 3361,2581"/>
 <path fill="none" stroke="rgb(179,179,179)" stroke-linejoin="round" d="M 23625,506 L 3361,506"/>
 <path fill="none" stroke="rgb(179,179,179)" stroke-linejoin="round" d="M 3361,13109 L 3361,12959"/>
 <path fill="none" stroke="rgb(179,179,179)" stroke-linejoin="round" d="M 3361,13109 L 3361,12959"/>
 <path fill="none" stroke="rgb(179,179,179)" stroke-linejoin="round" d="M 5387,13109 L 5387,12959"/>
 <path fill="none" stroke="rgb(179,179,179)" stroke-linejoin="round" d="M 5387,13109 L 5387,12959"/>
 <path fill="none" stroke="rgb(179,179,179)" stroke-linejoin="round" d="M 7414,13109 L 7414,12959"/>
 <path fill="none" stroke="rgb(179,179,179)" stroke-linejoin="round" d="M 7414,13109 L 7414,12959"/>
 <path fill="none" stroke="rgb(179,179,179)" stroke-linejoin="round" d="M 9440,13109 L 9440,12959"/>
 <path fill="none" stroke="rgb(179,179,179)" stroke-linejoin="round" d="M 9440,13109 L 9440,12959"/>
 <path fill="none" stroke="rgb(179,179,179)" stroke-linejoin="round" d="M 11467,13109 L 11467,12959"/>
 <path fill="none" stroke="rgb(179,179,179)" stroke-linejoin="round" d="M 11467,13109 L 11467,12959"/>
 <path fill="none" stroke="rgb(179,179,179)" stroke-linejoin="round" d="M 13493,13109 L 13493,12959"/>
 <path fill="none" stroke="rgb(179,179,179)" stroke-linejoin="round" d="M 13493,13109 L 13493,12959"/>
 <path fill="none" stroke="rgb(179,179,179)" stroke-linejoin="round" d="M 15519,13109 L 15519,12959"/>
 <path fill="none" stroke="rgb(179,179,179)" stroke-linejoin="round" d="M 15519,13109 L 15519,12959"/>
 <path fill="none" stroke="rgb(179,179,179)" stroke-linejoin="round" d="M 17545,13109 L 17545,12959"/>
 <path fill="none" stroke="rgb(179,179,179)" stroke-linejoin="round" d="M 17545,13109 L 17545,12959"/>
 <path fill="none" stroke="rgb(179,179,179)" stroke-linejoin="round" d="M 19572,13109 L 19572,12959"/>
 <path fill="none" stroke="rgb(179,179,179)" stroke-linejoin="round" d="M 19572,13109 L 19572,12959"/>
 <path fill="none" stroke="rgb(179,179,179)" stroke-linejoin="round" d="M 21598,13109 L 21598,12959"/>
 <path fill="none" stroke="rgb(179,179,179)" stroke-linejoin="round" d="M 21598,13109 L 21598,12959"/>
 <path fill="none" stroke="rgb(179,179,179)" stroke-linejoin="round" d="M 23625,13109 L 23625,12959"/>
 <path fill="none" stroke="rgb(179,179,179)" stroke-linejoin="round" d="M 23625,13109 L 23625,12959"/>
 <path fill="none" stroke="rgb(179,179,179)" stroke-linejoin="round" d="M 3361,12959 L 23625,12959"/>
 <path fill="none" stroke="rgb(179,179,179)" stroke-linejoin="round" d="M 3211,12959 L 3361,12959"/>
 <path fill="none" stroke="rgb(179,179,179)" stroke-linejoin="round" d="M 3211,12959 L 3361,12959"/>
 <path fill="none" stroke="rgb(179,179,179)" stroke-linejoin="round" d="M 3211,10883 L 3361,10883"/>
 <path fill="none" stroke="rgb(179,179,179)" stroke-linejoin="round" d="M 3211,10883 L 3361,10883"/>
 <path fill="none" stroke="rgb(179,179,179)" stroke-linejoin="round" d="M 3211,8807 L 3361,8807"/>
 <path fill="none" stroke="rgb(179,179,179)" stroke-linejoin="round" d="M 3211,8807 L 3361,8807"/>
 <path fill="none" stroke="rgb(179,179,179)" stroke-linejoin="round" d="M 3211,6733 L 3361,6733"/>
 <path fill="none" stroke="rgb(179,179,179)" stroke-linejoin="round" d="M 3211,6733 L 3361,6733"/>
 <path fill="none" stroke="rgb(179,179,179)" stroke-linejoin="round" d="M 3211,4657 L 3361,4657"/>
 <path fill="none" stroke="rgb(179,179,179)" stroke-linejoin="round" d="M 3211,4657 L 3361,4657"/>
 <path fill="none" stroke="rgb(179,179,179)" stroke-linejoin="round" d="M 3211,2581 L 3361,2581"/>
 <path fill="none" stroke="rgb(179,179,179)" stroke-linejoin="round" d="M 3211,2581 L 3361,2581"/>
 <path fill="none" stroke="rgb(179,179,179)" stroke-linejoin="round" d="M 3211,506 L 3361,506"/>
 <path fill="none" stroke="rgb(179,179,179)" stroke-linejoin="round" d="M 3211,506 L 3361,506"/>
 <path fill="none" stroke="rgb(179,179,179)" stroke-linejoin="round" d="M 3361,12959 L 3361,506"/>
 <path fill="none" stroke="rgb(153,255,102)" stroke-width="80" stroke-linejoin="round" d="M 3361,12392 L 3563,12454 3766,12419 3968,12560 4171,12629 4374,11954 4576,12348 4779,12529 4982,12563 5184,12627 5387,12391 5590,12606 5792,12571 5995,12525 6198,12615 6400,12414 6603,12444 6806,12498 7008,12565 7211,12499 7414,12408 7616,12258 7819,12345 8021,12536 8224,12234 8427,12448 8629,12522 8832,12597 9035,12462 9237,12514 9440,12490 9643,12630 9845,12395 10048,12536 10251,12419 10453,12592 10656,12392 10859,12296 11061,12177 11264,12310 11467,12272 11669,12401 11872,12512 12074,12784 12277,12495 12480,12583 12682,12427 12885,12667 13088,12270 13290,12686 13493,12191 13696,12521 13898,12392 14101,12440 14304,12167 14506,12340 14708,12515 14911,12538 15113,12458 15316,12136 15519,12534 15721,12368 15924,12636 16126,12759 16329,12385 16532,12375 16734,12420 16937,12707 17140,12446 17342,12613 17545,12656 17748,12788 17950,12588 18153,12574 18356,12142 18558,12428 18761,12622 18964,12507 19166,12633 19369,12385 19572,12192 19774,12568 19977,12501 20179,12173 20382,12386 20585,12571 20787,12358 20990,12195 21193,12415 21395,12334 21598,12403 21801,12617 22003,12577 22206,12367 22409,12502 22611,12607 22814,12470 23017,12778 23219,12588 23422,12544 23625,12784"/>
 <path fill="rgb(153,255,102)" stroke="none" d="M 3311,12342 L 3311,12442 3411,12442 3411,12342 3311,12342 Z"/>
 <path fill="none" stroke="rgb(153,255,102)" stroke-linejoin="round" d="M 3311,12342 L 3311,12442 3411,12442 3411,12342 3311,12342 Z"/>
 <path fill="rgb(153,255,102)" stroke="none" d="M 3513,12404 L 3513,12504 3613,12504 3613,12404 3513,12404 Z"/>
 <path fill="none" stroke="rgb(153,255,102)" stroke-linejoin="round" d="M 3513,12404 L 3513,12504 3613,12504 3613,12404 3513,12404 Z"/>
 <path fill="rgb(153,255,102)" stroke="none" d="M 3716,12369 L 3716,12469 3816,12469 3816,12369 3716,12369 Z"/>
 <path fill="none" stroke="rgb(153,255,102)" stroke-linejoin="round" d="M 3716,12369 L 3716,12469 3816,12469 3816,12369 3716,12369 Z"/>
 <path fill="rgb(153,255,102)" stroke="none" d="M 3918,12510 L 3918,12610 4018,12610 4018,12510 3918,12510 Z"/>
 <path fill="none" stroke="rgb(153,255,102)" stroke-linejoin="round" d="M 3918,12510 L 3918,12610 4018,12610 4018,12510 3918,12510 Z"/>
 <path fill="rgb(153,255,102)" stroke="none" d="M 4121,12579 L 4121,12679 4221,12679 4221,12579 4121,12579 Z"/>
 <path fill="none" stroke="rgb(153,255,102)" stroke-linejoin="round" d="M 4121,12579 L 4121,12679 4221,12679 4221,12579 4121,12579 Z"/>
 <path fill="rgb(153,255,102)" stroke="none" d="M 4324,11904 L 4324,12004 4424,12004 4424,11904 4324,11904 Z"/>
 <path fill="none" stroke="rgb(153,255,102)" stroke-linejoin="round" d="M 4324,11904 L 4324,12004 4424,12004 4424,11904 4324,11904 Z"/>
 <path fill="rgb(153,255,102)" stroke="none" d="M 4526,12298 L 4526,12398 4626,12398 4626,12298 4526,12298 Z"/>
 <path fill="none" stroke="rgb(153,255,102)" stroke-linejoin="round" d="M 4526,12298 L 4526,12398 4626,12398 4626,12298 4526,12298 Z"/>
 <path fill="rgb(153,255,102)" stroke="none" d="M 4729,12479 L 4729,12579 4829,12579 4829,12479 4729,12479 Z"/>
 <path fill="none" stroke="rgb(153,255,102)" stroke-linejoin="round" d="M 4729,12479 L 4729,12579 4829,12579 4829,12479 4729,12479 Z"/>
 <path fill="rgb(153,255,102)" stroke="none" d="M 4932,12513 L 4932,12613 5032,12613 5032,12513 4932,12513 Z"/>
 <path fill="none" stroke="rgb(153,255,102)" stroke-linejoin="round" d="M 4932,12513 L 4932,12613 5032,12613 5032,12513 4932,12513 Z"/>
 <path fill="rgb(153,255,102)" stroke="none" d="M 5134,12577 L 5134,12677 5234,12677 5234,12577 5134,12577 Z"/>
 <path fill="none" stroke="rgb(153,255,102)" stroke-linejoin="round" d="M 5134,12577 L 5134,12677 5234,12677 5234,12577 5134,12577 Z"/>
 <path fill="rgb(153,255,102)" stroke="none" d="M 5337,12341 L 5337,12441 5437,12441 5437,12341 5337,12341 Z"/>
 <path fill="none" stroke="rgb(153,255,102)" stroke-linejoin="round" d="M 5337,12341 L 5337,12441 5437,12441 5437,12341 5337,12341 Z"/>
 <path fill="rgb(153,255,102)" stroke="none" d="M 5540,12556 L 5540,12656 5640,12656 5640,12556 5540,12556 Z"/>
 <path fill="none" stroke="rgb(153,255,102)" stroke-linejoin="round" d="M 5540,12556 L 5540,12656 5640,12656 5640,12556 5540,12556 Z"/>
 <path fill="rgb(153,255,102)" stroke="none" d="M 5742,12521 L 5742,12621 5842,12621 5842,12521 5742,12521 Z"/>
 <path fill="none" stroke="rgb(153,255,102)" stroke-linejoin="round" d="M 5742,12521 L 5742,12621 5842,12621 5842,12521 5742,12521 Z"/>
 <path fill="rgb(153,255,102)" stroke="none" d="M 5945,12475 L 5945,12575 6045,12575 6045,12475 5945,12475 Z"/>
 <path fill="none" stroke="rgb(153,255,102)" stroke-linejoin="round" d="M 5945,12475 L 5945,12575 6045,12575 6045,12475 5945,12475 Z"/>
 <path fill="rgb(153,255,102)" stroke="none" d="M 6148,12565 L 6148,12665 6248,12665 6248,12565 6148,12565 Z"/>
 <path fill="none" stroke="rgb(153,255,102)" stroke-linejoin="round" d="M 6148,12565 L 6148,12665 6248,12665 6248,12565 6148,12565 Z"/>
 <path fill="rgb(153,255,102)" stroke="none" d="M 6350,12364 L 6350,12464 6450,12464 6450,12364 6350,12364 Z"/>
 <path fill="none" stroke="rgb(153,255,102)" stroke-linejoin="round" d="M 6350,12364 L 6350,12464 6450,12464 6450,12364 6350,12364 Z"/>
 <path fill="rgb(153,255,102)" stroke="none" d="M 6553,12394 L 6553,12494 6653,12494 6653,12394 6553,12394 Z"/>
 <path fill="none" stroke="rgb(153,255,102)" stroke-linejoin="round" d="M 6553,12394 L 6553,12494 6653,12494 6653,12394 6553,12394 Z"/>
 <path fill="rgb(153,255,102)" stroke="none" d="M 6756,12448 L 6756,12548 6856,12548 6856,12448 6756,12448 Z"/>
 <path fill="none" stroke="rgb(153,255,102)" stroke-linejoin="round" d="M 6756,12448 L 6756,12548 6856,12548 6856,12448 6756,12448 Z"/>
 <path fill="rgb(153,255,102)" stroke="none" d="M 6958,12515 L 6958,12615 7058,12615 7058,12515 6958,12515 Z"/>
 <path fill="none" stroke="rgb(153,255,102)" stroke-linejoin="round" d="M 6958,12515 L 6958,12615 7058,12615 7058,12515 6958,12515 Z"/>
 <path fill="rgb(153,255,102)" stroke="none" d="M 7161,12449 L 7161,12549 7261,12549 7261,12449 7161,12449 Z"/>
 <path fill="none" stroke="rgb(153,255,102)" stroke-linejoin="round" d="M 7161,12449 L 7161,12549 7261,12549 7261,12449 7161,12449 Z"/>
 <path fill="rgb(153,255,102)" stroke="none" d="M 7364,12358 L 7364,12458 7464,12458 7464,12358 7364,12358 Z"/>
 <path fill="none" stroke="rgb(153,255,102)" stroke-linejoin="round" d="M 7364,12358 L 7364,12458 7464,12458 7464,12358 7364,12358 Z"/>
 <path fill="rgb(153,255,102)" stroke="none" d="M 7566,12208 L 7566,12308 7666,12308 7666,12208 7566,12208 Z"/>
 <path fill="none" stroke="rgb(153,255,102)" stroke-linejoin="round" d="M 7566,12208 L 7566,12308 7666,12308 7666,12208 7566,12208 Z"/>
 <path fill="rgb(153,255,102)" stroke="none" d="M 7769,12295 L 7769,12395 7869,12395 7869,12295 7769,12295 Z"/>
 <path fill="none" stroke="rgb(153,255,102)" stroke-linejoin="round" d="M 7769,12295 L 7769,12395 7869,12395 7869,12295 7769,12295 Z"/>
 <path fill="rgb(153,255,102)" stroke="none" d="M 7971,12486 L 7971,12586 8071,12586 8071,12486 7971,12486 Z"/>
 <path fill="none" stroke="rgb(153,255,102)" stroke-linejoin="round" d="M 7971,12486 L 7971,12586 8071,12586 8071,12486 7971,12486 Z"/>
 <path fill="rgb(153,255,102)" stroke="none" d="M 8174,12184 L 8174,12284 8274,12284 8274,12184 8174,12184 Z"/>
 <path fill="none" stroke="rgb(153,255,102)" stroke-linejoin="round" d="M 8174,12184 L 8174,12284 8274,12284 8274,12184 8174,12184 Z"/>
 <path fill="rgb(153,255,102)" stroke="none" d="M 8377,12398 L 8377,12498 8477,12498 8477,12398 8377,12398 Z"/>
 <path fill="none" stroke="rgb(153,255,102)" stroke-linejoin="round" d="M 8377,12398 L 8377,12498 8477,12498 8477,12398 8377,12398 Z"/>
 <path fill="rgb(153,255,102)" stroke="none" d="M 8579,12472 L 8579,12572 8679,12572 8679,12472 8579,12472 Z"/>
 <path fill="none" stroke="rgb(153,255,102)" stroke-linejoin="round" d="M 8579,12472 L 8579,12572 8679,12572 8679,12472 8579,12472 Z"/>
 <path fill="rgb(153,255,102)" stroke="none" d="M 8782,12547 L 8782,12647 8882,12647 8882,12547 8782,12547 Z"/>
 <path fill="none" stroke="rgb(153,255,102)" stroke-linejoin="round" d="M 8782,12547 L 8782,12647 8882,12647 8882,12547 8782,12547 Z"/>
 <path fill="rgb(153,255,102)" stroke="none" d="M 8985,12412 L 8985,12512 9085,12512 9085,12412 8985,12412 Z"/>
 <path fill="none" stroke="rgb(153,255,102)" stroke-linejoin="round" d="M 8985,12412 L 8985,12512 9085,12512 9085,12412 8985,12412 Z"/>
 <path fill="rgb(153,255,102)" stroke="none" d="M 9187,12464 L 9187,12564 9287,12564 9287,12464 9187,12464 Z"/>
 <path fill="none" stroke="rgb(153,255,102)" stroke-linejoin="round" d="M 9187,12464 L 9187,12564 9287,12564 9287,12464 9187,12464 Z"/>
 <path fill="rgb(153,255,102)" stroke="none" d="M 9390,12440 L 9390,12540 9490,12540 9490,12440 9390,12440 Z"/>
 <path fill="none" stroke="rgb(153,255,102)" stroke-linejoin="round" d="M 9390,12440 L 9390,12540 9490,12540 9490,12440 9390,12440 Z"/>
 <path fill="rgb(153,255,102)" stroke="none" d="M 9593,12580 L 9593,12680 9693,12680 9693,12580 9593,12580 Z"/>
 <path fill="none" stroke="rgb(153,255,102)" stroke-linejoin="round" d="M 9593,12580 L 9593,12680 9693,12680 9693,12580 9593,12580 Z"/>
 <path fill="rgb(153,255,102)" stroke="none" d="M 9795,12345 L 9795,12445 9895,12445 9895,12345 9795,12345 Z"/>
 <path fill="none" stroke="rgb(153,255,102)" stroke-linejoin="round" d="M 9795,12345 L 9795,12445 9895,12445 9895,12345 9795,12345 Z"/>
 <path fill="rgb(153,255,102)" stroke="none" d="M 9998,12486 L 9998,12586 10098,12586 10098,12486 9998,12486 Z"/>
 <path fill="none" stroke="rgb(153,255,102)" stroke-linejoin="round" d="M 9998,12486 L 9998,12586 10098,12586 10098,12486 9998,12486 Z"/>
 <path fill="rgb(153,255,102)" stroke="none" d="M 10201,12369 L 10201,12469 10301,12469 10301,12369 10201,12369 Z"/>
 <path fill="none" stroke="rgb(153,255,102)" stroke-linejoin="round" d="M 10201,12369 L 10201,12469 10301,12469 10301,12369 10201,12369 Z"/>
 <path fill="rgb(153,255,102)" stroke="none" d="M 10403,12542 L 10403,12642 10503,12642 10503,12542 10403,12542 Z"/>
 <path fill="none" stroke="rgb(153,255,102)" stroke-linejoin="round" d="M 10403,12542 L 10403,12642 10503,12642 10503,12542 10403,12542 Z"/>
 <path fill="rgb(153,255,102)" stroke="none" d="M 10606,12342 L 10606,12442 10706,12442 10706,12342 10606,12342 Z"/>
 <path fill="none" stroke="rgb(153,255,102)" stroke-linejoin="round" d="M 10606,12342 L 10606,12442 10706,12442 10706,12342 10606,12342 Z"/>
 <path fill="rgb(153,255,102)" stroke="none" d="M 10809,12246 L 10809,12346 10909,12346 10909,12246 10809,12246 Z"/>
 <path fill="none" stroke="rgb(153,255,102)" stroke-linejoin="round" d="M 10809,12246 L 10809,12346 10909,12346 10909,12246 10809,12246 Z"/>
 <path fill="rgb(153,255,102)" stroke="none" d="M 11011,12127 L 11011,12227 11111,12227 11111,12127 11011,12127 Z"/>
 <path fill="none" stroke="rgb(153,255,102)" stroke-linejoin="round" d="M 11011,12127 L 11011,12227 11111,12227 11111,12127 11011,12127 Z"/>
 <path fill="rgb(153,255,102)" stroke="none" d="M 11214,12260 L 11214,12360 11314,12360 11314,12260 11214,12260 Z"/>
 <path fill="none" stroke="rgb(153,255,102)" stroke-linejoin="round" d="M 11214,12260 L 11214,12360 11314,12360 11314,12260 11214,12260 Z"/>
 <path fill="rgb(153,255,102)" stroke="none" d="M 11417,12222 L 11417,12322 11517,12322 11517,12222 11417,12222 Z"/>
 <path fill="none" stroke="rgb(153,255,102)" stroke-linejoin="round" d="M 11417,12222 L 11417,12322 11517,12322 11517,12222 11417,12222 Z"/>
 <path fill="rgb(153,255,102)" stroke="none" d="M 11619,12351 L 11619,12451 11719,12451 11719,12351 11619,12351 Z"/>
 <path fill="none" stroke="rgb(153,255,102)" stroke-linejoin="round" d="M 11619,12351 L 11619,12451 11719,12451 11719,12351 11619,12351 Z"/>
 <path fill="rgb(153,255,102)" stroke="none" d="M 11822,12462 L 11822,12562 11922,12562 11922,12462 11822,12462 Z"/>
 <path fill="none" stroke="rgb(153,255,102)" stroke-linejoin="round" d="M 11822,12462 L 11822,12562 11922,12562 11922,12462 11822,12462 Z"/>
 <path fill="rgb(153,255,102)" stroke="none" d="M 12024,12734 L 12024,12834 12124,12834 12124,12734 12024,12734 Z"/>
 <path fill="none" stroke="rgb(153,255,102)" stroke-linejoin="round" d="M 12024,12734 L 12024,12834 12124,12834 12124,12734 12024,12734 Z"/>
 <path fill="rgb(153,255,102)" stroke="none" d="M 12227,12445 L 12227,12545 12327,12545 12327,12445 12227,12445 Z"/>
 <path fill="none" stroke="rgb(153,255,102)" stroke-linejoin="round" d="M 12227,12445 L 12227,12545 12327,12545 12327,12445 12227,12445 Z"/>
 <path fill="rgb(153,255,102)" stroke="none" d="M 12430,12533 L 12430,12633 12530,12633 12530,12533 12430,12533 Z"/>
 <path fill="none" stroke="rgb(153,255,102)" stroke-linejoin="round" d="M 12430,12533 L 12430,12633 12530,12633 12530,12533 12430,12533 Z"/>
 <path fill="rgb(153,255,102)" stroke="none" d="M 12632,12377 L 12632,12477 12732,12477 12732,12377 12632,12377 Z"/>
 <path fill="none" stroke="rgb(153,255,102)" stroke-linejoin="round" d="M 12632,12377 L 12632,12477 12732,12477 12732,12377 12632,12377 Z"/>
 <path fill="rgb(153,255,102)" stroke="none" d="M 12835,12617 L 12835,12717 12935,12717 12935,12617 12835,12617 Z"/>
 <path fill="none" stroke="rgb(153,255,102)" stroke-linejoin="round" d="M 12835,12617 L 12835,12717 12935,12717 12935,12617 12835,12617 Z"/>
 <path fill="rgb(153,255,102)" stroke="none" d="M 13038,12220 L 13038,12320 13138,12320 13138,12220 13038,12220 Z"/>
 <path fill="none" stroke="rgb(153,255,102)" stroke-linejoin="round" d="M 13038,12220 L 13038,12320 13138,12320 13138,12220 13038,12220 Z"/>
 <path fill="rgb(153,255,102)" stroke="none" d="M 13240,12636 L 13240,12736 13340,12736 13340,12636 13240,12636 Z"/>
 <path fill="none" stroke="rgb(153,255,102)" stroke-linejoin="round" d="M 13240,12636 L 13240,12736 13340,12736 13340,12636 13240,12636 Z"/>
 <path fill="rgb(153,255,102)" stroke="none" d="M 13443,12141 L 13443,12241 13543,12241 13543,12141 13443,12141 Z"/>
 <path fill="none" stroke="rgb(153,255,102)" stroke-linejoin="round" d="M 13443,12141 L 13443,12241 13543,12241 13543,12141 13443,12141 Z"/>
 <path fill="rgb(153,255,102)" stroke="none" d="M 13646,12471 L 13646,12571 13746,12571 13746,12471 13646,12471 Z"/>
 <path fill="none" stroke="rgb(153,255,102)" stroke-linejoin="round" d="M 13646,12471 L 13646,12571 13746,12571 13746,12471 13646,12471 Z"/>
 <path fill="rgb(153,255,102)" stroke="none" d="M 13848,12342 L 13848,12442 13948,12442 13948,12342 13848,12342 Z"/>
 <path fill="none" stroke="rgb(153,255,102)" stroke-linejoin="round" d="M 13848,12342 L 13848,12442 13948,12442 13948,12342 13848,12342 Z"/>
 <path fill="rgb(153,255,102)" stroke="none" d="M 14051,12390 L 14051,12490 14151,12490 14151,12390 14051,12390 Z"/>
 <path fill="none" stroke="rgb(153,255,102)" stroke-linejoin="round" d="M 14051,12390 L 14051,12490 14151,12490 14151,12390 14051,12390 Z"/>
 <path fill="rgb(153,255,102)" stroke="none" d="M 14254,12117 L 14254,12217 14354,12217 14354,12117 14254,12117 Z"/>
 <path fill="none" stroke="rgb(153,255,102)" stroke-linejoin="round" d="M 14254,12117 L 14254,12217 14354,12217 14354,12117 14254,12117 Z"/>
 <path fill="rgb(153,255,102)" stroke="none" d="M 14456,12290 L 14456,12390 14556,12390 14556,12290 14456,12290 Z"/>
 <path fill="none" stroke="rgb(153,255,102)" stroke-linejoin="round" d="M 14456,12290 L 14456,12390 14556,12390 14556,12290 14456,12290 Z"/>
 <path fill="rgb(153,255,102)" stroke="none" d="M 14658,12465 L 14658,12565 14758,12565 14758,12465 14658,12465 Z"/>
 <path fill="none" stroke="rgb(153,255,102)" stroke-linejoin="round" d="M 14658,12465 L 14658,12565 14758,12565 14758,12465 14658,12465 Z"/>
 <path fill="rgb(153,255,102)" stroke="none" d="M 14861,12488 L 14861,12588 14961,12588 14961,12488 14861,12488 Z"/>
 <path fill="none" stroke="rgb(153,255,102)" stroke-linejoin="round" d="M 14861,12488 L 14861,12588 14961,12588 14961,12488 14861,12488 Z"/>
 <path fill="rgb(153,255,102)" stroke="none" d="M 15063,12408 L 15063,12508 15163,12508 15163,12408 15063,12408 Z"/>
 <path fill="none" stroke="rgb(153,255,102)" stroke-linejoin="round" d="M 15063,12408 L 15063,12508 15163,12508 15163,12408 15063,12408 Z"/>
 <path fill="rgb(153,255,102)" stroke="none" d="M 15266,12086 L 15266,12186 15366,12186 15366,12086 15266,12086 Z"/>
 <path fill="none" stroke="rgb(153,255,102)" stroke-linejoin="round" d="M 15266,12086 L 15266,12186 15366,12186 15366,12086 15266,12086 Z"/>
 <path fill="rgb(153,255,102)" stroke="none" d="M 15469,12484 L 15469,12584 15569,12584 15569,12484 15469,12484 Z"/>
 <path fill="none" stroke="rgb(153,255,102)" stroke-linejoin="round" d="M 15469,12484 L 15469,12584 15569,12584 15569,12484 15469,12484 Z"/>
 <path fill="rgb(153,255,102)" stroke="none" d="M 15671,12318 L 15671,12418 15771,12418 15771,12318 15671,12318 Z"/>
 <path fill="none" stroke="rgb(153,255,102)" stroke-linejoin="round" d="M 15671,12318 L 15671,12418 15771,12418 15771,12318 15671,12318 Z"/>
 <path fill="rgb(153,255,102)" stroke="none" d="M 15874,12586 L 15874,12686 15974,12686 15974,12586 15874,12586 Z"/>
 <path fill="none" stroke="rgb(153,255,102)" stroke-linejoin="round" d="M 15874,12586 L 15874,12686 15974,12686 15974,12586 15874,12586 Z"/>
 <path fill="rgb(153,255,102)" stroke="none" d="M 16076,12709 L 16076,12809 16176,12809 16176,12709 16076,12709 Z"/>
 <path fill="none" stroke="rgb(153,255,102)" stroke-linejoin="round" d="M 16076,12709 L 16076,12809 16176,12809 16176,12709 16076,12709 Z"/>
 <path fill="rgb(153,255,102)" stroke="none" d="M 16279,12335 L 16279,12435 16379,12435 16379,12335 16279,12335 Z"/>
 <path fill="none" stroke="rgb(153,255,102)" stroke-linejoin="round" d="M 16279,12335 L 16279,12435 16379,12435 16379,12335 16279,12335 Z"/>
 <path fill="rgb(153,255,102)" stroke="none" d="M 16482,12325 L 16482,12425 16582,12425 16582,12325 16482,12325 Z"/>
 <path fill="none" stroke="rgb(153,255,102)" stroke-linejoin="round" d="M 16482,12325 L 16482,12425 16582,12425 16582,12325 16482,12325 Z"/>
 <path fill="rgb(153,255,102)" stroke="none" d="M 16684,12370 L 16684,12470 16784,12470 16784,12370 16684,12370 Z"/>
 <path fill="none" stroke="rgb(153,255,102)" stroke-linejoin="round" d="M 16684,12370 L 16684,12470 16784,12470 16784,12370 16684,12370 Z"/>
 <path fill="rgb(153,255,102)" stroke="none" d="M 16887,12657 L 16887,12757 16987,12757 16987,12657 16887,12657 Z"/>
 <path fill="none" stroke="rgb(153,255,102)" stroke-linejoin="round" d="M 16887,12657 L 16887,12757 16987,12757 16987,12657 16887,12657 Z"/>
 <path fill="rgb(153,255,102)" stroke="none" d="M 17090,12396 L 17090,12496 17190,12496 17190,12396 17090,12396 Z"/>
 <path fill="none" stroke="rgb(153,255,102)" stroke-linejoin="round" d="M 17090,12396 L 17090,12496 17190,12496 17190,12396 17090,12396 Z"/>
 <path fill="rgb(153,255,102)" stroke="none" d="M 17292,12563 L 17292,12663 17392,12663 17392,12563 17292,12563 Z"/>
 <path fill="none" stroke="rgb(153,255,102)" stroke-linejoin="round" d="M 17292,12563 L 17292,12663 17392,12663 17392,12563 17292,12563 Z"/>
 <path fill="rgb(153,255,102)" stroke="none" d="M 17495,12606 L 17495,12706 17595,12706 17595,12606 17495,12606 Z"/>
 <path fill="none" stroke="rgb(153,255,102)" stroke-linejoin="round" d="M 17495,12606 L 17495,12706 17595,12706 17595,12606 17495,12606 Z"/>
 <path fill="rgb(153,255,102)" stroke="none" d="M 17698,12738 L 17698,12838 17798,12838 17798,12738 17698,12738 Z"/>
 <path fill="none" stroke="rgb(153,255,102)" stroke-linejoin="round" d="M 17698,12738 L 17698,12838 17798,12838 17798,12738 17698,12738 Z"/>
 <path fill="rgb(153,255,102)" stroke="none" d="M 17900,12538 L 17900,12638 18000,12638 18000,12538 17900,12538 Z"/>
 <path fill="none" stroke="rgb(153,255,102)" stroke-linejoin="round" d="M 17900,12538 L 17900,12638 18000,12638 18000,12538 17900,12538 Z"/>
 <path fill="rgb(153,255,102)" stroke="none" d="M 18103,12524 L 18103,12624 18203,12624 18203,12524 18103,12524 Z"/>
 <path fill="none" stroke="rgb(153,255,102)" stroke-linejoin="round" d="M 18103,12524 L 18103,12624 18203,12624 18203,12524 18103,12524 Z"/>
 <path fill="rgb(153,255,102)" stroke="none" d="M 18306,12092 L 18306,12192 18406,12192 18406,12092 18306,12092 Z"/>
 <path fill="none" stroke="rgb(153,255,102)" stroke-linejoin="round" d="M 18306,12092 L 18306,12192 18406,12192 18406,12092 18306,12092 Z"/>
 <path fill="rgb(153,255,102)" stroke="none" d="M 18508,12378 L 18508,12478 18608,12478 18608,12378 18508,12378 Z"/>
 <path fill="none" stroke="rgb(153,255,102)" stroke-linejoin="round" d="M 18508,12378 L 18508,12478 18608,12478 18608,12378 18508,12378 Z"/>
 <path fill="rgb(153,255,102)" stroke="none" d="M 18711,12572 L 18711,12672 18811,12672 18811,12572 18711,12572 Z"/>
 <path fill="none" stroke="rgb(153,255,102)" stroke-linejoin="round" d="M 18711,12572 L 18711,12672 18811,12672 18811,12572 18711,12572 Z"/>
 <path fill="rgb(153,255,102)" stroke="none" d="M 18914,12457 L 18914,12557 19014,12557 19014,12457 18914,12457 Z"/>
 <path fill="none" stroke="rgb(153,255,102)" stroke-linejoin="round" d="M 18914,12457 L 18914,12557 19014,12557 19014,12457 18914,12457 Z"/>
 <path fill="rgb(153,255,102)" stroke="none" d="M 19116,12583 L 19116,12683 19216,12683 19216,12583 19116,12583 Z"/>
 <path fill="none" stroke="rgb(153,255,102)" stroke-linejoin="round" d="M 19116,12583 L 19116,12683 19216,12683 19216,12583 19116,12583 Z"/>
 <path fill="rgb(153,255,102)" stroke="none" d="M 19319,12335 L 19319,12435 19419,12435 19419,12335 19319,12335 Z"/>
 <path fill="none" stroke="rgb(153,255,102)" stroke-linejoin="round" d="M 19319,12335 L 19319,12435 19419,12435 19419,12335 19319,12335 Z"/>
 <path fill="rgb(153,255,102)" stroke="none" d="M 19522,12142 L 19522,12242 19622,12242 19622,12142 19522,12142 Z"/>
 <path fill="none" stroke="rgb(153,255,102)" stroke-linejoin="round" d="M 19522,12142 L 19522,12242 19622,12242 19622,12142 19522,12142 Z"/>
 <path fill="rgb(153,255,102)" stroke="none" d="M 19724,12518 L 19724,12618 19824,12618 19824,12518 19724,12518 Z"/>
 <path fill="none" stroke="rgb(153,255,102)" stroke-linejoin="round" d="M 19724,12518 L 19724,12618 19824,12618 19824,12518 19724,12518 Z"/>
 <path fill="rgb(153,255,102)" stroke="none" d="M 19927,12451 L 19927,12551 20027,12551 20027,12451 19927,12451 Z"/>
 <path fill="none" stroke="rgb(153,255,102)" stroke-linejoin="round" d="M 19927,12451 L 19927,12551 20027,12551 20027,12451 19927,12451 Z"/>
 <path fill="rgb(153,255,102)" stroke="none" d="M 20129,12123 L 20129,12223 20229,12223 20229,12123 20129,12123 Z"/>
 <path fill="none" stroke="rgb(153,255,102)" stroke-linejoin="round" d="M 20129,12123 L 20129,12223 20229,12223 20229,12123 20129,12123 Z"/>
 <path fill="rgb(153,255,102)" stroke="none" d="M 20332,12336 L 20332,12436 20432,12436 20432,12336 20332,12336 Z"/>
 <path fill="none" stroke="rgb(153,255,102)" stroke-linejoin="round" d="M 20332,12336 L 20332,12436 20432,12436 20432,12336 20332,12336 Z"/>
 <path fill="rgb(153,255,102)" stroke="none" d="M 20535,12521 L 20535,12621 20635,12621 20635,12521 20535,12521 Z"/>
 <path fill="none" stroke="rgb(153,255,102)" stroke-linejoin="round" d="M 20535,12521 L 20535,12621 20635,12621 20635,12521 20535,12521 Z"/>
 <path fill="rgb(153,255,102)" stroke="none" d="M 20737,12308 L 20737,12408 20837,12408 20837,12308 20737,12308 Z"/>
 <path fill="none" stroke="rgb(153,255,102)" stroke-linejoin="round" d="M 20737,12308 L 20737,12408 20837,12408 20837,12308 20737,12308 Z"/>
 <path fill="rgb(153,255,102)" stroke="none" d="M 20940,12145 L 20940,12245 21040,12245 21040,12145 20940,12145 Z"/>
 <path fill="none" stroke="rgb(153,255,102)" stroke-linejoin="round" d="M 20940,12145 L 20940,12245 21040,12245 21040,12145 20940,12145 Z"/>
 <path fill="rgb(153,255,102)" stroke="none" d="M 21143,12365 L 21143,12465 21243,12465 21243,12365 21143,12365 Z"/>
 <path fill="none" stroke="rgb(153,255,102)" stroke-linejoin="round" d="M 21143,12365 L 21143,12465 21243,12465 21243,12365 21143,12365 Z"/>
 <path fill="rgb(153,255,102)" stroke="none" d="M 21345,12284 L 21345,12384 21445,12384 21445,12284 21345,12284 Z"/>
 <path fill="none" stroke="rgb(153,255,102)" stroke-linejoin="round" d="M 21345,12284 L 21345,12384 21445,12384 21445,12284 21345,12284 Z"/>
 <path fill="rgb(153,255,102)" stroke="none" d="M 21548,12353 L 21548,12453 21648,12453 21648,12353 21548,12353 Z"/>
 <path fill="none" stroke="rgb(153,255,102)" stroke-linejoin="round" d="M 21548,12353 L 21548,12453 21648,12453 21648,12353 21548,12353 Z"/>
 <path fill="rgb(153,255,102)" stroke="none" d="M 21751,12567 L 21751,12667 21851,12667 21851,12567 21751,12567 Z"/>
 <path fill="none" stroke="rgb(153,255,102)" stroke-linejoin="round" d="M 21751,12567 L 21751,12667 21851,12667 21851,12567 21751,12567 Z"/>
 <path fill="rgb(153,255,102)" stroke="none" d="M 21953,12527 L 21953,12627 22053,12627 22053,12527 21953,12527 Z"/>
 <path fill="none" stroke="rgb(153,255,102)" stroke-linejoin="round" d="M 21953,12527 L 21953,12627 22053,12627 22053,12527 21953,12527 Z"/>
 <path fill="rgb(153,255,102)" stroke="none" d="M 22156,12317 L 22156,12417 22256,12417 22256,12317 22156,12317 Z"/>
 <path fill="none" stroke="rgb(153,255,102)" stroke-linejoin="round" d="M 22156,12317 L 22156,12417 22256,12417 22256,12317 22156,12317 Z"/>
 <path fill="rgb(153,255,102)" stroke="none" d="M 22359,12452 L 22359,12552 22459,12552 22459,12452 22359,12452 Z"/>
 <path fill="none" stroke="rgb(153,255,102)" stroke-linejoin="round" d="M 22359,12452 L 22359,12552 22459,12552 22459,12452 22359,12452 Z"/>
 <path fill="rgb(153,255,102)" stroke="none" d="M 22561,12557 L 22561,12657 22661,12657 22661,12557 22561,12557 Z"/>
 <path fill="none" stroke="rgb(153,255,102)" stroke-linejoin="round" d="M 22561,12557 L 22561,12657 22661,12657 22661,12557 22561,12557 Z"/>
 <path fill="rgb(153,255,102)" stroke="none" d="M 22764,12420 L 22764,12520 22864,12520 22864,12420 22764,12420 Z"/>
 <path fill="none" stroke="rgb(153,255,102)" stroke-linejoin="round" d="M 22764,12420 L 22764,12520 22864,12520 22864,12420 22764,12420 Z"/>
 <path fill="rgb(153,255,102)" stroke="none" d="M 22967,12728 L 22967,12828 23067,12828 23067,12728 22967,12728 Z"/>
 <path fill="none" stroke="rgb(153,255,102)" stroke-linejoin="round" d="M 22967,12728 L 22967,12828 23067,12828 23067,12728 22967,12728 Z"/>
 <path fill="rgb(153,255,102)" stroke="none" d="M 23169,12538 L 23169,12638 23269,12638 23269,12538 23169,12538 Z"/>
 <path fill="none" stroke="rgb(153,255,102)" stroke-linejoin="round" d="M 23169,12538 L 23169,12638 23269,12638 23269,12538 23169,12538 Z"/>
 <path fill="rgb(153,255,102)" stroke="none" d="M 23372,12494 L 23372,12594 23472,12594 23472,12494 23372,12494 Z"/>
 <path fill="none" stroke="rgb(153,255,102)" stroke-linejoin="round" d="M 23372,12494 L 23372,12594 23472,12594 23472,12494 23372,12494 Z"/>
 <path fill="rgb(153,255,102)" stroke="none" d="M 23575,12734 L 23575,12834 23675,12834 23675,12734 23575,12734 Z"/>
 <path fill="none" stroke="rgb(153,255,102)" stroke-linejoin="round" d="M 23575,12734 L 23575,12834 23675,12834 23675,12734 23575,12734 Z"/>
 <path fill="none" stroke="rgb(255,51,51)" stroke-width="80" stroke-linejoin="round" d="M 3361,4781 L 3563,6151 3766,4947 3968,4989 4171,7355 4374,1875 4576,3661 4779,7977 4982,4325 5184,2996 5387,3536 5590,6982 5792,4698 5995,6940 6198,7231 6400,4325 6603,7065 6806,5612 7008,3744 7211,6317 7414,2872 7616,5736 7819,6068 8021,5944 8224,6193 8427,5238 8629,6400 8832,5736 9035,5736 9237,7106 9440,3785 9643,6982 9845,6193 10048,4781 10251,6566 10453,5985 10656,6317 10859,5819 11061,5155 11264,6027 11467,3494 11669,5985 11872,6068 12074,6816 12277,7811 12480,7272 12682,4574 12885,6566 13088,3827 13290,6566 13493,5238 13696,7314 13898,2913 14101,5280 14304,4989 14506,6110 14708,6442 14911,5653 15113,6276 15316,5238 15519,5155 15721,3827 15924,5404 16126,6733 16329,6110 16532,6068 16734,5695 16937,8143 17140,3328 17342,5529 17545,5985 17748,7231 17950,7148 18153,7480 18356,4989 18558,6317 18761,6400 18964,2913 19166,6982 19369,5155 19572,2955 19774,5861 19977,6649 20179,2955 20382,6276 20585,7189 20787,5944 20990,3079 21193,4325 21395,4076 21598,3993 21801,6027 22003,6400 22206,6317 22409,7272 22611,5404 22814,1419 23017,6649 23219,6608 23422,4574 23625,7397"/>
 <path fill="rgb(255,51,51)" stroke="none" d="M 3311,4731 L 3311,4831 3411,4831 3411,4731 3311,4731 Z"/>
 <path fill="none" stroke="rgb(255,51,51)" stroke-linejoin="round" d="M 3311,4731 L 3311,4831 3411,4831 3411,4731 3311,4731 Z"/>
 <path fill="rgb(255,51,51)" stroke="none" d="M 3513,6101 L 3513,6201 3613,6201 3613,6101 3513,6101 Z"/>
 <path fill="none" stroke="rgb(255,51,51)" stroke-linejoin="round" d="M 3513,6101 L 3513,6201 3613,6201 3613,6101 3513,6101 Z"/>
 <path fill="rgb(255,51,51)" stroke="none" d="M 3716,4897 L 3716,4997 3816,4997 3816,4897 3716,4897 Z"/>
 <path fill="none" stroke="rgb(255,51,51)" stroke-linejoin="round" d="M 3716,4897 L 3716,4997 3816,4997 3816,4897 3716,4897 Z"/>
 <path fill="rgb(255,51,51)" stroke="none" d="M 3918,4939 L 3918,5039 4018,5039 4018,4939 3918,4939 Z"/>
 <path fill="none" stroke="rgb(255,51,51)" stroke-linejoin="round" d="M 3918,4939 L 3918,5039 4018,5039 4018,4939 3918,4939 Z"/>
 <path fill="rgb(255,51,51)" stroke="none" d="M 4121,7305 L 4121,7405 4221,7405 4221,7305 4121,7305 Z"/>
 <path fill="none" stroke="rgb(255,51,51)" stroke-linejoin="round" d="M 4121,7305 L 4121,7405 4221,7405 4221,7305 4121,7305 Z"/>
 <path fill="rgb(255,51,51)" stroke="none" d="M 4324,1825 L 4324,1925 4424,1925 4424,1825 4324,1825 Z"/>
 <path fill="none" stroke="rgb(255,51,51)" stroke-linejoin="round" d="M 4324,1825 L 4324,1925 4424,1925 4424,1825 4324,1825 Z"/>
 <path fill="rgb(255,51,51)" stroke="none" d="M 4526,3611 L 4526,3711 4626,3711 4626,3611 4526,3611 Z"/>
 <path fill="none" stroke="rgb(255,51,51)" stroke-linejoin="round" d="M 4526,3611 L 4526,3711 4626,3711 4626,3611 4526,3611 Z"/>
 <path fill="rgb(255,51,51)" stroke="none" d="M 4729,7927 L 4729,8027 4829,8027 4829,7927 4729,7927 Z"/>
 <path fill="none" stroke="rgb(255,51,51)" stroke-linejoin="round" d="M 4729,7927 L 4729,8027 4829,8027 4829,7927 4729,7927 Z"/>
 <path fill="rgb(255,51,51)" stroke="none" d="M 4932,4275 L 4932,4375 5032,4375 5032,4275 4932,4275 Z"/>
 <path fill="none" stroke="rgb(255,51,51)" stroke-linejoin="round" d="M 4932,4275 L 4932,4375 5032,4375 5032,4275 4932,4275 Z"/>
 <path fill="rgb(255,51,51)" stroke="none" d="M 5134,2946 L 5134,3046 5234,3046 5234,2946 5134,2946 Z"/>
 <path fill="none" stroke="rgb(255,51,51)" stroke-linejoin="round" d="M 5134,2946 L 5134,3046 5234,3046 5234,2946 5134,2946 Z"/>
 <path fill="rgb(255,51,51)" stroke="none" d="M 5337,3486 L 5337,3586 5437,3586 5437,3486 5337,3486 Z"/>
 <path fill="none" stroke="rgb(255,51,51)" stroke-linejoin="round" d="M 5337,3486 L 5337,3586 5437,3586 5437,3486 5337,3486 Z"/>
 <path fill="rgb(255,51,51)" stroke="none" d="M 5540,6932 L 5540,7032 5640,7032 5640,6932 5540,6932 Z"/>
 <path fill="none" stroke="rgb(255,51,51)" stroke-linejoin="round" d="M 5540,6932 L 5540,7032 5640,7032 5640,6932 5540,6932 Z"/>
 <path fill="rgb(255,51,51)" stroke="none" d="M 5742,4648 L 5742,4748 5842,4748 5842,4648 5742,4648 Z"/>
 <path fill="none" stroke="rgb(255,51,51)" stroke-linejoin="round" d="M 5742,4648 L 5742,4748 5842,4748 5842,4648 5742,4648 Z"/>
 <path fill="rgb(255,51,51)" stroke="none" d="M 5945,6890 L 5945,6990 6045,6990 6045,6890 5945,6890 Z"/>
 <path fill="none" stroke="rgb(255,51,51)" stroke-linejoin="round" d="M 5945,6890 L 5945,6990 6045,6990 6045,6890 5945,6890 Z"/>
 <path fill="rgb(255,51,51)" stroke="none" d="M 6148,7181 L 6148,7281 6248,7281 6248,7181 6148,7181 Z"/>
 <path fill="none" stroke="rgb(255,51,51)" stroke-linejoin="round" d="M 6148,7181 L 6148,7281 6248,7281 6248,7181 6148,7181 Z"/>
 <path fill="rgb(255,51,51)" stroke="none" d="M 6350,4275 L 6350,4375 6450,4375 6450,4275 6350,4275 Z"/>
 <path fill="none" stroke="rgb(255,51,51)" stroke-linejoin="round" d="M 6350,4275 L 6350,4375 6450,4375 6450,4275 6350,4275 Z"/>
 <path fill="rgb(255,51,51)" stroke="none" d="M 6553,7015 L 6553,7115 6653,7115 6653,7015 6553,7015 Z"/>
 <path fill="none" stroke="rgb(255,51,51)" stroke-linejoin="round" d="M 6553,7015 L 6553,7115 6653,7115 6653,7015 6553,7015 Z"/>
 <path fill="rgb(255,51,51)" stroke="none" d="M 6756,5562 L 6756,5662 6856,5662 6856,5562 6756,5562 Z"/>
 <path fill="none" stroke="rgb(255,51,51)" stroke-linejoin="round" d="M 6756,5562 L 6756,5662 6856,5662 6856,5562 6756,5562 Z"/>
 <path fill="rgb(255,51,51)" stroke="none" d="M 6958,3694 L 6958,3794 7058,3794 7058,3694 6958,3694 Z"/>
 <path fill="none" stroke="rgb(255,51,51)" stroke-linejoin="round" d="M 6958,3694 L 6958,3794 7058,3794 7058,3694 6958,3694 Z"/>
 <path fill="rgb(255,51,51)" stroke="none" d="M 7161,6267 L 7161,6367 7261,6367 7261,6267 7161,6267 Z"/>
 <path fill="none" stroke="rgb(255,51,51)" stroke-linejoin="round" d="M 7161,6267 L 7161,6367 7261,6367 7261,6267 7161,6267 Z"/>
 <path fill="rgb(255,51,51)" stroke="none" d="M 7364,2822 L 7364,2922 7464,2922 7464,2822 7364,2822 Z"/>
 <path fill="none" stroke="rgb(255,51,51)" stroke-linejoin="round" d="M 7364,2822 L 7364,2922 7464,2922 7464,2822 7364,2822 Z"/>
 <path fill="rgb(255,51,51)" stroke="none" d="M 7566,5686 L 7566,5786 7666,5786 7666,5686 7566,5686 Z"/>
 <path fill="none" stroke="rgb(255,51,51)" stroke-linejoin="round" d="M 7566,5686 L 7566,5786 7666,5786 7666,5686 7566,5686 Z"/>
 <path fill="rgb(255,51,51)" stroke="none" d="M 7769,6018 L 7769,6118 7869,6118 7869,6018 7769,6018 Z"/>
 <path fill="none" stroke="rgb(255,51,51)" stroke-linejoin="round" d="M 7769,6018 L 7769,6118 7869,6118 7869,6018 7769,6018 Z"/>
 <path fill="rgb(255,51,51)" stroke="none" d="M 7971,5894 L 7971,5994 8071,5994 8071,5894 7971,5894 Z"/>
 <path fill="none" stroke="rgb(255,51,51)" stroke-linejoin="round" d="M 7971,5894 L 7971,5994 8071,5994 8071,5894 7971,5894 Z"/>
 <path fill="rgb(255,51,51)" stroke="none" d="M 8174,6143 L 8174,6243 8274,6243 8274,6143 8174,6143 Z"/>
 <path fill="none" stroke="rgb(255,51,51)" stroke-linejoin="round" d="M 8174,6143 L 8174,6243 8274,6243 8274,6143 8174,6143 Z"/>
 <path fill="rgb(255,51,51)" stroke="none" d="M 8377,5188 L 8377,5288 8477,5288 8477,5188 8377,5188 Z"/>
 <path fill="none" stroke="rgb(255,51,51)" stroke-linejoin="round" d="M 8377,5188 L 8377,5288 8477,5288 8477,5188 8377,5188 Z"/>
 <path fill="rgb(255,51,51)" stroke="none" d="M 8579,6350 L 8579,6450 8679,6450 8679,6350 8579,6350 Z"/>
 <path fill="none" stroke="rgb(255,51,51)" stroke-linejoin="round" d="M 8579,6350 L 8579,6450 8679,6450 8679,6350 8579,6350 Z"/>
 <path fill="rgb(255,51,51)" stroke="none" d="M 8782,5686 L 8782,5786 8882,5786 8882,5686 8782,5686 Z"/>
 <path fill="none" stroke="rgb(255,51,51)" stroke-linejoin="round" d="M 8782,5686 L 8782,5786 8882,5786 8882,5686 8782,5686 Z"/>
 <path fill="rgb(255,51,51)" stroke="none" d="M 8985,5686 L 8985,5786 9085,5786 9085,5686 8985,5686 Z"/>
 <path fill="none" stroke="rgb(255,51,51)" stroke-linejoin="round" d="M 8985,5686 L 8985,5786 9085,5786 9085,5686 8985,5686 Z"/>
 <path fill="rgb(255,51,51)" stroke="none" d="M 9187,7056 L 9187,7156 9287,7156 9287,7056 9187,7056 Z"/>
 <path fill="none" stroke="rgb(255,51,51)" stroke-linejoin="round" d="M 9187,7056 L 9187,7156 9287,7156 9287,7056 9187,7056 Z"/>
 <path fill="rgb(255,51,51)" stroke="none" d="M 9390,3735 L 9390,3835 9490,3835 9490,3735 9390,3735 Z"/>
 <path fill="none" stroke="rgb(255,51,51)" stroke-linejoin="round" d="M 9390,3735 L 9390,3835 9490,3835 9490,3735 9390,3735 Z"/>
 <path fill="rgb(255,51,51)" stroke="none" d="M 9593,6932 L 9593,7032 9693,7032 9693,6932 9593,6932 Z"/>
 <path fill="none" stroke="rgb(255,51,51)" stroke-linejoin="round" d="M 9593,6932 L 9593,7032 9693,7032 9693,6932 9593,6932 Z"/>
 <path fill="rgb(255,51,51)" stroke="none" d="M 9795,6143 L 9795,6243 9895,6243 9895,6143 9795,6143 Z"/>
 <path fill="none" stroke="rgb(255,51,51)" stroke-linejoin="round" d="M 9795,6143 L 9795,6243 9895,6243 9895,6143 9795,6143 Z"/>
 <path fill="rgb(255,51,51)" stroke="none" d="M 9998,4731 L 9998,4831 10098,4831 10098,4731 9998,4731 Z"/>
 <path fill="none" stroke="rgb(255,51,51)" stroke-linejoin="round" d="M 9998,4731 L 9998,4831 10098,4831 10098,4731 9998,4731 Z"/>
 <path fill="rgb(255,51,51)" stroke="none" d="M 10201,6516 L 10201,6616 10301,6616 10301,6516 10201,6516 Z"/>
 <path fill="none" stroke="rgb(255,51,51)" stroke-linejoin="round" d="M 10201,6516 L 10201,6616 10301,6616 10301,6516 10201,6516 Z"/>
 <path fill="rgb(255,51,51)" stroke="none" d="M 10403,5935 L 10403,6035 10503,6035 10503,5935 10403,5935 Z"/>
 <path fill="none" stroke="rgb(255,51,51)" stroke-linejoin="round" d="M 10403,5935 L 10403,6035 10503,6035 10503,5935 10403,5935 Z"/>
 <path fill="rgb(255,51,51)" stroke="none" d="M 10606,6267 L 10606,6367 10706,6367 10706,6267 10606,6267 Z"/>
 <path fill="none" stroke="rgb(255,51,51)" stroke-linejoin="round" d="M 10606,6267 L 10606,6367 10706,6367 10706,6267 10606,6267 Z"/>
 <path fill="rgb(255,51,51)" stroke="none" d="M 10809,5769 L 10809,5869 10909,5869 10909,5769 10809,5769 Z"/>
 <path fill="none" stroke="rgb(255,51,51)" stroke-linejoin="round" d="M 10809,5769 L 10809,5869 10909,5869 10909,5769 10809,5769 Z"/>
 <path fill="rgb(255,51,51)" stroke="none" d="M 11011,5105 L 11011,5205 11111,5205 11111,5105 11011,5105 Z"/>
 <path fill="none" stroke="rgb(255,51,51)" stroke-linejoin="round" d="M 11011,5105 L 11011,5205 11111,5205 11111,5105 11011,5105 Z"/>
 <path fill="rgb(255,51,51)" stroke="none" d="M 11214,5977 L 11214,6077 11314,6077 11314,5977 11214,5977 Z"/>
 <path fill="none" stroke="rgb(255,51,51)" stroke-linejoin="round" d="M 11214,5977 L 11214,6077 11314,6077 11314,5977 11214,5977 Z"/>
 <path fill="rgb(255,51,51)" stroke="none" d="M 11417,3444 L 11417,3544 11517,3544 11517,3444 11417,3444 Z"/>
 <path fill="none" stroke="rgb(255,51,51)" stroke-linejoin="round" d="M 11417,3444 L 11417,3544 11517,3544 11517,3444 11417,3444 Z"/>
 <path fill="rgb(255,51,51)" stroke="none" d="M 11619,5935 L 11619,6035 11719,6035 11719,5935 11619,5935 Z"/>
 <path fill="none" stroke="rgb(255,51,51)" stroke-linejoin="round" d="M 11619,5935 L 11619,6035 11719,6035 11719,5935 11619,5935 Z"/>
 <path fill="rgb(255,51,51)" stroke="none" d="M 11822,6018 L 11822,6118 11922,6118 11922,6018 11822,6018 Z"/>
 <path fill="none" stroke="rgb(255,51,51)" stroke-linejoin="round" d="M 11822,6018 L 11822,6118 11922,6118 11922,6018 11822,6018 Z"/>
 <path fill="rgb(255,51,51)" stroke="none" d="M 12024,6766 L 12024,6866 12124,6866 12124,6766 12024,6766 Z"/>
 <path fill="none" stroke="rgb(255,51,51)" stroke-linejoin="round" d="M 12024,6766 L 12024,6866 12124,6866 12124,6766 12024,6766 Z"/>
 <path fill="rgb(255,51,51)" stroke="none" d="M 12227,7761 L 12227,7861 12327,7861 12327,7761 12227,7761 Z"/>
 <path fill="none" stroke="rgb(255,51,51)" stroke-linejoin="round" d="M 12227,7761 L 12227,7861 12327,7861 12327,7761 12227,7761 Z"/>
 <path fill="rgb(255,51,51)" stroke="none" d="M 12430,7222 L 12430,7322 12530,7322 12530,7222 12430,7222 Z"/>
 <path fill="none" stroke="rgb(255,51,51)" stroke-linejoin="round" d="M 12430,7222 L 12430,7322 12530,7322 12530,7222 12430,7222 Z"/>
 <path fill="rgb(255,51,51)" stroke="none" d="M 12632,4524 L 12632,4624 12732,4624 12732,4524 12632,4524 Z"/>
 <path fill="none" stroke="rgb(255,51,51)" stroke-linejoin="round" d="M 12632,4524 L 12632,4624 12732,4624 12732,4524 12632,4524 Z"/>
 <path fill="rgb(255,51,51)" stroke="none" d="M 12835,6516 L 12835,6616 12935,6616 12935,6516 12835,6516 Z"/>
 <path fill="none" stroke="rgb(255,51,51)" stroke-linejoin="round" d="M 12835,6516 L 12835,6616 12935,6616 12935,6516 12835,6516 Z"/>
 <path fill="rgb(255,51,51)" stroke="none" d="M 13038,3777 L 13038,3877 13138,3877 13138,3777 13038,3777 Z"/>
 <path fill="none" stroke="rgb(255,51,51)" stroke-linejoin="round" d="M 13038,3777 L 13038,3877 13138,3877 13138,3777 13038,3777 Z"/>
 <path fill="rgb(255,51,51)" stroke="none" d="M 13240,6516 L 13240,6616 13340,6616 13340,6516 13240,6516 Z"/>
 <path fill="none" stroke="rgb(255,51,51)" stroke-linejoin="round" d="M 13240,6516 L 13240,6616 13340,6616 13340,6516 13240,6516 Z"/>
 <path fill="rgb(255,51,51)" stroke="none" d="M 13443,5188 L 13443,5288 13543,5288 13543,5188 13443,5188 Z"/>
 <path fill="none" stroke="rgb(255,51,51)" stroke-linejoin="round" d="M 13443,5188 L 13443,5288 13543,5288 13543,5188 13443,5188 Z"/>
 <path fill="rgb(255,51,51)" stroke="none" d="M 13646,7264 L 13646,7364 13746,7364 13746,7264 13646,7264 Z"/>
 <path fill="none" stroke="rgb(255,51,51)" stroke-linejoin="round" d="M 13646,7264 L 13646,7364 13746,7364 13746,7264 13646,7264 Z"/>
 <path fill="rgb(255,51,51)" stroke="none" d="M 13848,2863 L 13848,2963 13948,2963 13948,2863 13848,2863 Z"/>
 <path fill="none" stroke="rgb(255,51,51)" stroke-linejoin="round" d="M 13848,2863 L 13848,2963 13948,2963 13948,2863 13848,2863 Z"/>
 <path fill="rgb(255,51,51)" stroke="none" d="M 14051,5230 L 14051,5330 14151,5330 14151,5230 14051,5230 Z"/>
 <path fill="none" stroke="rgb(255,51,51)" stroke-linejoin="round" d="M 14051,5230 L 14051,5330 14151,5330 14151,5230 14051,5230 Z"/>
 <path fill="rgb(255,51,51)" stroke="none" d="M 14254,4939 L 14254,5039 14354,5039 14354,4939 14254,4939 Z"/>
 <path fill="none" stroke="rgb(255,51,51)" stroke-linejoin="round" d="M 14254,4939 L 14254,5039 14354,5039 14354,4939 14254,4939 Z"/>
 <path fill="rgb(255,51,51)" stroke="none" d="M 14456,6060 L 14456,6160 14556,6160 14556,6060 14456,6060 Z"/>
 <path fill="none" stroke="rgb(255,51,51)" stroke-linejoin="round" d="M 14456,6060 L 14456,6160 14556,6160 14556,6060 14456,6060 Z"/>
 <path fill="rgb(255,51,51)" stroke="none" d="M 14658,6392 L 14658,6492 14758,6492 14758,6392 14658,6392 Z"/>
 <path fill="none" stroke="rgb(255,51,51)" stroke-linejoin="round" d="M 14658,6392 L 14658,6492 14758,6492 14758,6392 14658,6392 Z"/>
 <path fill="rgb(255,51,51)" stroke="none" d="M 14861,5603 L 14861,5703 14961,5703 14961,5603 14861,5603 Z"/>
 <path fill="none" stroke="rgb(255,51,51)" stroke-linejoin="round" d="M 14861,5603 L 14861,5703 14961,5703 14961,5603 14861,5603 Z"/>
 <path fill="rgb(255,51,51)" stroke="none" d="M 15063,6226 L 15063,6326 15163,6326 15163,6226 15063,6226 Z"/>
 <path fill="none" stroke="rgb(255,51,51)" stroke-linejoin="round" d="M 15063,6226 L 15063,6326 15163,6326 15163,6226 15063,6226 Z"/>
 <path fill="rgb(255,51,51)" stroke="none" d="M 15266,5188 L 15266,5288 15366,5288 15366,5188 15266,5188 Z"/>
 <path fill="none" stroke="rgb(255,51,51)" stroke-linejoin="round" d="M 15266,5188 L 15266,5288 15366,5288 15366,5188 15266,5188 Z"/>
 <path fill="rgb(255,51,51)" stroke="none" d="M 15469,5105 L 15469,5205 15569,5205 15569,5105 15469,5105 Z"/>
 <path fill="none" stroke="rgb(255,51,51)" stroke-linejoin="round" d="M 15469,5105 L 15469,5205 15569,5205 15569,5105 15469,5105 Z"/>
 <path fill="rgb(255,51,51)" stroke="none" d="M 15671,3777 L 15671,3877 15771,3877 15771,3777 15671,3777 Z"/>
 <path fill="none" stroke="rgb(255,51,51)" stroke-linejoin="round" d="M 15671,3777 L 15671,3877 15771,3877 15771,3777 15671,3777 Z"/>
 <path fill="rgb(255,51,51)" stroke="none" d="M 15874,5354 L 15874,5454 15974,5454 15974,5354 15874,5354 Z"/>
 <path fill="none" stroke="rgb(255,51,51)" stroke-linejoin="round" d="M 15874,5354 L 15874,5454 15974,5454 15974,5354 15874,5354 Z"/>
 <path fill="rgb(255,51,51)" stroke="none" d="M 16076,6683 L 16076,6783 16176,6783 16176,6683 16076,6683 Z"/>
 <path fill="none" stroke="rgb(255,51,51)" stroke-linejoin="round" d="M 16076,6683 L 16076,6783 16176,6783 16176,6683 16076,6683 Z"/>
 <path fill="rgb(255,51,51)" stroke="none" d="M 16279,6060 L 16279,6160 16379,6160 16379,6060 16279,6060 Z"/>
 <path fill="none" stroke="rgb(255,51,51)" stroke-linejoin="round" d="M 16279,6060 L 16279,6160 16379,6160 16379,6060 16279,6060 Z"/>
 <path fill="rgb(255,51,51)" stroke="none" d="M 16482,6018 L 16482,6118 16582,6118 16582,6018 16482,6018 Z"/>
 <path fill="none" stroke="rgb(255,51,51)" stroke-linejoin="round" d="M 16482,6018 L 16482,6118 16582,6118 16582,6018 16482,6018 Z"/>
 <path fill="rgb(255,51,51)" stroke="none" d="M 16684,5645 L 16684,5745 16784,5745 16784,5645 16684,5645 Z"/>
 <path fill="none" stroke="rgb(255,51,51)" stroke-linejoin="round" d="M 16684,5645 L 16684,5745 16784,5745 16784,5645 16684,5645 Z"/>
 <path fill="rgb(255,51,51)" stroke="none" d="M 16887,8093 L 16887,8193 16987,8193 16987,8093 16887,8093 Z"/>
 <path fill="none" stroke="rgb(255,51,51)" stroke-linejoin="round" d="M 16887,8093 L 16887,8193 16987,8193 16987,8093 16887,8093 Z"/>
 <path fill="rgb(255,51,51)" stroke="none" d="M 17090,3278 L 17090,3378 17190,3378 17190,3278 17090,3278 Z"/>
 <path fill="none" stroke="rgb(255,51,51)" stroke-linejoin="round" d="M 17090,3278 L 17090,3378 17190,3378 17190,3278 17090,3278 Z"/>
 <path fill="rgb(255,51,51)" stroke="none" d="M 17292,5479 L 17292,5579 17392,5579 17392,5479 17292,5479 Z"/>
 <path fill="none" stroke="rgb(255,51,51)" stroke-linejoin="round" d="M 17292,5479 L 17292,5579 17392,5579 17392,5479 17292,5479 Z"/>
 <path fill="rgb(255,51,51)" stroke="none" d="M 17495,5935 L 17495,6035 17595,6035 17595,5935 17495,5935 Z"/>
 <path fill="none" stroke="rgb(255,51,51)" stroke-linejoin="round" d="M 17495,5935 L 17495,6035 17595,6035 17595,5935 17495,5935 Z"/>
 <path fill="rgb(255,51,51)" stroke="none" d="M 17698,7181 L 17698,7281 17798,7281 17798,7181 17698,7181 Z"/>
 <path fill="none" stroke="rgb(255,51,51)" stroke-linejoin="round" d="M 17698,7181 L 17698,7281 17798,7281 17798,7181 17698,7181 Z"/>
 <path fill="rgb(255,51,51)" stroke="none" d="M 17900,7098 L 17900,7198 18000,7198 18000,7098 17900,7098 Z"/>
 <path fill="none" stroke="rgb(255,51,51)" stroke-linejoin="round" d="M 17900,7098 L 17900,7198 18000,7198 18000,7098 17900,7098 Z"/>
 <path fill="rgb(255,51,51)" stroke="none" d="M 18103,7430 L 18103,7530 18203,7530 18203,7430 18103,7430 Z"/>
 <path fill="none" stroke="rgb(255,51,51)" stroke-linejoin="round" d="M 18103,7430 L 18103,7530 18203,7530 18203,7430 18103,7430 Z"/>
 <path fill="rgb(255,51,51)" stroke="none" d="M 18306,4939 L 18306,5039 18406,5039 18406,4939 18306,4939 Z"/>
 <path fill="none" stroke="rgb(255,51,51)" stroke-linejoin="round" d="M 18306,4939 L 18306,5039 18406,5039 18406,4939 18306,4939 Z"/>
 <path fill="rgb(255,51,51)" stroke="none" d="M 18508,6267 L 18508,6367 18608,6367 18608,6267 18508,6267 Z"/>
 <path fill="none" stroke="rgb(255,51,51)" stroke-linejoin="round" d="M 18508,6267 L 18508,6367 18608,6367 18608,6267 18508,6267 Z"/>
 <path fill="rgb(255,51,51)" stroke="none" d="M 18711,6350 L 18711,6450 18811,6450 18811,6350 18711,6350 Z"/>
 <path fill="none" stroke="rgb(255,51,51)" stroke-linejoin="round" d="M 18711,6350 L 18711,6450 18811,6450 18811,6350 18711,6350 Z"/>
 <path fill="rgb(255,51,51)" stroke="none" d="M 18914,2863 L 18914,2963 19014,2963 19014,2863 18914,2863 Z"/>
 <path fill="none" stroke="rgb(255,51,51)" stroke-linejoin="round" d="M 18914,2863 L 18914,2963 19014,2963 19014,2863 18914,2863 Z"/>
 <path fill="rgb(255,51,51)" stroke="none" d="M 19116,6932 L 19116,7032 19216,7032 19216,6932 19116,6932 Z"/>
 <path fill="none" stroke="rgb(255,51,51)" stroke-linejoin="round" d="M 19116,6932 L 19116,7032 19216,7032 19216,6932 19116,6932 Z"/>
 <path fill="rgb(255,51,51)" stroke="none" d="M 19319,5105 L 19319,5205 19419,5205 19419,5105 19319,5105 Z"/>
 <path fill="none" stroke="rgb(255,51,51)" stroke-linejoin="round" d="M 19319,5105 L 19319,5205 19419,5205 19419,5105 19319,5105 Z"/>
 <path fill="rgb(255,51,51)" stroke="none" d="M 19522,2905 L 19522,3005 19622,3005 19622,2905 19522,2905 Z"/>
 <path fill="none" stroke="rgb(255,51,51)" stroke-linejoin="round" d="M 19522,2905 L 19522,3005 19622,3005 19622,2905 19522,2905 Z"/>
 <path fill="rgb(255,51,51)" stroke="none" d="M 19724,5811 L 19724,5911 19824,5911 19824,5811 19724,5811 Z"/>
 <path fill="none" stroke="rgb(255,51,51)" stroke-linejoin="round" d="M 19724,5811 L 19724,5911 19824,5911 19824,5811 19724,5811 Z"/>
 <path fill="rgb(255,51,51)" stroke="none" d="M 19927,6599 L 19927,6699 20027,6699 20027,6599 19927,6599 Z"/>
 <path fill="none" stroke="rgb(255,51,51)" stroke-linejoin="round" d="M 19927,6599 L 19927,6699 20027,6699 20027,6599 19927,6599 Z"/>
 <path fill="rgb(255,51,51)" stroke="none" d="M 20129,2905 L 20129,3005 20229,3005 20229,2905 20129,2905 Z"/>
 <path fill="none" stroke="rgb(255,51,51)" stroke-linejoin="round" d="M 20129,2905 L 20129,3005 20229,3005 20229,2905 20129,2905 Z"/>
 <path fill="rgb(255,51,51)" stroke="none" d="M 20332,6226 L 20332,6326 20432,6326 20432,6226 20332,6226 Z"/>
 <path fill="none" stroke="rgb(255,51,51)" stroke-linejoin="round" d="M 20332,6226 L 20332,6326 20432,6326 20432,6226 20332,6226 Z"/>
 <path fill="rgb(255,51,51)" stroke="none" d="M 20535,7139 L 20535,7239 20635,7239 20635,7139 20535,7139 Z"/>
 <path fill="none" stroke="rgb(255,51,51)" stroke-linejoin="round" d="M 20535,7139 L 20535,7239 20635,7239 20635,7139 20535,7139 Z"/>
 <path fill="rgb(255,51,51)" stroke="none" d="M 20737,5894 L 20737,5994 20837,5994 20837,5894 20737,5894 Z"/>
 <path fill="none" stroke="rgb(255,51,51)" stroke-linejoin="round" d="M 20737,5894 L 20737,5994 20837,5994 20837,5894 20737,5894 Z"/>
 <path fill="rgb(255,51,51)" stroke="none" d="M 20940,3029 L 20940,3129 21040,3129 21040,3029 20940,3029 Z"/>
 <path fill="none" stroke="rgb(255,51,51)" stroke-linejoin="round" d="M 20940,3029 L 20940,3129 21040,3129 21040,3029 20940,3029 Z"/>
 <path fill="rgb(255,51,51)" stroke="none" d="M 21143,4275 L 21143,4375 21243,4375 21243,4275 21143,4275 Z"/>
 <path fill="none" stroke="rgb(255,51,51)" stroke-linejoin="round" d="M 21143,4275 L 21143,4375 21243,4375 21243,4275 21143,4275 Z"/>
 <path fill="rgb(255,51,51)" stroke="none" d="M 21345,4026 L 21345,4126 21445,4126 21445,4026 21345,4026 Z"/>
 <path fill="none" stroke="rgb(255,51,51)" stroke-linejoin="round" d="M 21345,4026 L 21345,4126 21445,4126 21445,4026 21345,4026 Z"/>
 <path fill="rgb(255,51,51)" stroke="none" d="M 21548,3943 L 21548,4043 21648,4043 21648,3943 21548,3943 Z"/>
 <path fill="none" stroke="rgb(255,51,51)" stroke-linejoin="round" d="M 21548,3943 L 21548,4043 21648,4043 21648,3943 21548,3943 Z"/>
 <path fill="rgb(255,51,51)" stroke="none" d="M 21751,5977 L 21751,6077 21851,6077 21851,5977 21751,5977 Z"/>
 <path fill="none" stroke="rgb(255,51,51)" stroke-linejoin="round" d="M 21751,5977 L 21751,6077 21851,6077 21851,5977 21751,5977 Z"/>
 <path fill="rgb(255,51,51)" stroke="none" d="M 21953,6350 L 21953,6450 22053,6450 22053,6350 21953,6350 Z"/>
 <path fill="none" stroke="rgb(255,51,51)" stroke-linejoin="round" d="M 21953,6350 L 21953,6450 22053,6450 22053,6350 21953,6350 Z"/>
 <path fill="rgb(255,51,51)" stroke="none" d="M 22156,6267 L 22156,6367 22256,6367 22256,6267 22156,6267 Z"/>
 <path fill="none" stroke="rgb(255,51,51)" stroke-linejoin="round" d="M 22156,6267 L 22156,6367 22256,6367 22256,6267 22156,6267 Z"/>
 <path fill="rgb(255,51,51)" stroke="none" d="M 22359,7222 L 22359,7322 22459,7322 22459,7222 22359,7222 Z"/>
 <path fill="none" stroke="rgb(255,51,51)" stroke-linejoin="round" d="M 22359,7222 L 22359,7322 22459,7322 22459,7222 22359,7222 Z"/>
 <path fill="rgb(255,51,51)" stroke="none" d="M 22561,5354 L 22561,5454 22661,5454 22661,5354 22561,5354 Z"/>
 <path fill="none" stroke="rgb(255,51,51)" stroke-linejoin="round" d="M 22561,5354 L 22561,5454 22661,5454 22661,5354 22561,5354 Z"/>
 <path fill="rgb(255,51,51)" stroke="none" d="M 22764,1369 L 22764,1469 22864,1469 22864,1369 22764,1369 Z"/>
 <path fill="none" stroke="rgb(255,51,51)" stroke-linejoin="round" d="M 22764,1369 L 22764,1469 22864,1469 22864,1369 22764,1369 Z"/>
 <path fill="rgb(255,51,51)" stroke="none" d="M 22967,6599 L 22967,6699 23067,6699 23067,6599 22967,6599 Z"/>
 <path fill="none" stroke="rgb(255,51,51)" stroke-linejoin="round" d="M 22967,6599 L 22967,6699 23067,6699 23067,6599 22967,6599 Z"/>
 <path fill="rgb(255,51,51)" stroke="none" d="M 23169,6558 L 23169,6658 23269,6658 23269,6558 23169,6558 Z"/>
 <path fill="none" stroke="rgb(255,51,51)" stroke-linejoin="round" d="M 23169,6558 L 23169,6658 23269,6658 23269,6558 23169,6558 Z"/>
 <path fill="rgb(255,51,51)" stroke="none" d="M 23372,4524 L 23372,4624 23472,4624 23472,4524 23372,4524 Z"/>
 <path fill="none" stroke="rgb(255,51,51)" stroke-linejoin="round" d="M 23372,4524 L 23372,4624 23472,4624 23472,4524 23372,4524 Z"/>
 <path fill="rgb(255,51,51)" stroke="none" d="M 23575,7347 L 23575,7447 23675,7447 23675,7347 23575,7347 Z"/>
 <path fill="none" stroke="rgb(255,51,51)" stroke-linejoin="round" d="M 23575,7347 L 23575,7447 23675,7447 23675,7347 23575,7347 Z"/>
 <text class="TextShape"><tspan class="TextParagraph" font-family="Liberation Sans, sans-serif" font-size="353px" font-weight="400"><tspan class="TextPosition" x="3268" y="13527"><tspan fill="rgb(0,0,0)" stroke="none">0</tspan></tspan></tspan></text>
 <text class="TextShape"><tspan class="TextParagraph" font-family="Liberation Sans, sans-serif" font-size="353px" font-weight="400"><tspan class="TextPosition" x="5149" y="13527"><tspan fill="rgb(0,0,0)" stroke="none">0.1</tspan></tspan></tspan></text>
 <text class="TextShape"><tspan class="TextParagraph" font-family="Liberation Sans, sans-serif" font-size="353px" font-weight="400"><tspan class="TextPosition" x="7176" y="13527"><tspan fill="rgb(0,0,0)" stroke="none">0.2</tspan></tspan></tspan></text>
 <text class="TextShape"><tspan class="TextParagraph" font-family="Liberation Sans, sans-serif" font-size="353px" font-weight="400"><tspan class="TextPosition" x="9202" y="13527"><tspan fill="rgb(0,0,0)" stroke="none">0.3</tspan></tspan></tspan></text>
 <text class="TextShape"><tspan class="TextParagraph" font-family="Liberation Sans, sans-serif" font-size="353px" font-weight="400"><tspan class="TextPosition" x="11229" y="13527"><tspan fill="rgb(0,0,0)" stroke="none">0.4</tspan></tspan></tspan></text>
 <text class="TextShape"><tspan class="TextParagraph" font-family="Liberation Sans, sans-serif" font-size="353px" font-weight="400"><tspan class="TextPosition" x="13255" y="13527"><tspan fill="rgb(0,0,0)" stroke="none">0.5</tspan></tspan></tspan></text>
 <text class="TextShape"><tspan class="TextParagraph" font-family="Liberation Sans, sans-serif" font-size="353px" font-weight="400"><tspan class="TextPosition" x="15282" y="13527"><tspan fill="rgb(0,0,0)" stroke="none">0.6</tspan></tspan></tspan></text>
 <text class="TextShape"><tspan class="TextParagraph" font-family="Liberation Sans, sans-serif" font-size="353px" font-weight="400"><tspan class="TextPosition" x="17308" y="13527"><tspan fill="rgb(0,0,0)" stroke="none">0.7</tspan></tspan></tspan></text>
 <text class="TextShape"><tspan class="TextParagraph" font-family="Liberation Sans, sans-serif" font-size="353px" font-weight="400"><tspan class="TextPosition" x="19335" y="13527"><tspan fill="rgb(0,0,0)" stroke="none">0.8</tspan></tspan></tspan></text>
 <text class="TextShape"><tspan class="TextParagraph" font-family="Liberation Sans, sans-serif" font-size="353px" font-weight="400"><tspan class="TextPosition" x="21361" y="13527"><tspan fill="rgb(0,0,0)" stroke="none">0.9</tspan></tspan></tspan></text>
 <text class="TextShape"><tspan class="TextParagraph" font-family="Liberation Sans, sans-serif" font-size="353px" font-weight="400"><tspan class="TextPosition" x="23533" y="13527"><tspan fill="rgb(0,0,0)" stroke="none">1</tspan></tspan></tspan></text>
 <text class="TextShape"><tspan class="TextParagraph" font-family="Liberation Sans, sans-serif" font-size="353px" font-weight="400"><tspan class="TextPosition" x="2555" y="13080"><tspan fill="rgb(0,0,0)" stroke="none">200</tspan></tspan></tspan></text>
 <text class="TextShape"><tspan class="TextParagraph" font-family="Liberation Sans, sans-serif" font-size="353px" font-weight="400"><tspan class="TextPosition" x="2555" y="11004"><tspan fill="rgb(0,0,0)" stroke="none">250</tspan></tspan></tspan></text>
 <text class="TextShape"><tspan class="TextParagraph" font-family="Liberation Sans, sans-serif" font-size="353px" font-weight="400"><tspan class="TextPosition" x="2555" y="8928"><tspan fill="rgb(0,0,0)" stroke="none">300</tspan></tspan></tspan></text>
 <text class="TextShape"><tspan class="TextParagraph" font-family="Liberation Sans, sans-serif" font-size="353px" font-weight="400"><tspan class="TextPosition" x="2555" y="6853"><tspan fill="rgb(0,0,0)" stroke="none">350</tspan></tspan></tspan></text>
 <text class="TextShape"><tspan class="TextParagraph" font-family="Liberation Sans, sans-serif" font-size="353px" font-weight="400"><tspan class="TextPosition" x="2555" y="4777"><tspan fill="rgb(0,0,0)" stroke="none">400</tspan></tspan></tspan></text>
 <text class="TextShape"><tspan class="TextParagraph" font-family="Liberation Sans, sans-serif" font-size="353px" font-weight="400"><tspan class="TextPosition" x="2555" y="2701"><tspan fill="rgb(0,0,0)" stroke="none">450</tspan></tspan></tspan></text>
 <text class="TextShape"><tspan class="TextParagraph" font-family="Liberation Sans, sans-serif" font-size="353px" font-weight="400"><tspan class="TextPosition" x="2555" y="626"><tspan fill="rgb(0,0,0)" stroke="none">500</tspan></tspan></tspan></text>
 <path fill="none" stroke="rgb(255,51,51)" stroke-width="80" stroke-linejoin="round" d="M 24424,7440 L 25224,7440"/>
 <path fill="rgb(255,51,51)" stroke="none" d="M 24697,7313 L 24697,7567 24951,7567 24951,7313 24697,7313 Z"/>
 <path fill="none" stroke="rgb(255,51,51)" stroke-linejoin="round" d="M 24697,7313 L 24697,7567 24951,7567 24951,7313 24697,7313 Z"/>
 <path fill="none" stroke="rgb(153,255,102)" stroke-width="80" stroke-linejoin="round" d="M 24424,7990 L 25224,7990"/>
 <path fill="rgb(153,255,102)" stroke="none" d="M 24697,7863 L 24697,8117 24951,8117 24951,7863 24697,7863 Z"/>
 <path fill="none" stroke="rgb(153,255,102)" stroke-linejoin="round" d="M 24697,7863 L 24697,8117 24951,8117 24951,7863 24697,7863 Z"/>
 <text class="TextShape"><tspan class="TextParagraph" font-family="Liberation Sans, sans-serif" font-size="423px" font-weight="400"><tspan class="TextPosition" x="25324" y="7585"><tspan fill="rgb(0,0,0)" stroke="none">valeur_maximum</tspan></tspan></tspan></text>
 <text class="TextShape"><tspan class="TextParagraph" font-family="Liberation Sans, sans-serif" font-size="423px" font-weight="400"><tspan class="TextPosition" x="25324" y="8135"><tspan fill="rgb(0,0,0)" stroke="none">valeur_moyenne</tspan></tspan></tspan></text>
 <text class="TextShape"><tspan class="TextParagraph" font-family="Liberation Sans, sans-serif" font-size="635px" font-weight="400"><tspan class="TextPosition" x="9353" y="14689"><tspan fill="rgb(0,0,0)" stroke="none">probabilit d&apos;aller tout droit</tspan></tspan></tspan></text>
 <text class="TextShape" transform="translate(1665,7420) rotate(-90) translate(-1665,-7420)"><tspan class="TextParagraph" font-family="Liberation Sans, sans-serif" font-size="635px" font-weight="400"><tspan class="TextPosition" x="1665" y="7420"><tspan fill="rgb(0,0,0)" stroke="none">IWI</tspan></tspan></tspan></text>
</svg>