<?xml version="1.0" encoding="UTF-8"?>
<!DOCTYPE svg PUBLIC "-//W3C//DTD SVG 1.1//EN" "http://www.w3.org/Graphics/SVG/1.1/DTD/svg11.dtd">
<svg width="241mm" height="134mm" viewBox="0 0 24100 13400" version="1.1" xmlns="http://www.w3.org/2000/svg" stroke-width="28.222" stroke-linejoin="round" xml:space="preserve">
 <path fill="rgb(255,255,255)" stroke="none" d="M 12061,13388 L 0,13388 0,0 24122,0 24122,13388 12061,13388 Z"/>
 <path fill="none" stroke="rgb(179,179,179)" stroke-linejoin="round" d="M 10925,10691 L 3394,10691 3394,492 18456,492 18456,10691 10925,10691 Z"/>
 <path fill="none" stroke="rgb(179,179,179)" stroke-linejoin="round" d="M 18455,10690 L 3394,10690"/>
 <path fill="none" stroke="rgb(179,179,179)" stroke-linejoin="round" d="M 18455,8990 L 3394,8990"/>
 <path fill="none" stroke="rgb(179,179,179)" stroke-linejoin="round" d="M 18455,7290 L 3394,7290"/>
 <path fill="none" stroke="rgb(179,179,179)" stroke-linejoin="round" d="M 18455,5590 L 3394,5590"/>
 <path fill="none" stroke="rgb(179,179,179)" stroke-linejoin="round" d="M 18455,3890 L 3394,3890"/>
 <path fill="none" stroke="rgb(179,179,179)" stroke-linejoin="round" d="M 18455,2191 L 3394,2191"/>
 <path fill="none" stroke="rgb(179,179,179)" stroke-linejoin="round" d="M 18455,490 L 3394,490"/>
 <path fill="none" stroke="rgb(179,179,179)" stroke-linejoin="round" d="M 3394,10840 L 3394,10690"/>
 <path fill="none" stroke="rgb(179,179,179)" stroke-linejoin="round" d="M 3394,10840 L 3394,10690"/>
 <path fill="none" stroke="rgb(179,179,179)" stroke-linejoin="round" d="M 5067,10840 L 5067,10690"/>
 <path fill="none" stroke="rgb(179,179,179)" stroke-linejoin="round" d="M 5067,10840 L 5067,10690"/>
 <path fill="none" stroke="rgb(179,179,179)" stroke-linejoin="round" d="M 6741,10840 L 6741,10690"/>
 <path fill="none" stroke="rgb(179,179,179)" stroke-linejoin="round" d="M 6741,10840 L 6741,10690"/>
 <path fill="none" stroke="rgb(179,179,179)" stroke-linejoin="round" d="M 8414,10840 L 8414,10690"/>
 <path fill="none" stroke="rgb(179,179,179)" stroke-linejoin="round" d="M 8414,10840 L 8414,10690"/>
 <path fill="none" stroke="rgb(179,179,179)" stroke-linejoin="round" d="M 10088,10840 L 10088,10690"/>
 <path fill="none" stroke="rgb(179,179,179)" stroke-linejoin="round" d="M 10088,10840 L 10088,10690"/>
 <path fill="none" stroke="rgb(179,179,179)" stroke-linejoin="round" d="M 11762,10840 L 11762,10690"/>
 <path fill="none" stroke="rgb(179,179,179)" stroke-linejoin="round" d="M 11762,10840 L 11762,10690"/>
 <path fill="none" stroke="rgb(179,179,179)" stroke-linejoin="round" d="M 13434,10840 L 13434,10690"/>
 <path fill="none" stroke="rgb(179,179,179)" stroke-linejoin="round" d="M 13434,10840 L 13434,10690"/>
 <path fill="none" stroke="rgb(179,179,179)" stroke-linejoin="round" d="M 15108,10840 L 15108,10690"/>
 <path fill="none" stroke="rgb(179,179,179)" stroke-linejoin="round" d="M 15108,10840 L 15108,10690"/>
 <path fill="none" stroke="rgb(179,179,179)" stroke-linejoin="round" d="M 16782,10840 L 16782,10690"/>
 <path fill="none" stroke="rgb(179,179,179)" stroke-linejoin="round" d="M 16782,10840 L 16782,10690"/>
 <path fill="none" stroke="rgb(179,179,179)" stroke-linejoin="round" d="M 18455,10840 L 18455,10690"/>
 <path fill="none" stroke="rgb(179,179,179)" stroke-linejoin="round" d="M 18455,10840 L 18455,10690"/>
 <path fill="none" stroke="rgb(179,179,179)" stroke-linejoin="round" d="M 3394,10690 L 18455,10690"/>
 <path fill="none" stroke="rgb(179,179,179)" stroke-linejoin="round" d="M 3244,10690 L 3394,10690"/>
 <path fill="none" stroke="rgb(179,179,179)" stroke-linejoin="round" d="M 3244,10690 L 3394,10690"/>
 <path fill="none" stroke="rgb(179,179,179)" stroke-linejoin="round" d="M 3244,8990 L 3394,8990"/>
 <path fill="none" stroke="rgb(179,179,179)" stroke-linejoin="round" d="M 3244,8990 L 3394,8990"/>
 <path fill="none" stroke="rgb(179,179,179)" stroke-linejoin="round" d="M 3244,7290 L 3394,7290"/>
 <path fill="none" stroke="rgb(179,179,179)" stroke-linejoin="round" d="M 3244,7290 L 3394,7290"/>
 <path fill="none" stroke="rgb(179,179,179)" stroke-linejoin="round" d="M 3244,5590 L 3394,5590"/>
 <path fill="none" stroke="rgb(179,179,179)" stroke-linejoin="round" d="M 3244,5590 L 3394,5590"/>
 <path fill="none" stroke="rgb(179,179,179)" stroke-linejoin="round" d="M 3244,3890 L 3394,3890"/>
 <path fill="none" stroke="rgb(179,179,179)" stroke-linejoin="round" d="M 3244,3890 L 3394,3890"/>
 <path fill="none" stroke="rgb(179,179,179)" stroke-linejoin="round" d="M 3244,2191 L 3394,2191"/>
 <path fill="none" stroke="rgb(179,179,179)" stroke-linejoin="round" d="M 3244,2191 L 3394,2191"/>
 <path fill="none" stroke="rgb(179,179,179)" stroke-linejoin="round" d="M 3244,490 L 3394,490"/>
 <path fill="none" stroke="rgb(179,179,179)" stroke-linejoin="round" d="M 3244,490 L 3394,490"/>
 <path fill="none" stroke="rgb(179,179,179)" stroke-linejoin="round" d="M 3394,10690 L 3394,490"/>
 <path fill="none" stroke="rgb(255,51,51)" stroke-width="80" stroke-linejoin="round" d="M 3394,8393 L 5067,9969 6741,10304 8415,10353 10088,10397 11762,10471 13435,10500 15108,10501 16782,10555 18455,10535"/>
 <path fill="rgb(255,51,51)" stroke="none" d="M 3344,8343 L 3344,8443 3444,8443 3444,8343 3344,8343 Z"/>
 <path fill="none" stroke="rgb(255,51,51)" stroke-linejoin="round" d="M 3344,8343 L 3344,8443 3444,8443 3444,8343 3344,8343 Z"/>
 <path fill="rgb(255,51,51)" stroke="none" d="M 5017,9919 L 5017,10019 5117,10019 5117,9919 5017,9919 Z"/>
 <path fill="none" stroke="rgb(255,51,51)" stroke-linejoin="round" d="M 5017,9919 L 5017,10019 5117,10019 5117,9919 5017,9919 Z"/>
 <path fill="rgb(255,51,51)" stroke="none" d="M 6691,10254 L 6691,10354 6791,10354 6791,10254 6691,10254 Z"/>
 <path fill="none" stroke="rgb(255,51,51)" stroke-linejoin="round" d="M 6691,10254 L 6691,10354 6791,10354 6791,10254 6691,10254 Z"/>
 <path fill="rgb(255,51,51)" stroke="none" d="M 8365,10303 L 8365,10403 8465,10403 8465,10303 8365,10303 Z"/>
 <path fill="none" stroke="rgb(255,51,51)" stroke-linejoin="round" d="M 8365,10303 L 8365,10403 8465,10403 8465,10303 8365,10303 Z"/>
 <path fill="rgb(255,51,51)" stroke="none" d="M 10038,10347 L 10038,10447 10138,10447 10138,10347 10038,10347 Z"/>
 <path fill="none" stroke="rgb(255,51,51)" stroke-linejoin="round" d="M 10038,10347 L 10038,10447 10138,10447 10138,10347 10038,10347 Z"/>
 <path fill="rgb(255,51,51)" stroke="none" d="M 11712,10421 L 11712,10521 11812,10521 11812,10421 11712,10421 Z"/>
 <path fill="none" stroke="rgb(255,51,51)" stroke-linejoin="round" d="M 11712,10421 L 11712,10521 11812,10521 11812,10421 11712,10421 Z"/>
 <path fill="rgb(255,51,51)" stroke="none" d="M 13385,10450 L 13385,10550 13485,10550 13485,10450 13385,10450 Z"/>
 <path fill="none" stroke="rgb(255,51,51)" stroke-linejoin="round" d="M 13385,10450 L 13385,10550 13485,10550 13485,10450 13385,10450 Z"/>
 <path fill="rgb(255,51,51)" stroke="none" d="M 15058,10451 L 15058,10551 15158,10551 15158,10451 15058,10451 Z"/>
 <path fill="none" stroke="rgb(255,51,51)" stroke-linejoin="round" d="M 15058,10451 L 15058,10551 15158,10551 15158,10451 15058,10451 Z"/>
 <path fill="rgb(255,51,51)" stroke="none" d="M 16732,10505 L 16732,10605 16832,10605 16832,10505 16732,10505 Z"/>
 <path fill="none" stroke="rgb(255,51,51)" stroke-linejoin="round" d="M 16732,10505 L 16732,10605 16832,10605 16832,10505 16732,10505 Z"/>
 <path fill="rgb(255,51,51)" stroke="none" d="M 18405,10485 L 18405,10585 18505,10585 18505,10485 18405,10485 Z"/>
 <path fill="none" stroke="rgb(255,51,51)" stroke-linejoin="round" d="M 18405,10485 L 18405,10585 18505,10585 18505,10485 18405,10485 Z"/>
 <path fill="none" stroke="rgb(102,102,255)" stroke-width="80" stroke-linejoin="round" d="M 3394,552 L 5067,7358 6741,9326 8415,9340 10088,8837 11762,9965 13435,10241 15108,10183 16782,10295 18455,10343"/>
 <path fill="rgb(102,102,255)" stroke="none" d="M 3344,502 L 3344,602 3444,602 3444,502 3344,502 Z"/>
 <path fill="none" stroke="rgb(102,102,255)" stroke-linejoin="round" d="M 3344,502 L 3344,602 3444,602 3444,502 3344,502 Z"/>
 <path fill="rgb(102,102,255)" stroke="none" d="M 5017,7308 L 5017,7408 5117,7408 5117,7308 5017,7308 Z"/>
 <path fill="none" stroke="rgb(102,102,255)" stroke-linejoin="round" d="M 5017,7308 L 5017,7408 5117,7408 5117,7308 5017,7308 Z"/>
 <path fill="rgb(102,102,255)" stroke="none" d="M 6691,9276 L 6691,9376 6791,9376 6791,9276 6691,9276 Z"/>
 <path fill="none" stroke="rgb(102,102,255)" stroke-linejoin="round" d="M 6691,9276 L 6691,9376 6791,9376 6791,9276 6691,9276 Z"/>
 <path fill="rgb(102,102,255)" stroke="none" d="M 8365,9290 L 8365,9390 8465,9390 8465,9290 8365,9290 Z"/>
 <path fill="none" stroke="rgb(102,102,255)" stroke-linejoin="round" d="M 8365,9290 L 8365,9390 8465,9390 8465,9290 8365,9290 Z"/>
 <path fill="rgb(102,102,255)" stroke="none" d="M 10038,8787 L 10038,8887 10138,8887 10138,8787 10038,8787 Z"/>
 <path fill="none" stroke="rgb(102,102,255)" stroke-linejoin="round" d="M 10038,8787 L 10038,8887 10138,8887 10138,8787 10038,8787 Z"/>
 <path fill="rgb(102,102,255)" stroke="none" d="M 11712,9915 L 11712,10015 11812,10015 11812,9915 11712,9915 Z"/>
 <path fill="none" stroke="rgb(102,102,255)" stroke-linejoin="round" d="M 11712,9915 L 11712,10015 11812,10015 11812,9915 11712,9915 Z"/>
 <path fill="rgb(102,102,255)" stroke="none" d="M 13385,10191 L 13385,10291 13485,10291 13485,10191 13385,10191 Z"/>
 <path fill="none" stroke="rgb(102,102,255)" stroke-linejoin="round" d="M 13385,10191 L 13385,10291 13485,10291 13485,10191 13385,10191 Z"/>
 <path fill="rgb(102,102,255)" stroke="none" d="M 15058,10133 L 15058,10233 15158,10233 15158,10133 15058,10133 Z"/>
 <path fill="none" stroke="rgb(102,102,255)" stroke-linejoin="round" d="M 15058,10133 L 15058,10233 15158,10233 15158,10133 15058,10133 Z"/>
 <path fill="rgb(102,102,255)" stroke="none" d="M 16732,10245 L 16732,10345 16832,10345 16832,10245 16732,10245 Z"/>
 <path fill="none" stroke="rgb(102,102,255)" stroke-linejoin="round" d="M 16732,10245 L 16732,10345 16832,10345 16832,10245 16732,10245 Z"/>
 <path fill="rgb(102,102,255)" stroke="none" d="M 18405,10293 L 18405,10393 18505,10393 18505,10293 18405,10293 Z"/>
 <path fill="none" stroke="rgb(102,102,255)" stroke-linejoin="round" d="M 18405,10293 L 18405,10393 18505,10393 18505,10293 18405,10293 Z"/>
 <text class="TextShape"><tspan class="TextParagraph" font-family="Liberation Sans, sans-serif" font-size="353px" font-weight="400"><tspan class="TextPosition" x="3301" y="11258"><tspan fill="rgb(0,0,0)" stroke="none">1</tspan></tspan></tspan></text>
 <text class="TextShape"><tspan class="TextParagraph" font-family="Liberation Sans, sans-serif" font-size="353px" font-weight="400"><tspan class="TextPosition" x="4974" y="11258"><tspan fill="rgb(0,0,0)" stroke="none">2</tspan></tspan></tspan></text>
 <text class="TextShape"><tspan class="TextParagraph" font-family="Liberation Sans, sans-serif" font-size="353px" font-weight="400"><tspan class="TextPosition" x="6648" y="11258"><tspan fill="rgb(0,0,0)" stroke="none">3</tspan></tspan></tspan></text>
 <text class="TextShape"><tspan class="TextParagraph" font-family="Liberation Sans, sans-serif" font-size="353px" font-weight="400"><tspan class="TextPosition" x="8321" y="11258"><tspan fill="rgb(0,0,0)" stroke="none">4</tspan></tspan></tspan></text>
 <text class="TextShape"><tspan class="TextParagraph" font-family="Liberation Sans, sans-serif" font-size="353px" font-weight="400"><tspan class="TextPosition" x="9995" y="11258"><tspan fill="rgb(0,0,0)" stroke="none">5</tspan></tspan></tspan></text>
 <text class="TextShape"><tspan class="TextParagraph" font-family="Liberation Sans, sans-serif" font-size="353px" font-weight="400"><tspan class="TextPosition" x="11669" y="11258"><tspan fill="rgb(0,0,0)" stroke="none">6</tspan></tspan></tspan></text>
 <text class="TextShape"><tspan class="TextParagraph" font-family="Liberation Sans, sans-serif" font-size="353px" font-weight="400"><tspan class="TextPosition" x="13342" y="11258"><tspan fill="rgb(0,0,0)" stroke="none">7</tspan></tspan></tspan></text>
 <text class="TextShape"><tspan class="TextParagraph" font-family="Liberation Sans, sans-serif" font-size="353px" font-weight="400"><tspan class="TextPosition" x="15016" y="11258"><tspan fill="rgb(0,0,0)" stroke="none">8</tspan></tspan></tspan></text>
 <text class="TextShape"><tspan class="TextParagraph" font-family="Liberation Sans, sans-serif" font-size="353px" font-weight="400"><tspan class="TextPosition" x="16690" y="11258"><tspan fill="rgb(0,0,0)" stroke="none">9</tspan></tspan></tspan></text>
 <text class="TextShape"><tspan class="TextParagraph" font-family="Liberation Sans, sans-serif" font-size="353px" font-weight="400"><tspan class="TextPosition" x="18271" y="11258"><tspan fill="rgb(0,0,0)" stroke="none">10</tspan></tspan></tspan></text>
 <text class="TextShape"><tspan class="TextParagraph" font-family="Liberation Sans, sans-serif" font-size="353px" font-weight="400"><tspan class="TextPosition" x="2959" y="10811"><tspan fill="rgb(0,0,0)" stroke="none">0</tspan></tspan></tspan></text>
 <text class="TextShape"><tspan class="TextParagraph" font-family="Liberation Sans, sans-serif" font-size="353px" font-weight="400"><tspan class="TextPosition" x="2588" y="9111"><tspan fill="rgb(0,0,0)" stroke="none">500</tspan></tspan></tspan></text>
 <text class="TextShape"><tspan class="TextParagraph" font-family="Liberation Sans, sans-serif" font-size="353px" font-weight="400"><tspan class="TextPosition" x="2403" y="7411"><tspan fill="rgb(0,0,0)" stroke="none">1000</tspan></tspan></tspan></text>
 <text class="TextShape"><tspan class="TextParagraph" font-family="Liberation Sans, sans-serif" font-size="353px" font-weight="400"><tspan class="TextPosition" x="2403" y="5710"><tspan fill="rgb(0,0,0)" stroke="none">1500</tspan></tspan></tspan></text>
 <text class="TextShape"><tspan class="TextParagraph" font-family="Liberation Sans, sans-serif" font-size="353px" font-weight="400"><tspan class="TextPosition" x="2403" y="4010"><tspan fill="rgb(0,0,0)" stroke="none">2000</tspan></tspan></tspan></text>
 <text class="TextShape"><tspan class="TextParagraph" font-family="Liberation Sans, sans-serif" font-size="353px" font-weight="400"><tspan class="TextPosition" x="2403" y="2311"><tspan fill="rgb(0,0,0)" stroke="none">2500</tspan></tspan></tspan></text>
 <text class="TextShape"><tspan class="TextParagraph" font-family="Liberation Sans, sans-serif" font-size="353px" font-weight="400"><tspan class="TextPosition" x="2403" y="610"><tspan fill="rgb(0,0,0)" stroke="none">3000</tspan></tspan></tspan></text>
 <path fill="none" stroke="rgb(102,102,255)" stroke-width="80" stroke-linejoin="round" d="M 19775,6418 L 20575,6418"/>
 <path fill="rgb(102,102,255)" stroke="none" d="M 20048,6291 L 20048,6545 20302,6545 20302,6291 20048,6291 Z"/>
 <path fill="none" stroke="rgb(102,102,255)" stroke-linejoin="round" d="M 20048,6291 L 20048,6545 20302,6545 20302,6291 20048,6291 Z"/>
 <path fill="none" stroke="rgb(255,51,51)" stroke-width="80" stroke-linejoin="round" d="M 19775,6968 L 20575,6968"/>
 <path fill="rgb(255,51,51)" stroke="none" d="M 20048,6841 L 20048,7095 20302,7095 20302,6841 20048,6841 Z"/>
 <path fill="none" stroke="rgb(255,51,51)" stroke-linejoin="round" d="M 20048,6841 L 20048,7095 20302,7095 20302,6841 20048,6841 Z"/>
 <text class="TextShape"><tspan class="TextParagraph" font-family="Liberation Sans, sans-serif" font-size="423px" font-weight="400"><tspan class="TextPosition" x="20675" y="6563"><tspan fill="rgb(0,0,0)" stroke="none">valeur_maximum</tspan></tspan></tspan></text>
 <text class="TextShape"><tspan class="TextParagraph" font-family="Liberation Sans, sans-serif" font-size="423px" font-weight="400"><tspan class="TextPosition" x="20675" y="7113"><tspan fill="rgb(0,0,0)" stroke="none">valeur_moyenne</tspan></tspan></tspan></text>
 <text class="TextShape"><tspan class="TextParagraph" font-family="Liberation Sans, sans-serif" font-size="635px" font-weight="400"><tspan class="TextPosition" x="9688" y="12379"><tspan fill="rgb(0,0,0)" stroke="none">Agent</tspan></tspan></tspan></text>
 <text class="TextShape" transform="translate(1597,6277) rotate(-90) translate(-1597,-6277)"><tspan class="TextParagraph" font-family="Liberation Sans, sans-serif" font-size="635px" font-weight="400"><tspan class="TextPosition" x="1597" y="6277"><tspan fill="rgb(0,0,0)" stroke="none">IWI</tspan></tspan></tspan></text>
</svg>