<?xml version="1.0" encoding="UTF-8"?>
<!DOCTYPE svg PUBLIC "-//W3C//DTD SVG 1.1//EN" "http://www.w3.org/Graphics/SVG/1.1/DTD/svg11.dtd">
<svg width="281mm" height="165mm" viewBox="0 0 28100 16500" version="1.1" xmlns="http://www.w3.org/2000/svg" stroke-width="28.222" stroke-linejoin="round" xml:space="preserve">
 <path fill="rgb(255,255,255)" stroke="none" d="M 14117,16482 L 78,16482 78,0 28156,0 28156,16482 14117,16482 Z"/>
 <path fill="none" stroke="rgb(179,179,179)" stroke-linejoin="round" d="M 12958,13989 L 2993,13989 2993,528 22922,528 22922,13989 12958,13989 Z"/>
 <path fill="none" stroke="rgb(179,179,179)" stroke-linejoin="round" d="M 22922,13988 L 2993,13988"/>
 <path fill="none" stroke="rgb(179,179,179)" stroke-linejoin="round" d="M 22922,12064 L 2993,12064"/>
 <path fill="none" stroke="rgb(179,179,179)" stroke-linejoin="round" d="M 22922,10141 L 2993,10141"/>
 <path fill="none" stroke="rgb(179,179,179)" stroke-linejoin="round" d="M 22922,8219 L 2993,8219"/>
 <path fill="none" stroke="rgb(179,179,179)" stroke-linejoin="round" d="M 22922,6296 L 2993,6296"/>
 <path fill="none" stroke="rgb(179,179,179)" stroke-linejoin="round" d="M 22922,4373 L 2993,4373"/>
 <path fill="none" stroke="rgb(179,179,179)" stroke-linejoin="round" d="M 22922,2450 L 2993,2450"/>
 <path fill="none" stroke="rgb(179,179,179)" stroke-linejoin="round" d="M 22922,526 L 2993,526"/>
 <path fill="none" stroke="rgb(179,179,179)" stroke-linejoin="round" d="M 2993,14138 L 2993,13988"/>
 <path fill="none" stroke="rgb(179,179,179)" stroke-linejoin="round" d="M 2993,14138 L 2993,13988"/>
 <path fill="none" stroke="rgb(179,179,179)" stroke-linejoin="round" d="M 6314,14138 L 6314,13988"/>
 <path fill="none" stroke="rgb(179,179,179)" stroke-linejoin="round" d="M 6314,14138 L 6314,13988"/>
 <path fill="none" stroke="rgb(179,179,179)" stroke-linejoin="round" d="M 9636,14138 L 9636,13988"/>
 <path fill="none" stroke="rgb(179,179,179)" stroke-linejoin="round" d="M 9636,14138 L 9636,13988"/>
 <path fill="none" stroke="rgb(179,179,179)" stroke-linejoin="round" d="M 12958,14138 L 12958,13988"/>
 <path fill="none" stroke="rgb(179,179,179)" stroke-linejoin="round" d="M 12958,14138 L 12958,13988"/>
 <path fill="none" stroke="rgb(179,179,179)" stroke-linejoin="round" d="M 16278,14138 L 16278,13988"/>
 <path fill="none" stroke="rgb(179,179,179)" stroke-linejoin="round" d="M 16278,14138 L 16278,13988"/>
 <path fill="none" stroke="rgb(179,179,179)" stroke-linejoin="round" d="M 19600,14138 L 19600,13988"/>
 <path fill="none" stroke="rgb(179,179,179)" stroke-linejoin="round" d="M 19600,14138 L 19600,13988"/>
 <path fill="none" stroke="rgb(179,179,179)" stroke-linejoin="round" d="M 22922,14138 L 22922,13988"/>
 <path fill="none" stroke="rgb(179,179,179)" stroke-linejoin="round" d="M 22922,14138 L 22922,13988"/>
 <path fill="none" stroke="rgb(179,179,179)" stroke-linejoin="round" d="M 2993,13988 L 22922,13988"/>
 <path fill="none" stroke="rgb(179,179,179)" stroke-linejoin="round" d="M 2843,13988 L 2993,13988"/>
 <path fill="none" stroke="rgb(179,179,179)" stroke-linejoin="round" d="M 2843,13988 L 2993,13988"/>
 <path fill="none" stroke="rgb(179,179,179)" stroke-linejoin="round" d="M 2843,12064 L 2993,12064"/>
 <path fill="none" stroke="rgb(179,179,179)" stroke-linejoin="round" d="M 2843,12064 L 2993,12064"/>
 <path fill="none" stroke="rgb(179,179,179)" stroke-linejoin="round" d="M 2843,10141 L 2993,10141"/>
 <path fill="none" stroke="rgb(179,179,179)" stroke-linejoin="round" d="M 2843,10141 L 2993,10141"/>
 <path fill="none" stroke="rgb(179,179,179)" stroke-linejoin="round" d="M 2843,8219 L 2993,8219"/>
 <path fill="none" stroke="rgb(179,179,179)" stroke-linejoin="round" d="M 2843,8219 L 2993,8219"/>
 <path fill="none" stroke="rgb(179,179,179)" stroke-linejoin="round" d="M 2843,6296 L 2993,6296"/>
 <path fill="none" stroke="rgb(179,179,179)" stroke-linejoin="round" d="M 2843,6296 L 2993,6296"/>
 <path fill="none" stroke="rgb(179,179,179)" stroke-linejoin="round" d="M 2843,4373 L 2993,4373"/>
 <path fill="none" stroke="rgb(179,179,179)" stroke-linejoin="round" d="M 2843,4373 L 2993,4373"/>
 <path fill="none" stroke="rgb(179,179,179)" stroke-linejoin="round" d="M 2843,2450 L 2993,2450"/>
 <path fill="none" stroke="rgb(179,179,179)" stroke-linejoin="round" d="M 2843,2450 L 2993,2450"/>
 <path fill="none" stroke="rgb(179,179,179)" stroke-linejoin="round" d="M 2843,526 L 2993,526"/>
 <path fill="none" stroke="rgb(179,179,179)" stroke-linejoin="round" d="M 2843,526 L 2993,526"/>
 <path fill="none" stroke="rgb(179,179,179)" stroke-linejoin="round" d="M 2993,13988 L 2993,526"/>
 <path fill="none" stroke="rgb(153,255,102)" stroke-width="80" stroke-linejoin="round" d="M 4653,4117 L 6314,9029 7975,10749 9636,11555 11297,12047 12958,12393 14617,12619 16278,12793 17939,12937 19600,13040"/>
 <path fill="rgb(153,255,102)" stroke="none" d="M 4603,4067 L 4603,4167 4703,4167 4703,4067 4603,4067 Z"/>
 <path fill="none" stroke="rgb(153,255,102)" stroke-linejoin="round" d="M 4603,4067 L 4603,4167 4703,4167 4703,4067 4603,4067 Z"/>
 <path fill="rgb(153,255,102)" stroke="none" d="M 6264,8979 L 6264,9079 6364,9079 6364,8979 6264,8979 Z"/>
 <path fill="none" stroke="rgb(153,255,102)" stroke-linejoin="round" d="M 6264,8979 L 6264,9079 6364,9079 6364,8979 6264,8979 Z"/>
 <path fill="rgb(153,255,102)" stroke="none" d="M 7925,10699 L 7925,10799 8025,10799 8025,10699 7925,10699 Z"/>
 <path fill="none" stroke="rgb(153,255,102)" stroke-linejoin="round" d="M 7925,10699 L 7925,10799 8025,10799 8025,10699 7925,10699 Z"/>
 <path fill="rgb(153,255,102)" stroke="none" d="M 9586,11505 L 9586,11605 9686,11605 9686,11505 9586,11505 Z"/>
 <path fill="none" stroke="rgb(153,255,102)" stroke-linejoin="round" d="M 9586,11505 L 9586,11605 9686,11605 9686,11505 9586,11505 Z"/>
 <path fill="rgb(153,255,102)" stroke="none" d="M 11247,11997 L 11247,12097 11347,12097 11347,11997 11247,11997 Z"/>
 <path fill="none" stroke="rgb(153,255,102)" stroke-linejoin="round" d="M 11247,11997 L 11247,12097 11347,12097 11347,11997 11247,11997 Z"/>
 <path fill="rgb(153,255,102)" stroke="none" d="M 12908,12343 L 12908,12443 13008,12443 13008,12343 12908,12343 Z"/>
 <path fill="none" stroke="rgb(153,255,102)" stroke-linejoin="round" d="M 12908,12343 L 12908,12443 13008,12443 13008,12343 12908,12343 Z"/>
 <path fill="rgb(153,255,102)" stroke="none" d="M 14567,12569 L 14567,12669 14667,12669 14667,12569 14567,12569 Z"/>
 <path fill="none" stroke="rgb(153,255,102)" stroke-linejoin="round" d="M 14567,12569 L 14567,12669 14667,12669 14667,12569 14567,12569 Z"/>
 <path fill="rgb(153,255,102)" stroke="none" d="M 16228,12743 L 16228,12843 16328,12843 16328,12743 16228,12743 Z"/>
 <path fill="none" stroke="rgb(153,255,102)" stroke-linejoin="round" d="M 16228,12743 L 16228,12843 16328,12843 16328,12743 16228,12743 Z"/>
 <path fill="rgb(153,255,102)" stroke="none" d="M 17889,12887 L 17889,12987 17989,12987 17989,12887 17889,12887 Z"/>
 <path fill="none" stroke="rgb(153,255,102)" stroke-linejoin="round" d="M 17889,12887 L 17889,12987 17989,12987 17989,12887 17889,12887 Z"/>
 <path fill="rgb(153,255,102)" stroke="none" d="M 19550,12990 L 19550,13090 19650,13090 19650,12990 19550,12990 Z"/>
 <path fill="none" stroke="rgb(153,255,102)" stroke-linejoin="round" d="M 19550,12990 L 19550,13090 19650,13090 19650,12990 19550,12990 Z"/>
 <path fill="none" stroke="rgb(255,51,51)" stroke-width="80" stroke-linejoin="round" d="M 4653,1150 L 6314,6979 7975,9821 9636,10954 11297,11565 12958,11897 14617,12145 16278,12241 17939,12626 19600,12865"/>
 <path fill="rgb(255,51,51)" stroke="none" d="M 4603,1100 L 4603,1200 4703,1200 4703,1100 4603,1100 Z"/>
 <path fill="none" stroke="rgb(255,51,51)" stroke-linejoin="round" d="M 4603,1100 L 4603,1200 4703,1200 4703,1100 4603,1100 Z"/>
 <path fill="rgb(255,51,51)" stroke="none" d="M 6264,6929 L 6264,7029 6364,7029 6364,6929 6264,6929 Z"/>
 <path fill="none" stroke="rgb(255,51,51)" stroke-linejoin="round" d="M 6264,6929 L 6264,7029 6364,7029 6364,6929 6264,6929 Z"/>
 <path fill="rgb(255,51,51)" stroke="none" d="M 7925,9771 L 7925,9871 8025,9871 8025,9771 7925,9771 Z"/>
 <path fill="none" stroke="rgb(255,51,51)" stroke-linejoin="round" d="M 7925,9771 L 7925,9871 8025,9871 8025,9771 7925,9771 Z"/>
 <path fill="rgb(255,51,51)" stroke="none" d="M 9586,10904 L 9586,11004 9686,11004 9686,10904 9586,10904 Z"/>
 <path fill="none" stroke="rgb(255,51,51)" stroke-linejoin="round" d="M 9586,10904 L 9586,11004 9686,11004 9686,10904 9586,10904 Z"/>
 <path fill="rgb(255,51,51)" stroke="none" d="M 11247,11515 L 11247,11615 11347,11615 11347,11515 11247,11515 Z"/>
 <path fill="none" stroke="rgb(255,51,51)" stroke-linejoin="round" d="M 11247,11515 L 11247,11615 11347,11615 11347,11515 11247,11515 Z"/>
 <path fill="rgb(255,51,51)" stroke="none" d="M 12908,11847 L 12908,11947 13008,11947 13008,11847 12908,11847 Z"/>
 <path fill="none" stroke="rgb(255,51,51)" stroke-linejoin="round" d="M 12908,11847 L 12908,11947 13008,11947 13008,11847 12908,11847 Z"/>
 <path fill="rgb(255,51,51)" stroke="none" d="M 14567,12095 L 14567,12195 14667,12195 14667,12095 14567,12095 Z"/>
 <path fill="none" stroke="rgb(255,51,51)" stroke-linejoin="round" d="M 14567,12095 L 14567,12195 14667,12195 14667,12095 14567,12095 Z"/>
 <path fill="rgb(255,51,51)" stroke="none" d="M 16228,12191 L 16228,12291 16328,12291 16328,12191 16228,12191 Z"/>
 <path fill="none" stroke="rgb(255,51,51)" stroke-linejoin="round" d="M 16228,12191 L 16228,12291 16328,12291 16328,12191 16228,12191 Z"/>
 <path fill="rgb(255,51,51)" stroke="none" d="M 17889,12576 L 17889,12676 17989,12676 17989,12576 17889,12576 Z"/>
 <path fill="none" stroke="rgb(255,51,51)" stroke-linejoin="round" d="M 17889,12576 L 17889,12676 17989,12676 17989,12576 17889,12576 Z"/>
 <path fill="rgb(255,51,51)" stroke="none" d="M 19550,12815 L 19550,12915 19650,12915 19650,12815 19550,12815 Z"/>
 <path fill="none" stroke="rgb(255,51,51)" stroke-linejoin="round" d="M 19550,12815 L 19550,12915 19650,12915 19650,12815 19550,12815 Z"/>
 <text class="TextShape"><tspan class="TextParagraph" font-family="Liberation Sans, sans-serif" font-size="353px" font-weight="400"><tspan class="TextPosition" x="2900" y="14556"><tspan fill="rgb(0,0,0)" stroke="none">0</tspan></tspan></tspan></text>
 <text class="TextShape"><tspan class="TextParagraph" font-family="Liberation Sans, sans-serif" font-size="353px" font-weight="400"><tspan class="TextPosition" x="6221" y="14556"><tspan fill="rgb(0,0,0)" stroke="none">2</tspan></tspan></tspan></text>
 <text class="TextShape"><tspan class="TextParagraph" font-family="Liberation Sans, sans-serif" font-size="353px" font-weight="400"><tspan class="TextPosition" x="9543" y="14556"><tspan fill="rgb(0,0,0)" stroke="none">4</tspan></tspan></tspan></text>
 <text class="TextShape"><tspan class="TextParagraph" font-family="Liberation Sans, sans-serif" font-size="353px" font-weight="400"><tspan class="TextPosition" x="12865" y="14556"><tspan fill="rgb(0,0,0)" stroke="none">6</tspan></tspan></tspan></text>
 <text class="TextShape"><tspan class="TextParagraph" font-family="Liberation Sans, sans-serif" font-size="353px" font-weight="400"><tspan class="TextPosition" x="16186" y="14556"><tspan fill="rgb(0,0,0)" stroke="none">8</tspan></tspan></tspan></text>
 <text class="TextShape"><tspan class="TextParagraph" font-family="Liberation Sans, sans-serif" font-size="353px" font-weight="400"><tspan class="TextPosition" x="19416" y="14556"><tspan fill="rgb(0,0,0)" stroke="none">10</tspan></tspan></tspan></text>
 <text class="TextShape"><tspan class="TextParagraph" font-family="Liberation Sans, sans-serif" font-size="353px" font-weight="400"><tspan class="TextPosition" x="22738" y="14556"><tspan fill="rgb(0,0,0)" stroke="none">12</tspan></tspan></tspan></text>
 <text class="TextShape"><tspan class="TextParagraph" font-family="Liberation Sans, sans-serif" font-size="353px" font-weight="400"><tspan class="TextPosition" x="2558" y="14109"><tspan fill="rgb(0,0,0)" stroke="none">0</tspan></tspan></tspan></text>
 <text class="TextShape"><tspan class="TextParagraph" font-family="Liberation Sans, sans-serif" font-size="353px" font-weight="400"><tspan class="TextPosition" x="2373" y="12185"><tspan fill="rgb(0,0,0)" stroke="none">50</tspan></tspan></tspan></text>
 <text class="TextShape"><tspan class="TextParagraph" font-family="Liberation Sans, sans-serif" font-size="353px" font-weight="400"><tspan class="TextPosition" x="2187" y="10262"><tspan fill="rgb(0,0,0)" stroke="none">100</tspan></tspan></tspan></text>
 <text class="TextShape"><tspan class="TextParagraph" font-family="Liberation Sans, sans-serif" font-size="353px" font-weight="400"><tspan class="TextPosition" x="2187" y="8339"><tspan fill="rgb(0,0,0)" stroke="none">150</tspan></tspan></tspan></text>
 <text class="TextShape"><tspan class="TextParagraph" font-family="Liberation Sans, sans-serif" font-size="353px" font-weight="400"><tspan class="TextPosition" x="2187" y="6416"><tspan fill="rgb(0,0,0)" stroke="none">200</tspan></tspan></tspan></text>
 <text class="TextShape"><tspan class="TextParagraph" font-family="Liberation Sans, sans-serif" font-size="353px" font-weight="400"><tspan class="TextPosition" x="2187" y="4493"><tspan fill="rgb(0,0,0)" stroke="none">250</tspan></tspan></tspan></text>
 <text class="TextShape"><tspan class="TextParagraph" font-family="Liberation Sans, sans-serif" font-size="353px" font-weight="400"><tspan class="TextPosition" x="2187" y="2570"><tspan fill="rgb(0,0,0)" stroke="none">300</tspan></tspan></tspan></text>
 <text class="TextShape"><tspan class="TextParagraph" font-family="Liberation Sans, sans-serif" font-size="353px" font-weight="400"><tspan class="TextPosition" x="2187" y="646"><tspan fill="rgb(0,0,0)" stroke="none">350</tspan></tspan></tspan></text>
 <path fill="none" stroke="rgb(255,51,51)" stroke-width="80" stroke-linejoin="round" d="M 23809,7965 L 24609,7965"/>
 <path fill="rgb(255,51,51)" stroke="none" d="M 24082,7838 L 24082,8092 24336,8092 24336,7838 24082,7838 Z"/>
 <path fill="none" stroke="rgb(255,51,51)" stroke-linejoin="round" d="M 24082,7838 L 24082,8092 24336,8092 24336,7838 24082,7838 Z"/>
 <path fill="none" stroke="rgb(153,255,102)" stroke-width="80" stroke-linejoin="round" d="M 23809,8515 L 24609,8515"/>
 <path fill="rgb(153,255,102)" stroke="none" d="M 24082,8388 L 24082,8642 24336,8642 24336,8388 24082,8388 Z"/>
 <path fill="none" stroke="rgb(153,255,102)" stroke-linejoin="round" d="M 24082,8388 L 24082,8642 24336,8642 24336,8388 24082,8388 Z"/>
 <text class="TextShape"><tspan class="TextParagraph" font-family="Liberation Sans, sans-serif" font-size="423px" font-weight="400"><tspan class="TextPosition" x="24709" y="8110"><tspan fill="rgb(0,0,0)" stroke="none">valeur_maximum</tspan></tspan></tspan></text>
 <text class="TextShape"><tspan class="TextParagraph" font-family="Liberation Sans, sans-serif" font-size="423px" font-weight="400"><tspan class="TextPosition" x="24709" y="8660"><tspan fill="rgb(0,0,0)" stroke="none">valeur_moyenne</tspan></tspan></tspan></text>
 <text class="TextShape"><tspan class="TextParagraph" font-family="Liberation Sans, sans-serif" font-size="635px" font-weight="400"><tspan class="TextPosition" x="11576" y="15739"><tspan fill="rgb(0,0,0)" stroke="none">Tortues</tspan></tspan></tspan></text>
 <text class="TextShape" transform="translate(1302,7892) rotate(-90) translate(-1302,-7892)"><tspan class="TextParagraph" font-family="Liberation Sans, sans-serif" font-size="635px" font-weight="400"><tspan class="TextPosition" x="1302" y="7892"><tspan fill="rgb(0,0,0)" stroke="none">IGI</tspan></tspan></tspan></text>
</svg>