<?xml version="1.0" encoding="UTF-8"?>
<!DOCTYPE svg PUBLIC "-//W3C//DTD SVG 1.1//EN" "http://www.w3.org/Graphics/SVG/1.1/DTD/svg11.dtd">
<svg width="283mm" height="154mm" viewBox="0 0 28300 15400" version="1.1" xmlns="http://www.w3.org/2000/svg" stroke-width="28.222" stroke-linejoin="round" xml:space="preserve">
 <path fill="rgb(255,255,255)" stroke="none" d="M 14671,15432 L 506,15432 506,0 28836,0 28836,15432 14671,15432 Z"/>
 <path fill="none" stroke="rgb(179,179,179)" stroke-linejoin="round" d="M 13372,12960 L 3240,12960 3240,507 23504,507 23504,12960 13372,12960 Z"/>
 <path fill="none" stroke="rgb(179,179,179)" stroke-linejoin="round" d="M 23504,12959 L 3240,12959"/>
 <path fill="none" stroke="rgb(179,179,179)" stroke-linejoin="round" d="M 23504,11402 L 3240,11402"/>
 <path fill="none" stroke="rgb(179,179,179)" stroke-linejoin="round" d="M 23504,9845 L 3240,9845"/>
 <path fill="none" stroke="rgb(179,179,179)" stroke-linejoin="round" d="M 23504,8288 L 3240,8288"/>
 <path fill="none" stroke="rgb(179,179,179)" stroke-linejoin="round" d="M 23504,6733 L 3240,6733"/>
 <path fill="none" stroke="rgb(179,179,179)" stroke-linejoin="round" d="M 23504,5176 L 3240,5176"/>
 <path fill="none" stroke="rgb(179,179,179)" stroke-linejoin="round" d="M 23504,3619 L 3240,3619"/>
 <path fill="none" stroke="rgb(179,179,179)" stroke-linejoin="round" d="M 23504,2062 L 3240,2062"/>
 <path fill="none" stroke="rgb(179,179,179)" stroke-linejoin="round" d="M 23504,505 L 3240,505"/>
 <path fill="none" stroke="rgb(179,179,179)" stroke-linejoin="round" d="M 3240,13109 L 3240,12959"/>
 <path fill="none" stroke="rgb(179,179,179)" stroke-linejoin="round" d="M 3240,13109 L 3240,12959"/>
 <path fill="none" stroke="rgb(179,179,179)" stroke-linejoin="round" d="M 5266,13109 L 5266,12959"/>
 <path fill="none" stroke="rgb(179,179,179)" stroke-linejoin="round" d="M 5266,13109 L 5266,12959"/>
 <path fill="none" stroke="rgb(179,179,179)" stroke-linejoin="round" d="M 7293,13109 L 7293,12959"/>
 <path fill="none" stroke="rgb(179,179,179)" stroke-linejoin="round" d="M 7293,13109 L 7293,12959"/>
 <path fill="none" stroke="rgb(179,179,179)" stroke-linejoin="round" d="M 9319,13109 L 9319,12959"/>
 <path fill="none" stroke="rgb(179,179,179)" stroke-linejoin="round" d="M 9319,13109 L 9319,12959"/>
 <path fill="none" stroke="rgb(179,179,179)" stroke-linejoin="round" d="M 11346,13109 L 11346,12959"/>
 <path fill="none" stroke="rgb(179,179,179)" stroke-linejoin="round" d="M 11346,13109 L 11346,12959"/>
 <path fill="none" stroke="rgb(179,179,179)" stroke-linejoin="round" d="M 13372,13109 L 13372,12959"/>
 <path fill="none" stroke="rgb(179,179,179)" stroke-linejoin="round" d="M 13372,13109 L 13372,12959"/>
 <path fill="none" stroke="rgb(179,179,179)" stroke-linejoin="round" d="M 15398,13109 L 15398,12959"/>
 <path fill="none" stroke="rgb(179,179,179)" stroke-linejoin="round" d="M 15398,13109 L 15398,12959"/>
 <path fill="none" stroke="rgb(179,179,179)" stroke-linejoin="round" d="M 17424,13109 L 17424,12959"/>
 <path fill="none" stroke="rgb(179,179,179)" stroke-linejoin="round" d="M 17424,13109 L 17424,12959"/>
 <path fill="none" stroke="rgb(179,179,179)" stroke-linejoin="round" d="M 19451,13109 L 19451,12959"/>
 <path fill="none" stroke="rgb(179,179,179)" stroke-linejoin="round" d="M 19451,13109 L 19451,12959"/>
 <path fill="none" stroke="rgb(179,179,179)" stroke-linejoin="round" d="M 21477,13109 L 21477,12959"/>
 <path fill="none" stroke="rgb(179,179,179)" stroke-linejoin="round" d="M 21477,13109 L 21477,12959"/>
 <path fill="none" stroke="rgb(179,179,179)" stroke-linejoin="round" d="M 23504,13109 L 23504,12959"/>
 <path fill="none" stroke="rgb(179,179,179)" stroke-linejoin="round" d="M 23504,13109 L 23504,12959"/>
 <path fill="none" stroke="rgb(179,179,179)" stroke-linejoin="round" d="M 3240,12959 L 23504,12959"/>
 <path fill="none" stroke="rgb(179,179,179)" stroke-linejoin="round" d="M 3090,12959 L 3240,12959"/>
 <path fill="none" stroke="rgb(179,179,179)" stroke-linejoin="round" d="M 3090,12959 L 3240,12959"/>
 <path fill="none" stroke="rgb(179,179,179)" stroke-linejoin="round" d="M 3090,11402 L 3240,11402"/>
 <path fill="none" stroke="rgb(179,179,179)" stroke-linejoin="round" d="M 3090,11402 L 3240,11402"/>
 <path fill="none" stroke="rgb(179,179,179)" stroke-linejoin="round" d="M 3090,9845 L 3240,9845"/>
 <path fill="none" stroke="rgb(179,179,179)" stroke-linejoin="round" d="M 3090,9845 L 3240,9845"/>
 <path fill="none" stroke="rgb(179,179,179)" stroke-linejoin="round" d="M 3090,8288 L 3240,8288"/>
 <path fill="none" stroke="rgb(179,179,179)" stroke-linejoin="round" d="M 3090,8288 L 3240,8288"/>
 <path fill="none" stroke="rgb(179,179,179)" stroke-linejoin="round" d="M 3090,6732 L 3240,6732"/>
 <path fill="none" stroke="rgb(179,179,179)" stroke-linejoin="round" d="M 3090,6732 L 3240,6732"/>
 <path fill="none" stroke="rgb(179,179,179)" stroke-linejoin="round" d="M 3090,5176 L 3240,5176"/>
 <path fill="none" stroke="rgb(179,179,179)" stroke-linejoin="round" d="M 3090,5176 L 3240,5176"/>
 <path fill="none" stroke="rgb(179,179,179)" stroke-linejoin="round" d="M 3090,3619 L 3240,3619"/>
 <path fill="none" stroke="rgb(179,179,179)" stroke-linejoin="round" d="M 3090,3619 L 3240,3619"/>
 <path fill="none" stroke="rgb(179,179,179)" stroke-linejoin="round" d="M 3090,2062 L 3240,2062"/>
 <path fill="none" stroke="rgb(179,179,179)" stroke-linejoin="round" d="M 3090,2062 L 3240,2062"/>
 <path fill="none" stroke="rgb(179,179,179)" stroke-linejoin="round" d="M 3090,505 L 3240,505"/>
 <path fill="none" stroke="rgb(179,179,179)" stroke-linejoin="round" d="M 3090,505 L 3240,505"/>
 <path fill="none" stroke="rgb(179,179,179)" stroke-linejoin="round" d="M 3240,12959 L 3240,505"/>
 <path fill="none" stroke="rgb(153,255,102)" stroke-width="80" stroke-linejoin="round" d="M 3240,11948 L 3442,12059 3645,11977 3847,12045 4050,11955 4253,11733 4455,11961 4658,11926 4861,12027 5063,11967 5266,12163 5469,12078 5671,12107 5874,11951 6077,12051 6279,12010 6482,12037 6685,11922 6887,12066 7090,11985 7293,12066 7495,11809 7698,11876 7900,12078 8103,11893 8306,11828 8508,11937 8711,12058 8914,12023 9116,11912 9319,12044 9522,12116 9724,11928 9927,12007 10130,11969 10332,12017 10535,11912 10738,11845 10940,11767 11143,11846 11346,11983 11548,11882 11751,11964 11953,12105 12156,11980 12359,12074 12561,11933 12764,12165 12967,12104 13169,12268 13372,11892 13575,12083 13777,11886 13980,11819 14183,11818 14385,12024 14588,12104 14790,11934 14992,11945 15195,11944 15398,12103 15600,11857 15803,12093 16005,12306 16208,12034 16411,11724 16613,12090 16816,12003 17019,12137 17221,12070 17424,11995 17627,12254 17829,11981 18032,12122 18235,11943 18437,12033 18640,11874 18843,12132 19045,11993 19248,11926 19451,11912 19653,12159 19856,12068 20058,11839 20261,11960 20464,11914 20666,11913 20869,11888 21072,12021 21274,11884 21477,11963 21680,12015 21882,12007 22085,11955 22288,11949 22490,12168 22693,11943 22896,12224 23098,12172 23301,12020 23504,12233"/>
 <path fill="rgb(153,255,102)" stroke="none" d="M 3190,11898 L 3190,11998 3290,11998 3290,11898 3190,11898 Z"/>
 <path fill="none" stroke="rgb(153,255,102)" stroke-linejoin="round" d="M 3190,11898 L 3190,11998 3290,11998 3290,11898 3190,11898 Z"/>
 <path fill="rgb(153,255,102)" stroke="none" d="M 3392,12009 L 3392,12109 3492,12109 3492,12009 3392,12009 Z"/>
 <path fill="none" stroke="rgb(153,255,102)" stroke-linejoin="round" d="M 3392,12009 L 3392,12109 3492,12109 3492,12009 3392,12009 Z"/>
 <path fill="rgb(153,255,102)" stroke="none" d="M 3595,11927 L 3595,12027 3695,12027 3695,11927 3595,11927 Z"/>
 <path fill="none" stroke="rgb(153,255,102)" stroke-linejoin="round" d="M 3595,11927 L 3595,12027 3695,12027 3695,11927 3595,11927 Z"/>
 <path fill="rgb(153,255,102)" stroke="none" d="M 3797,11995 L 3797,12095 3897,12095 3897,11995 3797,11995 Z"/>
 <path fill="none" stroke="rgb(153,255,102)" stroke-linejoin="round" d="M 3797,11995 L 3797,12095 3897,12095 3897,11995 3797,11995 Z"/>
 <path fill="rgb(153,255,102)" stroke="none" d="M 4000,11905 L 4000,12005 4100,12005 4100,11905 4000,11905 Z"/>
 <path fill="none" stroke="rgb(153,255,102)" stroke-linejoin="round" d="M 4000,11905 L 4000,12005 4100,12005 4100,11905 4000,11905 Z"/>
 <path fill="rgb(153,255,102)" stroke="none" d="M 4203,11683 L 4203,11783 4303,11783 4303,11683 4203,11683 Z"/>
 <path fill="none" stroke="rgb(153,255,102)" stroke-linejoin="round" d="M 4203,11683 L 4203,11783 4303,11783 4303,11683 4203,11683 Z"/>
 <path fill="rgb(153,255,102)" stroke="none" d="M 4405,11911 L 4405,12011 4505,12011 4505,11911 4405,11911 Z"/>
 <path fill="none" stroke="rgb(153,255,102)" stroke-linejoin="round" d="M 4405,11911 L 4405,12011 4505,12011 4505,11911 4405,11911 Z"/>
 <path fill="rgb(153,255,102)" stroke="none" d="M 4608,11876 L 4608,11976 4708,11976 4708,11876 4608,11876 Z"/>
 <path fill="none" stroke="rgb(153,255,102)" stroke-linejoin="round" d="M 4608,11876 L 4608,11976 4708,11976 4708,11876 4608,11876 Z"/>
 <path fill="rgb(153,255,102)" stroke="none" d="M 4811,11977 L 4811,12077 4911,12077 4911,11977 4811,11977 Z"/>
 <path fill="none" stroke="rgb(153,255,102)" stroke-linejoin="round" d="M 4811,11977 L 4811,12077 4911,12077 4911,11977 4811,11977 Z"/>
 <path fill="rgb(153,255,102)" stroke="none" d="M 5013,11917 L 5013,12017 5113,12017 5113,11917 5013,11917 Z"/>
 <path fill="none" stroke="rgb(153,255,102)" stroke-linejoin="round" d="M 5013,11917 L 5013,12017 5113,12017 5113,11917 5013,11917 Z"/>
 <path fill="rgb(153,255,102)" stroke="none" d="M 5216,12113 L 5216,12213 5316,12213 5316,12113 5216,12113 Z"/>
 <path fill="none" stroke="rgb(153,255,102)" stroke-linejoin="round" d="M 5216,12113 L 5216,12213 5316,12213 5316,12113 5216,12113 Z"/>
 <path fill="rgb(153,255,102)" stroke="none" d="M 5419,12028 L 5419,12128 5519,12128 5519,12028 5419,12028 Z"/>
 <path fill="none" stroke="rgb(153,255,102)" stroke-linejoin="round" d="M 5419,12028 L 5419,12128 5519,12128 5519,12028 5419,12028 Z"/>
 <path fill="rgb(153,255,102)" stroke="none" d="M 5621,12057 L 5621,12157 5721,12157 5721,12057 5621,12057 Z"/>
 <path fill="none" stroke="rgb(153,255,102)" stroke-linejoin="round" d="M 5621,12057 L 5621,12157 5721,12157 5721,12057 5621,12057 Z"/>
 <path fill="rgb(153,255,102)" stroke="none" d="M 5824,11901 L 5824,12001 5924,12001 5924,11901 5824,11901 Z"/>
 <path fill="none" stroke="rgb(153,255,102)" stroke-linejoin="round" d="M 5824,11901 L 5824,12001 5924,12001 5924,11901 5824,11901 Z"/>
 <path fill="rgb(153,255,102)" stroke="none" d="M 6027,12001 L 6027,12101 6127,12101 6127,12001 6027,12001 Z"/>
 <path fill="none" stroke="rgb(153,255,102)" stroke-linejoin="round" d="M 6027,12001 L 6027,12101 6127,12101 6127,12001 6027,12001 Z"/>
 <path fill="rgb(153,255,102)" stroke="none" d="M 6229,11960 L 6229,12060 6329,12060 6329,11960 6229,11960 Z"/>
 <path fill="none" stroke="rgb(153,255,102)" stroke-linejoin="round" d="M 6229,11960 L 6229,12060 6329,12060 6329,11960 6229,11960 Z"/>
 <path fill="rgb(153,255,102)" stroke="none" d="M 6432,11987 L 6432,12087 6532,12087 6532,11987 6432,11987 Z"/>
 <path fill="none" stroke="rgb(153,255,102)" stroke-linejoin="round" d="M 6432,11987 L 6432,12087 6532,12087 6532,11987 6432,11987 Z"/>
 <path fill="rgb(153,255,102)" stroke="none" d="M 6635,11872 L 6635,11972 6735,11972 6735,11872 6635,11872 Z"/>
 <path fill="none" stroke="rgb(153,255,102)" stroke-linejoin="round" d="M 6635,11872 L 6635,11972 6735,11972 6735,11872 6635,11872 Z"/>
 <path fill="rgb(153,255,102)" stroke="none" d="M 6837,12016 L 6837,12116 6937,12116 6937,12016 6837,12016 Z"/>
 <path fill="none" stroke="rgb(153,255,102)" stroke-linejoin="round" d="M 6837,12016 L 6837,12116 6937,12116 6937,12016 6837,12016 Z"/>
 <path fill="rgb(153,255,102)" stroke="none" d="M 7040,11935 L 7040,12035 7140,12035 7140,11935 7040,11935 Z"/>
 <path fill="none" stroke="rgb(153,255,102)" stroke-linejoin="round" d="M 7040,11935 L 7040,12035 7140,12035 7140,11935 7040,11935 Z"/>
 <path fill="rgb(153,255,102)" stroke="none" d="M 7243,12016 L 7243,12116 7343,12116 7343,12016 7243,12016 Z"/>
 <path fill="none" stroke="rgb(153,255,102)" stroke-linejoin="round" d="M 7243,12016 L 7243,12116 7343,12116 7343,12016 7243,12016 Z"/>
 <path fill="rgb(153,255,102)" stroke="none" d="M 7445,11759 L 7445,11859 7545,11859 7545,11759 7445,11759 Z"/>
 <path fill="none" stroke="rgb(153,255,102)" stroke-linejoin="round" d="M 7445,11759 L 7445,11859 7545,11859 7545,11759 7445,11759 Z"/>
 <path fill="rgb(153,255,102)" stroke="none" d="M 7648,11826 L 7648,11926 7748,11926 7748,11826 7648,11826 Z"/>
 <path fill="none" stroke="rgb(153,255,102)" stroke-linejoin="round" d="M 7648,11826 L 7648,11926 7748,11926 7748,11826 7648,11826 Z"/>
 <path fill="rgb(153,255,102)" stroke="none" d="M 7850,12028 L 7850,12128 7950,12128 7950,12028 7850,12028 Z"/>
 <path fill="none" stroke="rgb(153,255,102)" stroke-linejoin="round" d="M 7850,12028 L 7850,12128 7950,12128 7950,12028 7850,12028 Z"/>
 <path fill="rgb(153,255,102)" stroke="none" d="M 8053,11843 L 8053,11943 8153,11943 8153,11843 8053,11843 Z"/>
 <path fill="none" stroke="rgb(153,255,102)" stroke-linejoin="round" d="M 8053,11843 L 8053,11943 8153,11943 8153,11843 8053,11843 Z"/>
 <path fill="rgb(153,255,102)" stroke="none" d="M 8256,11778 L 8256,11878 8356,11878 8356,11778 8256,11778 Z"/>
 <path fill="none" stroke="rgb(153,255,102)" stroke-linejoin="round" d="M 8256,11778 L 8256,11878 8356,11878 8356,11778 8256,11778 Z"/>
 <path fill="rgb(153,255,102)" stroke="none" d="M 8458,11887 L 8458,11987 8558,11987 8558,11887 8458,11887 Z"/>
 <path fill="none" stroke="rgb(153,255,102)" stroke-linejoin="round" d="M 8458,11887 L 8458,11987 8558,11987 8558,11887 8458,11887 Z"/>
 <path fill="rgb(153,255,102)" stroke="none" d="M 8661,12008 L 8661,12108 8761,12108 8761,12008 8661,12008 Z"/>
 <path fill="none" stroke="rgb(153,255,102)" stroke-linejoin="round" d="M 8661,12008 L 8661,12108 8761,12108 8761,12008 8661,12008 Z"/>
 <path fill="rgb(153,255,102)" stroke="none" d="M 8864,11973 L 8864,12073 8964,12073 8964,11973 8864,11973 Z"/>
 <path fill="none" stroke="rgb(153,255,102)" stroke-linejoin="round" d="M 8864,11973 L 8864,12073 8964,12073 8964,11973 8864,11973 Z"/>
 <path fill="rgb(153,255,102)" stroke="none" d="M 9066,11862 L 9066,11962 9166,11962 9166,11862 9066,11862 Z"/>
 <path fill="none" stroke="rgb(153,255,102)" stroke-linejoin="round" d="M 9066,11862 L 9066,11962 9166,11962 9166,11862 9066,11862 Z"/>
 <path fill="rgb(153,255,102)" stroke="none" d="M 9269,11994 L 9269,12094 9369,12094 9369,11994 9269,11994 Z"/>
 <path fill="none" stroke="rgb(153,255,102)" stroke-linejoin="round" d="M 9269,11994 L 9269,12094 9369,12094 9369,11994 9269,11994 Z"/>
 <path fill="rgb(153,255,102)" stroke="none" d="M 9472,12066 L 9472,12166 9572,12166 9572,12066 9472,12066 Z"/>
 <path fill="none" stroke="rgb(153,255,102)" stroke-linejoin="round" d="M 9472,12066 L 9472,12166 9572,12166 9572,12066 9472,12066 Z"/>
 <path fill="rgb(153,255,102)" stroke="none" d="M 9674,11878 L 9674,11978 9774,11978 9774,11878 9674,11878 Z"/>
 <path fill="none" stroke="rgb(153,255,102)" stroke-linejoin="round" d="M 9674,11878 L 9674,11978 9774,11978 9774,11878 9674,11878 Z"/>
 <path fill="rgb(153,255,102)" stroke="none" d="M 9877,11957 L 9877,12057 9977,12057 9977,11957 9877,11957 Z"/>
 <path fill="none" stroke="rgb(153,255,102)" stroke-linejoin="round" d="M 9877,11957 L 9877,12057 9977,12057 9977,11957 9877,11957 Z"/>
 <path fill="rgb(153,255,102)" stroke="none" d="M 10080,11919 L 10080,12019 10180,12019 10180,11919 10080,11919 Z"/>
 <path fill="none" stroke="rgb(153,255,102)" stroke-linejoin="round" d="M 10080,11919 L 10080,12019 10180,12019 10180,11919 10080,11919 Z"/>
 <path fill="rgb(153,255,102)" stroke="none" d="M 10282,11967 L 10282,12067 10382,12067 10382,11967 10282,11967 Z"/>
 <path fill="none" stroke="rgb(153,255,102)" stroke-linejoin="round" d="M 10282,11967 L 10282,12067 10382,12067 10382,11967 10282,11967 Z"/>
 <path fill="rgb(153,255,102)" stroke="none" d="M 10485,11862 L 10485,11962 10585,11962 10585,11862 10485,11862 Z"/>
 <path fill="none" stroke="rgb(153,255,102)" stroke-linejoin="round" d="M 10485,11862 L 10485,11962 10585,11962 10585,11862 10485,11862 Z"/>
 <path fill="rgb(153,255,102)" stroke="none" d="M 10688,11795 L 10688,11895 10788,11895 10788,11795 10688,11795 Z"/>
 <path fill="none" stroke="rgb(153,255,102)" stroke-linejoin="round" d="M 10688,11795 L 10688,11895 10788,11895 10788,11795 10688,11795 Z"/>
 <path fill="rgb(153,255,102)" stroke="none" d="M 10890,11717 L 10890,11817 10990,11817 10990,11717 10890,11717 Z"/>
 <path fill="none" stroke="rgb(153,255,102)" stroke-linejoin="round" d="M 10890,11717 L 10890,11817 10990,11817 10990,11717 10890,11717 Z"/>
 <path fill="rgb(153,255,102)" stroke="none" d="M 11093,11796 L 11093,11896 11193,11896 11193,11796 11093,11796 Z"/>
 <path fill="none" stroke="rgb(153,255,102)" stroke-linejoin="round" d="M 11093,11796 L 11093,11896 11193,11896 11193,11796 11093,11796 Z"/>
 <path fill="rgb(153,255,102)" stroke="none" d="M 11296,11933 L 11296,12033 11396,12033 11396,11933 11296,11933 Z"/>
 <path fill="none" stroke="rgb(153,255,102)" stroke-linejoin="round" d="M 11296,11933 L 11296,12033 11396,12033 11396,11933 11296,11933 Z"/>
 <path fill="rgb(153,255,102)" stroke="none" d="M 11498,11832 L 11498,11932 11598,11932 11598,11832 11498,11832 Z"/>
 <path fill="none" stroke="rgb(153,255,102)" stroke-linejoin="round" d="M 11498,11832 L 11498,11932 11598,11932 11598,11832 11498,11832 Z"/>
 <path fill="rgb(153,255,102)" stroke="none" d="M 11701,11914 L 11701,12014 11801,12014 11801,11914 11701,11914 Z"/>
 <path fill="none" stroke="rgb(153,255,102)" stroke-linejoin="round" d="M 11701,11914 L 11701,12014 11801,12014 11801,11914 11701,11914 Z"/>
 <path fill="rgb(153,255,102)" stroke="none" d="M 11903,12055 L 11903,12155 12003,12155 12003,12055 11903,12055 Z"/>
 <path fill="none" stroke="rgb(153,255,102)" stroke-linejoin="round" d="M 11903,12055 L 11903,12155 12003,12155 12003,12055 11903,12055 Z"/>
 <path fill="rgb(153,255,102)" stroke="none" d="M 12106,11930 L 12106,12030 12206,12030 12206,11930 12106,11930 Z"/>
 <path fill="none" stroke="rgb(153,255,102)" stroke-linejoin="round" d="M 12106,11930 L 12106,12030 12206,12030 12206,11930 12106,11930 Z"/>
 <path fill="rgb(153,255,102)" stroke="none" d="M 12309,12024 L 12309,12124 12409,12124 12409,12024 12309,12024 Z"/>
 <path fill="none" stroke="rgb(153,255,102)" stroke-linejoin="round" d="M 12309,12024 L 12309,12124 12409,12124 12409,12024 12309,12024 Z"/>
 <path fill="rgb(153,255,102)" stroke="none" d="M 12511,11883 L 12511,11983 12611,11983 12611,11883 12511,11883 Z"/>
 <path fill="none" stroke="rgb(153,255,102)" stroke-linejoin="round" d="M 12511,11883 L 12511,11983 12611,11983 12611,11883 12511,11883 Z"/>
 <path fill="rgb(153,255,102)" stroke="none" d="M 12714,12115 L 12714,12215 12814,12215 12814,12115 12714,12115 Z"/>
 <path fill="none" stroke="rgb(153,255,102)" stroke-linejoin="round" d="M 12714,12115 L 12714,12215 12814,12215 12814,12115 12714,12115 Z"/>
 <path fill="rgb(153,255,102)" stroke="none" d="M 12917,12054 L 12917,12154 13017,12154 13017,12054 12917,12054 Z"/>
 <path fill="none" stroke="rgb(153,255,102)" stroke-linejoin="round" d="M 12917,12054 L 12917,12154 13017,12154 13017,12054 12917,12054 Z"/>
 <path fill="rgb(153,255,102)" stroke="none" d="M 13119,12218 L 13119,12318 13219,12318 13219,12218 13119,12218 Z"/>
 <path fill="none" stroke="rgb(153,255,102)" stroke-linejoin="round" d="M 13119,12218 L 13119,12318 13219,12318 13219,12218 13119,12218 Z"/>
 <path fill="rgb(153,255,102)" stroke="none" d="M 13322,11842 L 13322,11942 13422,11942 13422,11842 13322,11842 Z"/>
 <path fill="none" stroke="rgb(153,255,102)" stroke-linejoin="round" d="M 13322,11842 L 13322,11942 13422,11942 13422,11842 13322,11842 Z"/>
 <path fill="rgb(153,255,102)" stroke="none" d="M 13525,12033 L 13525,12133 13625,12133 13625,12033 13525,12033 Z"/>
 <path fill="none" stroke="rgb(153,255,102)" stroke-linejoin="round" d="M 13525,12033 L 13525,12133 13625,12133 13625,12033 13525,12033 Z"/>
 <path fill="rgb(153,255,102)" stroke="none" d="M 13727,11836 L 13727,11936 13827,11936 13827,11836 13727,11836 Z"/>
 <path fill="none" stroke="rgb(153,255,102)" stroke-linejoin="round" d="M 13727,11836 L 13727,11936 13827,11936 13827,11836 13727,11836 Z"/>
 <path fill="rgb(153,255,102)" stroke="none" d="M 13930,11769 L 13930,11869 14030,11869 14030,11769 13930,11769 Z"/>
 <path fill="none" stroke="rgb(153,255,102)" stroke-linejoin="round" d="M 13930,11769 L 13930,11869 14030,11869 14030,11769 13930,11769 Z"/>
 <path fill="rgb(153,255,102)" stroke="none" d="M 14133,11768 L 14133,11868 14233,11868 14233,11768 14133,11768 Z"/>
 <path fill="none" stroke="rgb(153,255,102)" stroke-linejoin="round" d="M 14133,11768 L 14133,11868 14233,11868 14233,11768 14133,11768 Z"/>
 <path fill="rgb(153,255,102)" stroke="none" d="M 14335,11974 L 14335,12074 14435,12074 14435,11974 14335,11974 Z"/>
 <path fill="none" stroke="rgb(153,255,102)" stroke-linejoin="round" d="M 14335,11974 L 14335,12074 14435,12074 14435,11974 14335,11974 Z"/>
 <path fill="rgb(153,255,102)" stroke="none" d="M 14538,12054 L 14538,12154 14638,12154 14638,12054 14538,12054 Z"/>
 <path fill="none" stroke="rgb(153,255,102)" stroke-linejoin="round" d="M 14538,12054 L 14538,12154 14638,12154 14638,12054 14538,12054 Z"/>
 <path fill="rgb(153,255,102)" stroke="none" d="M 14740,11884 L 14740,11984 14840,11984 14840,11884 14740,11884 Z"/>
 <path fill="none" stroke="rgb(153,255,102)" stroke-linejoin="round" d="M 14740,11884 L 14740,11984 14840,11984 14840,11884 14740,11884 Z"/>
 <path fill="rgb(153,255,102)" stroke="none" d="M 14942,11895 L 14942,11995 15042,11995 15042,11895 14942,11895 Z"/>
 <path fill="none" stroke="rgb(153,255,102)" stroke-linejoin="round" d="M 14942,11895 L 14942,11995 15042,11995 15042,11895 14942,11895 Z"/>
 <path fill="rgb(153,255,102)" stroke="none" d="M 15145,11894 L 15145,11994 15245,11994 15245,11894 15145,11894 Z"/>
 <path fill="none" stroke="rgb(153,255,102)" stroke-linejoin="round" d="M 15145,11894 L 15145,11994 15245,11994 15245,11894 15145,11894 Z"/>
 <path fill="rgb(153,255,102)" stroke="none" d="M 15348,12053 L 15348,12153 15448,12153 15448,12053 15348,12053 Z"/>
 <path fill="none" stroke="rgb(153,255,102)" stroke-linejoin="round" d="M 15348,12053 L 15348,12153 15448,12153 15448,12053 15348,12053 Z"/>
 <path fill="rgb(153,255,102)" stroke="none" d="M 15550,11807 L 15550,11907 15650,11907 15650,11807 15550,11807 Z"/>
 <path fill="none" stroke="rgb(153,255,102)" stroke-linejoin="round" d="M 15550,11807 L 15550,11907 15650,11907 15650,11807 15550,11807 Z"/>
 <path fill="rgb(153,255,102)" stroke="none" d="M 15753,12043 L 15753,12143 15853,12143 15853,12043 15753,12043 Z"/>
 <path fill="none" stroke="rgb(153,255,102)" stroke-linejoin="round" d="M 15753,12043 L 15753,12143 15853,12143 15853,12043 15753,12043 Z"/>
 <path fill="rgb(153,255,102)" stroke="none" d="M 15955,12256 L 15955,12356 16055,12356 16055,12256 15955,12256 Z"/>
 <path fill="none" stroke="rgb(153,255,102)" stroke-linejoin="round" d="M 15955,12256 L 15955,12356 16055,12356 16055,12256 15955,12256 Z"/>
 <path fill="rgb(153,255,102)" stroke="none" d="M 16158,11984 L 16158,12084 16258,12084 16258,11984 16158,11984 Z"/>
 <path fill="none" stroke="rgb(153,255,102)" stroke-linejoin="round" d="M 16158,11984 L 16158,12084 16258,12084 16258,11984 16158,11984 Z"/>
 <path fill="rgb(153,255,102)" stroke="none" d="M 16361,11674 L 16361,11774 16461,11774 16461,11674 16361,11674 Z"/>
 <path fill="none" stroke="rgb(153,255,102)" stroke-linejoin="round" d="M 16361,11674 L 16361,11774 16461,11774 16461,11674 16361,11674 Z"/>
 <path fill="rgb(153,255,102)" stroke="none" d="M 16563,12040 L 16563,12140 16663,12140 16663,12040 16563,12040 Z"/>
 <path fill="none" stroke="rgb(153,255,102)" stroke-linejoin="round" d="M 16563,12040 L 16563,12140 16663,12140 16663,12040 16563,12040 Z"/>
 <path fill="rgb(153,255,102)" stroke="none" d="M 16766,11953 L 16766,12053 16866,12053 16866,11953 16766,11953 Z"/>
 <path fill="none" stroke="rgb(153,255,102)" stroke-linejoin="round" d="M 16766,11953 L 16766,12053 16866,12053 16866,11953 16766,11953 Z"/>
 <path fill="rgb(153,255,102)" stroke="none" d="M 16969,12087 L 16969,12187 17069,12187 17069,12087 16969,12087 Z"/>
 <path fill="none" stroke="rgb(153,255,102)" stroke-linejoin="round" d="M 16969,12087 L 16969,12187 17069,12187 17069,12087 16969,12087 Z"/>
 <path fill="rgb(153,255,102)" stroke="none" d="M 17171,12020 L 17171,12120 17271,12120 17271,12020 17171,12020 Z"/>
 <path fill="none" stroke="rgb(153,255,102)" stroke-linejoin="round" d="M 17171,12020 L 17171,12120 17271,12120 17271,12020 17171,12020 Z"/>
 <path fill="rgb(153,255,102)" stroke="none" d="M 17374,11945 L 17374,12045 17474,12045 17474,11945 17374,11945 Z"/>
 <path fill="none" stroke="rgb(153,255,102)" stroke-linejoin="round" d="M 17374,11945 L 17374,12045 17474,12045 17474,11945 17374,11945 Z"/>
 <path fill="rgb(153,255,102)" stroke="none" d="M 17577,12204 L 17577,12304 17677,12304 17677,12204 17577,12204 Z"/>
 <path fill="none" stroke="rgb(153,255,102)" stroke-linejoin="round" d="M 17577,12204 L 17577,12304 17677,12304 17677,12204 17577,12204 Z"/>
 <path fill="rgb(153,255,102)" stroke="none" d="M 17779,11931 L 17779,12031 17879,12031 17879,11931 17779,11931 Z"/>
 <path fill="none" stroke="rgb(153,255,102)" stroke-linejoin="round" d="M 17779,11931 L 17779,12031 17879,12031 17879,11931 17779,11931 Z"/>
 <path fill="rgb(153,255,102)" stroke="none" d="M 17982,12072 L 17982,12172 18082,12172 18082,12072 17982,12072 Z"/>
 <path fill="none" stroke="rgb(153,255,102)" stroke-linejoin="round" d="M 17982,12072 L 17982,12172 18082,12172 18082,12072 17982,12072 Z"/>
 <path fill="rgb(153,255,102)" stroke="none" d="M 18185,11893 L 18185,11993 18285,11993 18285,11893 18185,11893 Z"/>
 <path fill="none" stroke="rgb(153,255,102)" stroke-linejoin="round" d="M 18185,11893 L 18185,11993 18285,11993 18285,11893 18185,11893 Z"/>
 <path fill="rgb(153,255,102)" stroke="none" d="M 18387,11983 L 18387,12083 18487,12083 18487,11983 18387,11983 Z"/>
 <path fill="none" stroke="rgb(153,255,102)" stroke-linejoin="round" d="M 18387,11983 L 18387,12083 18487,12083 18487,11983 18387,11983 Z"/>
 <path fill="rgb(153,255,102)" stroke="none" d="M 18590,11824 L 18590,11924 18690,11924 18690,11824 18590,11824 Z"/>
 <path fill="none" stroke="rgb(153,255,102)" stroke-linejoin="round" d="M 18590,11824 L 18590,11924 18690,11924 18690,11824 18590,11824 Z"/>
 <path fill="rgb(153,255,102)" stroke="none" d="M 18793,12082 L 18793,12182 18893,12182 18893,12082 18793,12082 Z"/>
 <path fill="none" stroke="rgb(153,255,102)" stroke-linejoin="round" d="M 18793,12082 L 18793,12182 18893,12182 18893,12082 18793,12082 Z"/>
 <path fill="rgb(153,255,102)" stroke="none" d="M 18995,11943 L 18995,12043 19095,12043 19095,11943 18995,11943 Z"/>
 <path fill="none" stroke="rgb(153,255,102)" stroke-linejoin="round" d="M 18995,11943 L 18995,12043 19095,12043 19095,11943 18995,11943 Z"/>
 <path fill="rgb(153,255,102)" stroke="none" d="M 19198,11876 L 19198,11976 19298,11976 19298,11876 19198,11876 Z"/>
 <path fill="none" stroke="rgb(153,255,102)" stroke-linejoin="round" d="M 19198,11876 L 19198,11976 19298,11976 19298,11876 19198,11876 Z"/>
 <path fill="rgb(153,255,102)" stroke="none" d="M 19401,11862 L 19401,11962 19501,11962 19501,11862 19401,11862 Z"/>
 <path fill="none" stroke="rgb(153,255,102)" stroke-linejoin="round" d="M 19401,11862 L 19401,11962 19501,11962 19501,11862 19401,11862 Z"/>
 <path fill="rgb(153,255,102)" stroke="none" d="M 19603,12109 L 19603,12209 19703,12209 19703,12109 19603,12109 Z"/>
 <path fill="none" stroke="rgb(153,255,102)" stroke-linejoin="round" d="M 19603,12109 L 19603,12209 19703,12209 19703,12109 19603,12109 Z"/>
 <path fill="rgb(153,255,102)" stroke="none" d="M 19806,12018 L 19806,12118 19906,12118 19906,12018 19806,12018 Z"/>
 <path fill="none" stroke="rgb(153,255,102)" stroke-linejoin="round" d="M 19806,12018 L 19806,12118 19906,12118 19906,12018 19806,12018 Z"/>
 <path fill="rgb(153,255,102)" stroke="none" d="M 20008,11789 L 20008,11889 20108,11889 20108,11789 20008,11789 Z"/>
 <path fill="none" stroke="rgb(153,255,102)" stroke-linejoin="round" d="M 20008,11789 L 20008,11889 20108,11889 20108,11789 20008,11789 Z"/>
 <path fill="rgb(153,255,102)" stroke="none" d="M 20211,11910 L 20211,12010 20311,12010 20311,11910 20211,11910 Z"/>
 <path fill="none" stroke="rgb(153,255,102)" stroke-linejoin="round" d="M 20211,11910 L 20211,12010 20311,12010 20311,11910 20211,11910 Z"/>
 <path fill="rgb(153,255,102)" stroke="none" d="M 20414,11864 L 20414,11964 20514,11964 20514,11864 20414,11864 Z"/>
 <path fill="none" stroke="rgb(153,255,102)" stroke-linejoin="round" d="M 20414,11864 L 20414,11964 20514,11964 20514,11864 20414,11864 Z"/>
 <path fill="rgb(153,255,102)" stroke="none" d="M 20616,11863 L 20616,11963 20716,11963 20716,11863 20616,11863 Z"/>
 <path fill="none" stroke="rgb(153,255,102)" stroke-linejoin="round" d="M 20616,11863 L 20616,11963 20716,11963 20716,11863 20616,11863 Z"/>
 <path fill="rgb(153,255,102)" stroke="none" d="M 20819,11838 L 20819,11938 20919,11938 20919,11838 20819,11838 Z"/>
 <path fill="none" stroke="rgb(153,255,102)" stroke-linejoin="round" d="M 20819,11838 L 20819,11938 20919,11938 20919,11838 20819,11838 Z"/>
 <path fill="rgb(153,255,102)" stroke="none" d="M 21022,11971 L 21022,12071 21122,12071 21122,11971 21022,11971 Z"/>
 <path fill="none" stroke="rgb(153,255,102)" stroke-linejoin="round" d="M 21022,11971 L 21022,12071 21122,12071 21122,11971 21022,11971 Z"/>
 <path fill="rgb(153,255,102)" stroke="none" d="M 21224,11834 L 21224,11934 21324,11934 21324,11834 21224,11834 Z"/>
 <path fill="none" stroke="rgb(153,255,102)" stroke-linejoin="round" d="M 21224,11834 L 21224,11934 21324,11934 21324,11834 21224,11834 Z"/>
 <path fill="rgb(153,255,102)" stroke="none" d="M 21427,11913 L 21427,12013 21527,12013 21527,11913 21427,11913 Z"/>
 <path fill="none" stroke="rgb(153,255,102)" stroke-linejoin="round" d="M 21427,11913 L 21427,12013 21527,12013 21527,11913 21427,11913 Z"/>
 <path fill="rgb(153,255,102)" stroke="none" d="M 21630,11965 L 21630,12065 21730,12065 21730,11965 21630,11965 Z"/>
 <path fill="none" stroke="rgb(153,255,102)" stroke-linejoin="round" d="M 21630,11965 L 21630,12065 21730,12065 21730,11965 21630,11965 Z"/>
 <path fill="rgb(153,255,102)" stroke="none" d="M 21832,11957 L 21832,12057 21932,12057 21932,11957 21832,11957 Z"/>
 <path fill="none" stroke="rgb(153,255,102)" stroke-linejoin="round" d="M 21832,11957 L 21832,12057 21932,12057 21932,11957 21832,11957 Z"/>
 <path fill="rgb(153,255,102)" stroke="none" d="M 22035,11905 L 22035,12005 22135,12005 22135,11905 22035,11905 Z"/>
 <path fill="none" stroke="rgb(153,255,102)" stroke-linejoin="round" d="M 22035,11905 L 22035,12005 22135,12005 22135,11905 22035,11905 Z"/>
 <path fill="rgb(153,255,102)" stroke="none" d="M 22238,11899 L 22238,11999 22338,11999 22338,11899 22238,11899 Z"/>
 <path fill="none" stroke="rgb(153,255,102)" stroke-linejoin="round" d="M 22238,11899 L 22238,11999 22338,11999 22338,11899 22238,11899 Z"/>
 <path fill="rgb(153,255,102)" stroke="none" d="M 22440,12118 L 22440,12218 22540,12218 22540,12118 22440,12118 Z"/>
 <path fill="none" stroke="rgb(153,255,102)" stroke-linejoin="round" d="M 22440,12118 L 22440,12218 22540,12218 22540,12118 22440,12118 Z"/>
 <path fill="rgb(153,255,102)" stroke="none" d="M 22643,11893 L 22643,11993 22743,11993 22743,11893 22643,11893 Z"/>
 <path fill="none" stroke="rgb(153,255,102)" stroke-linejoin="round" d="M 22643,11893 L 22643,11993 22743,11993 22743,11893 22643,11893 Z"/>
 <path fill="rgb(153,255,102)" stroke="none" d="M 22846,12174 L 22846,12274 22946,12274 22946,12174 22846,12174 Z"/>
 <path fill="none" stroke="rgb(153,255,102)" stroke-linejoin="round" d="M 22846,12174 L 22846,12274 22946,12274 22946,12174 22846,12174 Z"/>
 <path fill="rgb(153,255,102)" stroke="none" d="M 23048,12122 L 23048,12222 23148,12222 23148,12122 23048,12122 Z"/>
 <path fill="none" stroke="rgb(153,255,102)" stroke-linejoin="round" d="M 23048,12122 L 23048,12222 23148,12222 23148,12122 23048,12122 Z"/>
 <path fill="rgb(153,255,102)" stroke="none" d="M 23251,11970 L 23251,12070 23351,12070 23351,11970 23251,11970 Z"/>
 <path fill="none" stroke="rgb(153,255,102)" stroke-linejoin="round" d="M 23251,11970 L 23251,12070 23351,12070 23351,11970 23251,11970 Z"/>
 <path fill="rgb(153,255,102)" stroke="none" d="M 23454,12183 L 23454,12283 23554,12283 23554,12183 23454,12183 Z"/>
 <path fill="none" stroke="rgb(153,255,102)" stroke-linejoin="round" d="M 23454,12183 L 23454,12283 23554,12283 23554,12183 23454,12183 Z"/>
 <path fill="none" stroke="rgb(255,51,51)" stroke-width="80" stroke-linejoin="round" d="M 3240,5668 L 3442,7323 3645,6697 3847,7803 4050,6406 4253,5515 4455,7625 4658,6527 4861,6648 5063,5124 5266,6139 5469,4376 5671,7357 5874,6702 6077,7445 6279,5627 6482,6830 6685,5121 6887,5913 7090,5590 7293,5541 7495,3691 7698,5463 7900,6363 8103,4081 8306,4693 8508,5457 8711,5914 8914,6560 9116,3720 9319,5963 9522,5095 9724,6490 9927,5798 10130,5482 10332,5344 10535,6919 10738,5834 10940,3710 11143,5084 11346,6415 11548,5907 11751,6898 11953,4693 12156,7620 12359,6912 12561,6813 12764,6152 12967,6701 13169,7479 13372,4886 13575,6533 13777,2108 13980,4760 14183,6156 14385,7269 14588,5875 14790,5377 14992,6845 15195,4689 15398,7123 15600,5716 15803,5357 16005,7847 16208,5812 16411,6473 16613,6972 16816,6533 17019,4962 17221,6444 17424,1443 17627,8425 17829,4228 18032,7801 18235,4379 18437,5730 18640,4978 18843,6738 19045,4771 19248,6094 19451,4134 19653,5268 19856,5883 20058,6120 20261,6238 20464,5356 20666,3329 20869,5596 21072,7601 21274,6264 21477,6570 21680,3382 21882,5743 22085,4614 22288,3923 22490,7464 22693,4491 22896,5719 23098,7028 23301,4052 23504,7200"/>
 <path fill="rgb(255,51,51)" stroke="none" d="M 3190,5618 L 3190,5718 3290,5718 3290,5618 3190,5618 Z"/>
 <path fill="none" stroke="rgb(255,51,51)" stroke-linejoin="round" d="M 3190,5618 L 3190,5718 3290,5718 3290,5618 3190,5618 Z"/>
 <path fill="rgb(255,51,51)" stroke="none" d="M 3392,7273 L 3392,7373 3492,7373 3492,7273 3392,7273 Z"/>
 <path fill="none" stroke="rgb(255,51,51)" stroke-linejoin="round" d="M 3392,7273 L 3392,7373 3492,7373 3492,7273 3392,7273 Z"/>
 <path fill="rgb(255,51,51)" stroke="none" d="M 3595,6647 L 3595,6747 3695,6747 3695,6647 3595,6647 Z"/>
 <path fill="none" stroke="rgb(255,51,51)" stroke-linejoin="round" d="M 3595,6647 L 3595,6747 3695,6747 3695,6647 3595,6647 Z"/>
 <path fill="rgb(255,51,51)" stroke="none" d="M 3797,7753 L 3797,7853 3897,7853 3897,7753 3797,7753 Z"/>
 <path fill="none" stroke="rgb(255,51,51)" stroke-linejoin="round" d="M 3797,7753 L 3797,7853 3897,7853 3897,7753 3797,7753 Z"/>
 <path fill="rgb(255,51,51)" stroke="none" d="M 4000,6356 L 4000,6456 4100,6456 4100,6356 4000,6356 Z"/>
 <path fill="none" stroke="rgb(255,51,51)" stroke-linejoin="round" d="M 4000,6356 L 4000,6456 4100,6456 4100,6356 4000,6356 Z"/>
 <path fill="rgb(255,51,51)" stroke="none" d="M 4203,5465 L 4203,5565 4303,5565 4303,5465 4203,5465 Z"/>
 <path fill="none" stroke="rgb(255,51,51)" stroke-linejoin="round" d="M 4203,5465 L 4203,5565 4303,5565 4303,5465 4203,5465 Z"/>
 <path fill="rgb(255,51,51)" stroke="none" d="M 4405,7575 L 4405,7675 4505,7675 4505,7575 4405,7575 Z"/>
 <path fill="none" stroke="rgb(255,51,51)" stroke-linejoin="round" d="M 4405,7575 L 4405,7675 4505,7675 4505,7575 4405,7575 Z"/>
 <path fill="rgb(255,51,51)" stroke="none" d="M 4608,6477 L 4608,6577 4708,6577 4708,6477 4608,6477 Z"/>
 <path fill="none" stroke="rgb(255,51,51)" stroke-linejoin="round" d="M 4608,6477 L 4608,6577 4708,6577 4708,6477 4608,6477 Z"/>
 <path fill="rgb(255,51,51)" stroke="none" d="M 4811,6598 L 4811,6698 4911,6698 4911,6598 4811,6598 Z"/>
 <path fill="none" stroke="rgb(255,51,51)" stroke-linejoin="round" d="M 4811,6598 L 4811,6698 4911,6698 4911,6598 4811,6598 Z"/>
 <path fill="rgb(255,51,51)" stroke="none" d="M 5013,5074 L 5013,5174 5113,5174 5113,5074 5013,5074 Z"/>
 <path fill="none" stroke="rgb(255,51,51)" stroke-linejoin="round" d="M 5013,5074 L 5013,5174 5113,5174 5113,5074 5013,5074 Z"/>
 <path fill="rgb(255,51,51)" stroke="none" d="M 5216,6089 L 5216,6189 5316,6189 5316,6089 5216,6089 Z"/>
 <path fill="none" stroke="rgb(255,51,51)" stroke-linejoin="round" d="M 5216,6089 L 5216,6189 5316,6189 5316,6089 5216,6089 Z"/>
 <path fill="rgb(255,51,51)" stroke="none" d="M 5419,4326 L 5419,4426 5519,4426 5519,4326 5419,4326 Z"/>
 <path fill="none" stroke="rgb(255,51,51)" stroke-linejoin="round" d="M 5419,4326 L 5419,4426 5519,4426 5519,4326 5419,4326 Z"/>
 <path fill="rgb(255,51,51)" stroke="none" d="M 5621,7307 L 5621,7407 5721,7407 5721,7307 5621,7307 Z"/>
 <path fill="none" stroke="rgb(255,51,51)" stroke-linejoin="round" d="M 5621,7307 L 5621,7407 5721,7407 5721,7307 5621,7307 Z"/>
 <path fill="rgb(255,51,51)" stroke="none" d="M 5824,6652 L 5824,6752 5924,6752 5924,6652 5824,6652 Z"/>
 <path fill="none" stroke="rgb(255,51,51)" stroke-linejoin="round" d="M 5824,6652 L 5824,6752 5924,6752 5924,6652 5824,6652 Z"/>
 <path fill="rgb(255,51,51)" stroke="none" d="M 6027,7395 L 6027,7495 6127,7495 6127,7395 6027,7395 Z"/>
 <path fill="none" stroke="rgb(255,51,51)" stroke-linejoin="round" d="M 6027,7395 L 6027,7495 6127,7495 6127,7395 6027,7395 Z"/>
 <path fill="rgb(255,51,51)" stroke="none" d="M 6229,5577 L 6229,5677 6329,5677 6329,5577 6229,5577 Z"/>
 <path fill="none" stroke="rgb(255,51,51)" stroke-linejoin="round" d="M 6229,5577 L 6229,5677 6329,5677 6329,5577 6229,5577 Z"/>
 <path fill="rgb(255,51,51)" stroke="none" d="M 6432,6780 L 6432,6880 6532,6880 6532,6780 6432,6780 Z"/>
 <path fill="none" stroke="rgb(255,51,51)" stroke-linejoin="round" d="M 6432,6780 L 6432,6880 6532,6880 6532,6780 6432,6780 Z"/>
 <path fill="rgb(255,51,51)" stroke="none" d="M 6635,5071 L 6635,5171 6735,5171 6735,5071 6635,5071 Z"/>
 <path fill="none" stroke="rgb(255,51,51)" stroke-linejoin="round" d="M 6635,5071 L 6635,5171 6735,5171 6735,5071 6635,5071 Z"/>
 <path fill="rgb(255,51,51)" stroke="none" d="M 6837,5863 L 6837,5963 6937,5963 6937,5863 6837,5863 Z"/>
 <path fill="none" stroke="rgb(255,51,51)" stroke-linejoin="round" d="M 6837,5863 L 6837,5963 6937,5963 6937,5863 6837,5863 Z"/>
 <path fill="rgb(255,51,51)" stroke="none" d="M 7040,5540 L 7040,5640 7140,5640 7140,5540 7040,5540 Z"/>
 <path fill="none" stroke="rgb(255,51,51)" stroke-linejoin="round" d="M 7040,5540 L 7040,5640 7140,5640 7140,5540 7040,5540 Z"/>
 <path fill="rgb(255,51,51)" stroke="none" d="M 7243,5491 L 7243,5591 7343,5591 7343,5491 7243,5491 Z"/>
 <path fill="none" stroke="rgb(255,51,51)" stroke-linejoin="round" d="M 7243,5491 L 7243,5591 7343,5591 7343,5491 7243,5491 Z"/>
 <path fill="rgb(255,51,51)" stroke="none" d="M 7445,3641 L 7445,3741 7545,3741 7545,3641 7445,3641 Z"/>
 <path fill="none" stroke="rgb(255,51,51)" stroke-linejoin="round" d="M 7445,3641 L 7445,3741 7545,3741 7545,3641 7445,3641 Z"/>
 <path fill="rgb(255,51,51)" stroke="none" d="M 7648,5413 L 7648,5513 7748,5513 7748,5413 7648,5413 Z"/>
 <path fill="none" stroke="rgb(255,51,51)" stroke-linejoin="round" d="M 7648,5413 L 7648,5513 7748,5513 7748,5413 7648,5413 Z"/>
 <path fill="rgb(255,51,51)" stroke="none" d="M 7850,6313 L 7850,6413 7950,6413 7950,6313 7850,6313 Z"/>
 <path fill="none" stroke="rgb(255,51,51)" stroke-linejoin="round" d="M 7850,6313 L 7850,6413 7950,6413 7950,6313 7850,6313 Z"/>
 <path fill="rgb(255,51,51)" stroke="none" d="M 8053,4031 L 8053,4131 8153,4131 8153,4031 8053,4031 Z"/>
 <path fill="none" stroke="rgb(255,51,51)" stroke-linejoin="round" d="M 8053,4031 L 8053,4131 8153,4131 8153,4031 8053,4031 Z"/>
 <path fill="rgb(255,51,51)" stroke="none" d="M 8256,4643 L 8256,4743 8356,4743 8356,4643 8256,4643 Z"/>
 <path fill="none" stroke="rgb(255,51,51)" stroke-linejoin="round" d="M 8256,4643 L 8256,4743 8356,4743 8356,4643 8256,4643 Z"/>
 <path fill="rgb(255,51,51)" stroke="none" d="M 8458,5407 L 8458,5507 8558,5507 8558,5407 8458,5407 Z"/>
 <path fill="none" stroke="rgb(255,51,51)" stroke-linejoin="round" d="M 8458,5407 L 8458,5507 8558,5507 8558,5407 8458,5407 Z"/>
 <path fill="rgb(255,51,51)" stroke="none" d="M 8661,5864 L 8661,5964 8761,5964 8761,5864 8661,5864 Z"/>
 <path fill="none" stroke="rgb(255,51,51)" stroke-linejoin="round" d="M 8661,5864 L 8661,5964 8761,5964 8761,5864 8661,5864 Z"/>
 <path fill="rgb(255,51,51)" stroke="none" d="M 8864,6510 L 8864,6610 8964,6610 8964,6510 8864,6510 Z"/>
 <path fill="none" stroke="rgb(255,51,51)" stroke-linejoin="round" d="M 8864,6510 L 8864,6610 8964,6610 8964,6510 8864,6510 Z"/>
 <path fill="rgb(255,51,51)" stroke="none" d="M 9066,3670 L 9066,3770 9166,3770 9166,3670 9066,3670 Z"/>
 <path fill="none" stroke="rgb(255,51,51)" stroke-linejoin="round" d="M 9066,3670 L 9066,3770 9166,3770 9166,3670 9066,3670 Z"/>
 <path fill="rgb(255,51,51)" stroke="none" d="M 9269,5913 L 9269,6013 9369,6013 9369,5913 9269,5913 Z"/>
 <path fill="none" stroke="rgb(255,51,51)" stroke-linejoin="round" d="M 9269,5913 L 9269,6013 9369,6013 9369,5913 9269,5913 Z"/>
 <path fill="rgb(255,51,51)" stroke="none" d="M 9472,5045 L 9472,5145 9572,5145 9572,5045 9472,5045 Z"/>
 <path fill="none" stroke="rgb(255,51,51)" stroke-linejoin="round" d="M 9472,5045 L 9472,5145 9572,5145 9572,5045 9472,5045 Z"/>
 <path fill="rgb(255,51,51)" stroke="none" d="M 9674,6440 L 9674,6540 9774,6540 9774,6440 9674,6440 Z"/>
 <path fill="none" stroke="rgb(255,51,51)" stroke-linejoin="round" d="M 9674,6440 L 9674,6540 9774,6540 9774,6440 9674,6440 Z"/>
 <path fill="rgb(255,51,51)" stroke="none" d="M 9877,5748 L 9877,5848 9977,5848 9977,5748 9877,5748 Z"/>
 <path fill="none" stroke="rgb(255,51,51)" stroke-linejoin="round" d="M 9877,5748 L 9877,5848 9977,5848 9977,5748 9877,5748 Z"/>
 <path fill="rgb(255,51,51)" stroke="none" d="M 10080,5432 L 10080,5532 10180,5532 10180,5432 10080,5432 Z"/>
 <path fill="none" stroke="rgb(255,51,51)" stroke-linejoin="round" d="M 10080,5432 L 10080,5532 10180,5532 10180,5432 10080,5432 Z"/>
 <path fill="rgb(255,51,51)" stroke="none" d="M 10282,5294 L 10282,5394 10382,5394 10382,5294 10282,5294 Z"/>
 <path fill="none" stroke="rgb(255,51,51)" stroke-linejoin="round" d="M 10282,5294 L 10282,5394 10382,5394 10382,5294 10282,5294 Z"/>
 <path fill="rgb(255,51,51)" stroke="none" d="M 10485,6869 L 10485,6969 10585,6969 10585,6869 10485,6869 Z"/>
 <path fill="none" stroke="rgb(255,51,51)" stroke-linejoin="round" d="M 10485,6869 L 10485,6969 10585,6969 10585,6869 10485,6869 Z"/>
 <path fill="rgb(255,51,51)" stroke="none" d="M 10688,5784 L 10688,5884 10788,5884 10788,5784 10688,5784 Z"/>
 <path fill="none" stroke="rgb(255,51,51)" stroke-linejoin="round" d="M 10688,5784 L 10688,5884 10788,5884 10788,5784 10688,5784 Z"/>
 <path fill="rgb(255,51,51)" stroke="none" d="M 10890,3660 L 10890,3760 10990,3760 10990,3660 10890,3660 Z"/>
 <path fill="none" stroke="rgb(255,51,51)" stroke-linejoin="round" d="M 10890,3660 L 10890,3760 10990,3760 10990,3660 10890,3660 Z"/>
 <path fill="rgb(255,51,51)" stroke="none" d="M 11093,5034 L 11093,5134 11193,5134 11193,5034 11093,5034 Z"/>
 <path fill="none" stroke="rgb(255,51,51)" stroke-linejoin="round" d="M 11093,5034 L 11093,5134 11193,5134 11193,5034 11093,5034 Z"/>
 <path fill="rgb(255,51,51)" stroke="none" d="M 11296,6365 L 11296,6465 11396,6465 11396,6365 11296,6365 Z"/>
 <path fill="none" stroke="rgb(255,51,51)" stroke-linejoin="round" d="M 11296,6365 L 11296,6465 11396,6465 11396,6365 11296,6365 Z"/>
 <path fill="rgb(255,51,51)" stroke="none" d="M 11498,5857 L 11498,5957 11598,5957 11598,5857 11498,5857 Z"/>
 <path fill="none" stroke="rgb(255,51,51)" stroke-linejoin="round" d="M 11498,5857 L 11498,5957 11598,5957 11598,5857 11498,5857 Z"/>
 <path fill="rgb(255,51,51)" stroke="none" d="M 11701,6848 L 11701,6948 11801,6948 11801,6848 11701,6848 Z"/>
 <path fill="none" stroke="rgb(255,51,51)" stroke-linejoin="round" d="M 11701,6848 L 11701,6948 11801,6948 11801,6848 11701,6848 Z"/>
 <path fill="rgb(255,51,51)" stroke="none" d="M 11903,4643 L 11903,4743 12003,4743 12003,4643 11903,4643 Z"/>
 <path fill="none" stroke="rgb(255,51,51)" stroke-linejoin="round" d="M 11903,4643 L 11903,4743 12003,4743 12003,4643 11903,4643 Z"/>
 <path fill="rgb(255,51,51)" stroke="none" d="M 12106,7570 L 12106,7670 12206,7670 12206,7570 12106,7570 Z"/>
 <path fill="none" stroke="rgb(255,51,51)" stroke-linejoin="round" d="M 12106,7570 L 12106,7670 12206,7670 12206,7570 12106,7570 Z"/>
 <path fill="rgb(255,51,51)" stroke="none" d="M 12309,6862 L 12309,6962 12409,6962 12409,6862 12309,6862 Z"/>
 <path fill="none" stroke="rgb(255,51,51)" stroke-linejoin="round" d="M 12309,6862 L 12309,6962 12409,6962 12409,6862 12309,6862 Z"/>
 <path fill="rgb(255,51,51)" stroke="none" d="M 12511,6763 L 12511,6863 12611,6863 12611,6763 12511,6763 Z"/>
 <path fill="none" stroke="rgb(255,51,51)" stroke-linejoin="round" d="M 12511,6763 L 12511,6863 12611,6863 12611,6763 12511,6763 Z"/>
 <path fill="rgb(255,51,51)" stroke="none" d="M 12714,6102 L 12714,6202 12814,6202 12814,6102 12714,6102 Z"/>
 <path fill="none" stroke="rgb(255,51,51)" stroke-linejoin="round" d="M 12714,6102 L 12714,6202 12814,6202 12814,6102 12714,6102 Z"/>
 <path fill="rgb(255,51,51)" stroke="none" d="M 12917,6651 L 12917,6751 13017,6751 13017,6651 12917,6651 Z"/>
 <path fill="none" stroke="rgb(255,51,51)" stroke-linejoin="round" d="M 12917,6651 L 12917,6751 13017,6751 13017,6651 12917,6651 Z"/>
 <path fill="rgb(255,51,51)" stroke="none" d="M 13119,7429 L 13119,7529 13219,7529 13219,7429 13119,7429 Z"/>
 <path fill="none" stroke="rgb(255,51,51)" stroke-linejoin="round" d="M 13119,7429 L 13119,7529 13219,7529 13219,7429 13119,7429 Z"/>
 <path fill="rgb(255,51,51)" stroke="none" d="M 13322,4836 L 13322,4936 13422,4936 13422,4836 13322,4836 Z"/>
 <path fill="none" stroke="rgb(255,51,51)" stroke-linejoin="round" d="M 13322,4836 L 13322,4936 13422,4936 13422,4836 13322,4836 Z"/>
 <path fill="rgb(255,51,51)" stroke="none" d="M 13525,6483 L 13525,6583 13625,6583 13625,6483 13525,6483 Z"/>
 <path fill="none" stroke="rgb(255,51,51)" stroke-linejoin="round" d="M 13525,6483 L 13525,6583 13625,6583 13625,6483 13525,6483 Z"/>
 <path fill="rgb(255,51,51)" stroke="none" d="M 13727,2058 L 13727,2158 13827,2158 13827,2058 13727,2058 Z"/>
 <path fill="none" stroke="rgb(255,51,51)" stroke-linejoin="round" d="M 13727,2058 L 13727,2158 13827,2158 13827,2058 13727,2058 Z"/>
 <path fill="rgb(255,51,51)" stroke="none" d="M 13930,4710 L 13930,4810 14030,4810 14030,4710 13930,4710 Z"/>
 <path fill="none" stroke="rgb(255,51,51)" stroke-linejoin="round" d="M 13930,4710 L 13930,4810 14030,4810 14030,4710 13930,4710 Z"/>
 <path fill="rgb(255,51,51)" stroke="none" d="M 14133,6106 L 14133,6206 14233,6206 14233,6106 14133,6106 Z"/>
 <path fill="none" stroke="rgb(255,51,51)" stroke-linejoin="round" d="M 14133,6106 L 14133,6206 14233,6206 14233,6106 14133,6106 Z"/>
 <path fill="rgb(255,51,51)" stroke="none" d="M 14335,7219 L 14335,7319 14435,7319 14435,7219 14335,7219 Z"/>
 <path fill="none" stroke="rgb(255,51,51)" stroke-linejoin="round" d="M 14335,7219 L 14335,7319 14435,7319 14435,7219 14335,7219 Z"/>
 <path fill="rgb(255,51,51)" stroke="none" d="M 14538,5825 L 14538,5925 14638,5925 14638,5825 14538,5825 Z"/>
 <path fill="none" stroke="rgb(255,51,51)" stroke-linejoin="round" d="M 14538,5825 L 14538,5925 14638,5925 14638,5825 14538,5825 Z"/>
 <path fill="rgb(255,51,51)" stroke="none" d="M 14740,5327 L 14740,5427 14840,5427 14840,5327 14740,5327 Z"/>
 <path fill="none" stroke="rgb(255,51,51)" stroke-linejoin="round" d="M 14740,5327 L 14740,5427 14840,5427 14840,5327 14740,5327 Z"/>
 <path fill="rgb(255,51,51)" stroke="none" d="M 14942,6795 L 14942,6895 15042,6895 15042,6795 14942,6795 Z"/>
 <path fill="none" stroke="rgb(255,51,51)" stroke-linejoin="round" d="M 14942,6795 L 14942,6895 15042,6895 15042,6795 14942,6795 Z"/>
 <path fill="rgb(255,51,51)" stroke="none" d="M 15145,4639 L 15145,4739 15245,4739 15245,4639 15145,4639 Z"/>
 <path fill="none" stroke="rgb(255,51,51)" stroke-linejoin="round" d="M 15145,4639 L 15145,4739 15245,4739 15245,4639 15145,4639 Z"/>
 <path fill="rgb(255,51,51)" stroke="none" d="M 15348,7073 L 15348,7173 15448,7173 15448,7073 15348,7073 Z"/>
 <path fill="none" stroke="rgb(255,51,51)" stroke-linejoin="round" d="M 15348,7073 L 15348,7173 15448,7173 15448,7073 15348,7073 Z"/>
 <path fill="rgb(255,51,51)" stroke="none" d="M 15550,5666 L 15550,5766 15650,5766 15650,5666 15550,5666 Z"/>
 <path fill="none" stroke="rgb(255,51,51)" stroke-linejoin="round" d="M 15550,5666 L 15550,5766 15650,5766 15650,5666 15550,5666 Z"/>
 <path fill="rgb(255,51,51)" stroke="none" d="M 15753,5307 L 15753,5407 15853,5407 15853,5307 15753,5307 Z"/>
 <path fill="none" stroke="rgb(255,51,51)" stroke-linejoin="round" d="M 15753,5307 L 15753,5407 15853,5407 15853,5307 15753,5307 Z"/>
 <path fill="rgb(255,51,51)" stroke="none" d="M 15955,7797 L 15955,7897 16055,7897 16055,7797 15955,7797 Z"/>
 <path fill="none" stroke="rgb(255,51,51)" stroke-linejoin="round" d="M 15955,7797 L 15955,7897 16055,7897 16055,7797 15955,7797 Z"/>
 <path fill="rgb(255,51,51)" stroke="none" d="M 16158,5762 L 16158,5862 16258,5862 16258,5762 16158,5762 Z"/>
 <path fill="none" stroke="rgb(255,51,51)" stroke-linejoin="round" d="M 16158,5762 L 16158,5862 16258,5862 16258,5762 16158,5762 Z"/>
 <path fill="rgb(255,51,51)" stroke="none" d="M 16361,6423 L 16361,6523 16461,6523 16461,6423 16361,6423 Z"/>
 <path fill="none" stroke="rgb(255,51,51)" stroke-linejoin="round" d="M 16361,6423 L 16361,6523 16461,6523 16461,6423 16361,6423 Z"/>
 <path fill="rgb(255,51,51)" stroke="none" d="M 16563,6922 L 16563,7022 16663,7022 16663,6922 16563,6922 Z"/>
 <path fill="none" stroke="rgb(255,51,51)" stroke-linejoin="round" d="M 16563,6922 L 16563,7022 16663,7022 16663,6922 16563,6922 Z"/>
 <path fill="rgb(255,51,51)" stroke="none" d="M 16766,6483 L 16766,6583 16866,6583 16866,6483 16766,6483 Z"/>
 <path fill="none" stroke="rgb(255,51,51)" stroke-linejoin="round" d="M 16766,6483 L 16766,6583 16866,6583 16866,6483 16766,6483 Z"/>
 <path fill="rgb(255,51,51)" stroke="none" d="M 16969,4912 L 16969,5012 17069,5012 17069,4912 16969,4912 Z"/>
 <path fill="none" stroke="rgb(255,51,51)" stroke-linejoin="round" d="M 16969,4912 L 16969,5012 17069,5012 17069,4912 16969,4912 Z"/>
 <path fill="rgb(255,51,51)" stroke="none" d="M 17171,6394 L 17171,6494 17271,6494 17271,6394 17171,6394 Z"/>
 <path fill="none" stroke="rgb(255,51,51)" stroke-linejoin="round" d="M 17171,6394 L 17171,6494 17271,6494 17271,6394 17171,6394 Z"/>
 <path fill="rgb(255,51,51)" stroke="none" d="M 17374,1393 L 17374,1493 17474,1493 17474,1393 17374,1393 Z"/>
 <path fill="none" stroke="rgb(255,51,51)" stroke-linejoin="round" d="M 17374,1393 L 17374,1493 17474,1493 17474,1393 17374,1393 Z"/>
 <path fill="rgb(255,51,51)" stroke="none" d="M 17577,8375 L 17577,8475 17677,8475 17677,8375 17577,8375 Z"/>
 <path fill="none" stroke="rgb(255,51,51)" stroke-linejoin="round" d="M 17577,8375 L 17577,8475 17677,8475 17677,8375 17577,8375 Z"/>
 <path fill="rgb(255,51,51)" stroke="none" d="M 17779,4178 L 17779,4278 17879,4278 17879,4178 17779,4178 Z"/>
 <path fill="none" stroke="rgb(255,51,51)" stroke-linejoin="round" d="M 17779,4178 L 17779,4278 17879,4278 17879,4178 17779,4178 Z"/>
 <path fill="rgb(255,51,51)" stroke="none" d="M 17982,7751 L 17982,7851 18082,7851 18082,7751 17982,7751 Z"/>
 <path fill="none" stroke="rgb(255,51,51)" stroke-linejoin="round" d="M 17982,7751 L 17982,7851 18082,7851 18082,7751 17982,7751 Z"/>
 <path fill="rgb(255,51,51)" stroke="none" d="M 18185,4329 L 18185,4429 18285,4429 18285,4329 18185,4329 Z"/>
 <path fill="none" stroke="rgb(255,51,51)" stroke-linejoin="round" d="M 18185,4329 L 18185,4429 18285,4429 18285,4329 18185,4329 Z"/>
 <path fill="rgb(255,51,51)" stroke="none" d="M 18387,5680 L 18387,5780 18487,5780 18487,5680 18387,5680 Z"/>
 <path fill="none" stroke="rgb(255,51,51)" stroke-linejoin="round" d="M 18387,5680 L 18387,5780 18487,5780 18487,5680 18387,5680 Z"/>
 <path fill="rgb(255,51,51)" stroke="none" d="M 18590,4928 L 18590,5028 18690,5028 18690,4928 18590,4928 Z"/>
 <path fill="none" stroke="rgb(255,51,51)" stroke-linejoin="round" d="M 18590,4928 L 18590,5028 18690,5028 18690,4928 18590,4928 Z"/>
 <path fill="rgb(255,51,51)" stroke="none" d="M 18793,6688 L 18793,6788 18893,6788 18893,6688 18793,6688 Z"/>
 <path fill="none" stroke="rgb(255,51,51)" stroke-linejoin="round" d="M 18793,6688 L 18793,6788 18893,6788 18893,6688 18793,6688 Z"/>
 <path fill="rgb(255,51,51)" stroke="none" d="M 18995,4721 L 18995,4821 19095,4821 19095,4721 18995,4721 Z"/>
 <path fill="none" stroke="rgb(255,51,51)" stroke-linejoin="round" d="M 18995,4721 L 18995,4821 19095,4821 19095,4721 18995,4721 Z"/>
 <path fill="rgb(255,51,51)" stroke="none" d="M 19198,6044 L 19198,6144 19298,6144 19298,6044 19198,6044 Z"/>
 <path fill="none" stroke="rgb(255,51,51)" stroke-linejoin="round" d="M 19198,6044 L 19198,6144 19298,6144 19298,6044 19198,6044 Z"/>
 <path fill="rgb(255,51,51)" stroke="none" d="M 19401,4084 L 19401,4184 19501,4184 19501,4084 19401,4084 Z"/>
 <path fill="none" stroke="rgb(255,51,51)" stroke-linejoin="round" d="M 19401,4084 L 19401,4184 19501,4184 19501,4084 19401,4084 Z"/>
 <path fill="rgb(255,51,51)" stroke="none" d="M 19603,5218 L 19603,5318 19703,5318 19703,5218 19603,5218 Z"/>
 <path fill="none" stroke="rgb(255,51,51)" stroke-linejoin="round" d="M 19603,5218 L 19603,5318 19703,5318 19703,5218 19603,5218 Z"/>
 <path fill="rgb(255,51,51)" stroke="none" d="M 19806,5833 L 19806,5933 19906,5933 19906,5833 19806,5833 Z"/>
 <path fill="none" stroke="rgb(255,51,51)" stroke-linejoin="round" d="M 19806,5833 L 19806,5933 19906,5933 19906,5833 19806,5833 Z"/>
 <path fill="rgb(255,51,51)" stroke="none" d="M 20008,6070 L 20008,6170 20108,6170 20108,6070 20008,6070 Z"/>
 <path fill="none" stroke="rgb(255,51,51)" stroke-linejoin="round" d="M 20008,6070 L 20008,6170 20108,6170 20108,6070 20008,6070 Z"/>
 <path fill="rgb(255,51,51)" stroke="none" d="M 20211,6188 L 20211,6288 20311,6288 20311,6188 20211,6188 Z"/>
 <path fill="none" stroke="rgb(255,51,51)" stroke-linejoin="round" d="M 20211,6188 L 20211,6288 20311,6288 20311,6188 20211,6188 Z"/>
 <path fill="rgb(255,51,51)" stroke="none" d="M 20414,5306 L 20414,5406 20514,5406 20514,5306 20414,5306 Z"/>
 <path fill="none" stroke="rgb(255,51,51)" stroke-linejoin="round" d="M 20414,5306 L 20414,5406 20514,5406 20514,5306 20414,5306 Z"/>
 <path fill="rgb(255,51,51)" stroke="none" d="M 20616,3279 L 20616,3379 20716,3379 20716,3279 20616,3279 Z"/>
 <path fill="none" stroke="rgb(255,51,51)" stroke-linejoin="round" d="M 20616,3279 L 20616,3379 20716,3379 20716,3279 20616,3279 Z"/>
 <path fill="rgb(255,51,51)" stroke="none" d="M 20819,5546 L 20819,5646 20919,5646 20919,5546 20819,5546 Z"/>
 <path fill="none" stroke="rgb(255,51,51)" stroke-linejoin="round" d="M 20819,5546 L 20819,5646 20919,5646 20919,5546 20819,5546 Z"/>
 <path fill="rgb(255,51,51)" stroke="none" d="M 21022,7551 L 21022,7651 21122,7651 21122,7551 21022,7551 Z"/>
 <path fill="none" stroke="rgb(255,51,51)" stroke-linejoin="round" d="M 21022,7551 L 21022,7651 21122,7651 21122,7551 21022,7551 Z"/>
 <path fill="rgb(255,51,51)" stroke="none" d="M 21224,6214 L 21224,6314 21324,6314 21324,6214 21224,6214 Z"/>
 <path fill="none" stroke="rgb(255,51,51)" stroke-linejoin="round" d="M 21224,6214 L 21224,6314 21324,6314 21324,6214 21224,6214 Z"/>
 <path fill="rgb(255,51,51)" stroke="none" d="M 21427,6520 L 21427,6620 21527,6620 21527,6520 21427,6520 Z"/>
 <path fill="none" stroke="rgb(255,51,51)" stroke-linejoin="round" d="M 21427,6520 L 21427,6620 21527,6620 21527,6520 21427,6520 Z"/>
 <path fill="rgb(255,51,51)" stroke="none" d="M 21630,3332 L 21630,3432 21730,3432 21730,3332 21630,3332 Z"/>
 <path fill="none" stroke="rgb(255,51,51)" stroke-linejoin="round" d="M 21630,3332 L 21630,3432 21730,3432 21730,3332 21630,3332 Z"/>
 <path fill="rgb(255,51,51)" stroke="none" d="M 21832,5693 L 21832,5793 21932,5793 21932,5693 21832,5693 Z"/>
 <path fill="none" stroke="rgb(255,51,51)" stroke-linejoin="round" d="M 21832,5693 L 21832,5793 21932,5793 21932,5693 21832,5693 Z"/>
 <path fill="rgb(255,51,51)" stroke="none" d="M 22035,4564 L 22035,4664 22135,4664 22135,4564 22035,4564 Z"/>
 <path fill="none" stroke="rgb(255,51,51)" stroke-linejoin="round" d="M 22035,4564 L 22035,4664 22135,4664 22135,4564 22035,4564 Z"/>
 <path fill="rgb(255,51,51)" stroke="none" d="M 22238,3873 L 22238,3973 22338,3973 22338,3873 22238,3873 Z"/>
 <path fill="none" stroke="rgb(255,51,51)" stroke-linejoin="round" d="M 22238,3873 L 22238,3973 22338,3973 22338,3873 22238,3873 Z"/>
 <path fill="rgb(255,51,51)" stroke="none" d="M 22440,7414 L 22440,7514 22540,7514 22540,7414 22440,7414 Z"/>
 <path fill="none" stroke="rgb(255,51,51)" stroke-linejoin="round" d="M 22440,7414 L 22440,7514 22540,7514 22540,7414 22440,7414 Z"/>
 <path fill="rgb(255,51,51)" stroke="none" d="M 22643,4441 L 22643,4541 22743,4541 22743,4441 22643,4441 Z"/>
 <path fill="none" stroke="rgb(255,51,51)" stroke-linejoin="round" d="M 22643,4441 L 22643,4541 22743,4541 22743,4441 22643,4441 Z"/>
 <path fill="rgb(255,51,51)" stroke="none" d="M 22846,5669 L 22846,5769 22946,5769 22946,5669 22846,5669 Z"/>
 <path fill="none" stroke="rgb(255,51,51)" stroke-linejoin="round" d="M 22846,5669 L 22846,5769 22946,5769 22946,5669 22846,5669 Z"/>
 <path fill="rgb(255,51,51)" stroke="none" d="M 23048,6978 L 23048,7078 23148,7078 23148,6978 23048,6978 Z"/>
 <path fill="none" stroke="rgb(255,51,51)" stroke-linejoin="round" d="M 23048,6978 L 23048,7078 23148,7078 23148,6978 23048,6978 Z"/>
 <path fill="rgb(255,51,51)" stroke="none" d="M 23251,4002 L 23251,4102 23351,4102 23351,4002 23251,4002 Z"/>
 <path fill="none" stroke="rgb(255,51,51)" stroke-linejoin="round" d="M 23251,4002 L 23251,4102 23351,4102 23351,4002 23251,4002 Z"/>
 <path fill="rgb(255,51,51)" stroke="none" d="M 23454,7150 L 23454,7250 23554,7250 23554,7150 23454,7150 Z"/>
 <path fill="none" stroke="rgb(255,51,51)" stroke-linejoin="round" d="M 23454,7150 L 23454,7250 23554,7250 23554,7150 23454,7150 Z"/>
 <text class="TextShape"><tspan class="TextParagraph" font-family="Liberation Sans, sans-serif" font-size="353px" font-weight="400"><tspan class="TextPosition" x="3147" y="13527"><tspan fill="rgb(0,0,0)" stroke="none">0</tspan></tspan></tspan></text>
 <text class="TextShape"><tspan class="TextParagraph" font-family="Liberation Sans, sans-serif" font-size="353px" font-weight="400"><tspan class="TextPosition" x="5028" y="13527"><tspan fill="rgb(0,0,0)" stroke="none">0.1</tspan></tspan></tspan></text>
 <text class="TextShape"><tspan class="TextParagraph" font-family="Liberation Sans, sans-serif" font-size="353px" font-weight="400"><tspan class="TextPosition" x="7055" y="13527"><tspan fill="rgb(0,0,0)" stroke="none">0.2</tspan></tspan></tspan></text>
 <text class="TextShape"><tspan class="TextParagraph" font-family="Liberation Sans, sans-serif" font-size="353px" font-weight="400"><tspan class="TextPosition" x="9081" y="13527"><tspan fill="rgb(0,0,0)" stroke="none">0.3</tspan></tspan></tspan></text>
 <text class="TextShape"><tspan class="TextParagraph" font-family="Liberation Sans, sans-serif" font-size="353px" font-weight="400"><tspan class="TextPosition" x="11108" y="13527"><tspan fill="rgb(0,0,0)" stroke="none">0.4</tspan></tspan></tspan></text>
 <text class="TextShape"><tspan class="TextParagraph" font-family="Liberation Sans, sans-serif" font-size="353px" font-weight="400"><tspan class="TextPosition" x="13134" y="13527"><tspan fill="rgb(0,0,0)" stroke="none">0.5</tspan></tspan></tspan></text>
 <text class="TextShape"><tspan class="TextParagraph" font-family="Liberation Sans, sans-serif" font-size="353px" font-weight="400"><tspan class="TextPosition" x="15161" y="13527"><tspan fill="rgb(0,0,0)" stroke="none">0.6</tspan></tspan></tspan></text>
 <text class="TextShape"><tspan class="TextParagraph" font-family="Liberation Sans, sans-serif" font-size="353px" font-weight="400"><tspan class="TextPosition" x="17187" y="13527"><tspan fill="rgb(0,0,0)" stroke="none">0.7</tspan></tspan></tspan></text>
 <text class="TextShape"><tspan class="TextParagraph" font-family="Liberation Sans, sans-serif" font-size="353px" font-weight="400"><tspan class="TextPosition" x="19214" y="13527"><tspan fill="rgb(0,0,0)" stroke="none">0.8</tspan></tspan></tspan></text>
 <text class="TextShape"><tspan class="TextParagraph" font-family="Liberation Sans, sans-serif" font-size="353px" font-weight="400"><tspan class="TextPosition" x="21240" y="13527"><tspan fill="rgb(0,0,0)" stroke="none">0.9</tspan></tspan></tspan></text>
 <text class="TextShape"><tspan class="TextParagraph" font-family="Liberation Sans, sans-serif" font-size="353px" font-weight="400"><tspan class="TextPosition" x="23412" y="13527"><tspan fill="rgb(0,0,0)" stroke="none">1</tspan></tspan></tspan></text>
 <text class="TextShape"><tspan class="TextParagraph" font-family="Liberation Sans, sans-serif" font-size="353px" font-weight="400"><tspan class="TextPosition" x="2620" y="13080"><tspan fill="rgb(0,0,0)" stroke="none">60</tspan></tspan></tspan></text>
 <text class="TextShape"><tspan class="TextParagraph" font-family="Liberation Sans, sans-serif" font-size="353px" font-weight="400"><tspan class="TextPosition" x="2620" y="11523"><tspan fill="rgb(0,0,0)" stroke="none">65</tspan></tspan></tspan></text>
 <text class="TextShape"><tspan class="TextParagraph" font-family="Liberation Sans, sans-serif" font-size="353px" font-weight="400"><tspan class="TextPosition" x="2620" y="9966"><tspan fill="rgb(0,0,0)" stroke="none">70</tspan></tspan></tspan></text>
 <text class="TextShape"><tspan class="TextParagraph" font-family="Liberation Sans, sans-serif" font-size="353px" font-weight="400"><tspan class="TextPosition" x="2620" y="8409"><tspan fill="rgb(0,0,0)" stroke="none">75</tspan></tspan></tspan></text>
 <text class="TextShape"><tspan class="TextParagraph" font-family="Liberation Sans, sans-serif" font-size="353px" font-weight="400"><tspan class="TextPosition" x="2620" y="6852"><tspan fill="rgb(0,0,0)" stroke="none">80</tspan></tspan></tspan></text>
 <text class="TextShape"><tspan class="TextParagraph" font-family="Liberation Sans, sans-serif" font-size="353px" font-weight="400"><tspan class="TextPosition" x="2620" y="5296"><tspan fill="rgb(0,0,0)" stroke="none">85</tspan></tspan></tspan></text>
 <text class="TextShape"><tspan class="TextParagraph" font-family="Liberation Sans, sans-serif" font-size="353px" font-weight="400"><tspan class="TextPosition" x="2620" y="3739"><tspan fill="rgb(0,0,0)" stroke="none">90</tspan></tspan></tspan></text>
 <text class="TextShape"><tspan class="TextParagraph" font-family="Liberation Sans, sans-serif" font-size="353px" font-weight="400"><tspan class="TextPosition" x="2620" y="2182"><tspan fill="rgb(0,0,0)" stroke="none">95</tspan></tspan></tspan></text>
 <text class="TextShape"><tspan class="TextParagraph" font-family="Liberation Sans, sans-serif" font-size="353px" font-weight="400"><tspan class="TextPosition" x="2434" y="625"><tspan fill="rgb(0,0,0)" stroke="none">100</tspan></tspan></tspan></text>
 <path fill="none" stroke="rgb(255,51,51)" stroke-width="80" stroke-linejoin="round" d="M 24489,7440 L 25289,7440"/>
 <path fill="rgb(255,51,51)" stroke="none" d="M 24762,7313 L 24762,7567 25016,7567 25016,7313 24762,7313 Z"/>
 <path fill="none" stroke="rgb(255,51,51)" stroke-linejoin="round" d="M 24762,7313 L 24762,7567 25016,7567 25016,7313 24762,7313 Z"/>
 <path fill="none" stroke="rgb(153,255,102)" stroke-width="80" stroke-linejoin="round" d="M 24489,7990 L 25289,7990"/>
 <path fill="rgb(153,255,102)" stroke="none" d="M 24762,7863 L 24762,8117 25016,8117 25016,7863 24762,7863 Z"/>
 <path fill="none" stroke="rgb(153,255,102)" stroke-linejoin="round" d="M 24762,7863 L 24762,8117 25016,8117 25016,7863 24762,7863 Z"/>
 <text class="TextShape"><tspan class="TextParagraph" font-family="Liberation Sans, sans-serif" font-size="423px" font-weight="400"><tspan class="TextPosition" x="25389" y="7585"><tspan fill="rgb(0,0,0)" stroke="none">valeur_maximum</tspan></tspan></tspan></text>
 <text class="TextShape"><tspan class="TextParagraph" font-family="Liberation Sans, sans-serif" font-size="423px" font-weight="400"><tspan class="TextPosition" x="25389" y="8135"><tspan fill="rgb(0,0,0)" stroke="none">valeur_moyenne</tspan></tspan></tspan></text>
 <text class="TextShape"><tspan class="TextParagraph" font-family="Liberation Sans, sans-serif" font-size="635px" font-weight="400"><tspan class="TextPosition" x="9418" y="14689"><tspan fill="rgb(0,0,0)" stroke="none">probabilit d&apos;aller tout droit</tspan></tspan></tspan></text>
 <text class="TextShape" transform="translate(1730,7367) rotate(-90) translate(-1730,-7367)"><tspan class="TextParagraph" font-family="Liberation Sans, sans-serif" font-size="635px" font-weight="400"><tspan class="TextPosition" x="1730" y="7367"><tspan fill="rgb(0,0,0)" stroke="none">IGI</tspan></tspan></tspan></text>
</svg>