<?xml version="1.0" encoding="UTF-8"?>
<!DOCTYPE svg PUBLIC "-//W3C//DTD SVG 1.1//EN" "http://www.w3.org/Graphics/SVG/1.1/DTD/svg11.dtd">
<svg width="241mm" height="134mm" viewBox="0 0 24100 13400" version="1.1" xmlns="http://www.w3.org/2000/svg" stroke-width="28.222" stroke-linejoin="round" xml:space="preserve">
 <path fill="rgb(255,255,255)" stroke="none" d="M 12072,13388 L 11,13388 11,0 24133,0 24133,13388 12072,13388 Z"/>
 <path fill="none" stroke="rgb(179,179,179)" stroke-linejoin="round" d="M 10936,10690 L 3405,10690 3405,491 18467,491 18467,10690 10936,10690 Z"/>
 <path fill="none" stroke="rgb(179,179,179)" stroke-linejoin="round" d="M 18466,10689 L 3405,10689"/>
 <path fill="none" stroke="rgb(179,179,179)" stroke-linejoin="round" d="M 18466,8989 L 3405,8989"/>
 <path fill="none" stroke="rgb(179,179,179)" stroke-linejoin="round" d="M 18466,7289 L 3405,7289"/>
 <path fill="none" stroke="rgb(179,179,179)" stroke-linejoin="round" d="M 18466,5589 L 3405,5589"/>
 <path fill="none" stroke="rgb(179,179,179)" stroke-linejoin="round" d="M 18466,3889 L 3405,3889"/>
 <path fill="none" stroke="rgb(179,179,179)" stroke-linejoin="round" d="M 18466,2190 L 3405,2190"/>
 <path fill="none" stroke="rgb(179,179,179)" stroke-linejoin="round" d="M 18466,489 L 3405,489"/>
 <path fill="none" stroke="rgb(179,179,179)" stroke-linejoin="round" d="M 3405,10839 L 3405,10689"/>
 <path fill="none" stroke="rgb(179,179,179)" stroke-linejoin="round" d="M 3405,10839 L 3405,10689"/>
 <path fill="none" stroke="rgb(179,179,179)" stroke-linejoin="round" d="M 5078,10839 L 5078,10689"/>
 <path fill="none" stroke="rgb(179,179,179)" stroke-linejoin="round" d="M 5078,10839 L 5078,10689"/>
 <path fill="none" stroke="rgb(179,179,179)" stroke-linejoin="round" d="M 6752,10839 L 6752,10689"/>
 <path fill="none" stroke="rgb(179,179,179)" stroke-linejoin="round" d="M 6752,10839 L 6752,10689"/>
 <path fill="none" stroke="rgb(179,179,179)" stroke-linejoin="round" d="M 8425,10839 L 8425,10689"/>
 <path fill="none" stroke="rgb(179,179,179)" stroke-linejoin="round" d="M 8425,10839 L 8425,10689"/>
 <path fill="none" stroke="rgb(179,179,179)" stroke-linejoin="round" d="M 10099,10839 L 10099,10689"/>
 <path fill="none" stroke="rgb(179,179,179)" stroke-linejoin="round" d="M 10099,10839 L 10099,10689"/>
 <path fill="none" stroke="rgb(179,179,179)" stroke-linejoin="round" d="M 11773,10839 L 11773,10689"/>
 <path fill="none" stroke="rgb(179,179,179)" stroke-linejoin="round" d="M 11773,10839 L 11773,10689"/>
 <path fill="none" stroke="rgb(179,179,179)" stroke-linejoin="round" d="M 13445,10839 L 13445,10689"/>
 <path fill="none" stroke="rgb(179,179,179)" stroke-linejoin="round" d="M 13445,10839 L 13445,10689"/>
 <path fill="none" stroke="rgb(179,179,179)" stroke-linejoin="round" d="M 15119,10839 L 15119,10689"/>
 <path fill="none" stroke="rgb(179,179,179)" stroke-linejoin="round" d="M 15119,10839 L 15119,10689"/>
 <path fill="none" stroke="rgb(179,179,179)" stroke-linejoin="round" d="M 16793,10839 L 16793,10689"/>
 <path fill="none" stroke="rgb(179,179,179)" stroke-linejoin="round" d="M 16793,10839 L 16793,10689"/>
 <path fill="none" stroke="rgb(179,179,179)" stroke-linejoin="round" d="M 18466,10839 L 18466,10689"/>
 <path fill="none" stroke="rgb(179,179,179)" stroke-linejoin="round" d="M 18466,10839 L 18466,10689"/>
 <path fill="none" stroke="rgb(179,179,179)" stroke-linejoin="round" d="M 3405,10689 L 18466,10689"/>
 <path fill="none" stroke="rgb(179,179,179)" stroke-linejoin="round" d="M 3255,10689 L 3405,10689"/>
 <path fill="none" stroke="rgb(179,179,179)" stroke-linejoin="round" d="M 3255,10689 L 3405,10689"/>
 <path fill="none" stroke="rgb(179,179,179)" stroke-linejoin="round" d="M 3255,8989 L 3405,8989"/>
 <path fill="none" stroke="rgb(179,179,179)" stroke-linejoin="round" d="M 3255,8989 L 3405,8989"/>
 <path fill="none" stroke="rgb(179,179,179)" stroke-linejoin="round" d="M 3255,7289 L 3405,7289"/>
 <path fill="none" stroke="rgb(179,179,179)" stroke-linejoin="round" d="M 3255,7289 L 3405,7289"/>
 <path fill="none" stroke="rgb(179,179,179)" stroke-linejoin="round" d="M 3255,5589 L 3405,5589"/>
 <path fill="none" stroke="rgb(179,179,179)" stroke-linejoin="round" d="M 3255,5589 L 3405,5589"/>
 <path fill="none" stroke="rgb(179,179,179)" stroke-linejoin="round" d="M 3255,3889 L 3405,3889"/>
 <path fill="none" stroke="rgb(179,179,179)" stroke-linejoin="round" d="M 3255,3889 L 3405,3889"/>
 <path fill="none" stroke="rgb(179,179,179)" stroke-linejoin="round" d="M 3255,2190 L 3405,2190"/>
 <path fill="none" stroke="rgb(179,179,179)" stroke-linejoin="round" d="M 3255,2190 L 3405,2190"/>
 <path fill="none" stroke="rgb(179,179,179)" stroke-linejoin="round" d="M 3255,489 L 3405,489"/>
 <path fill="none" stroke="rgb(179,179,179)" stroke-linejoin="round" d="M 3255,489 L 3405,489"/>
 <path fill="none" stroke="rgb(179,179,179)" stroke-linejoin="round" d="M 3405,10689 L 3405,489"/>
 <path fill="none" stroke="rgb(255,51,51)" stroke-width="80" stroke-linejoin="round" d="M 3405,8392 L 5078,9968 6752,10303 8426,10352 10099,10396 11773,10470 13446,10499 15119,10500 16793,10554 18466,10534"/>
 <path fill="rgb(255,51,51)" stroke="none" d="M 3355,8342 L 3355,8442 3455,8442 3455,8342 3355,8342 Z"/>
 <path fill="none" stroke="rgb(255,51,51)" stroke-linejoin="round" d="M 3355,8342 L 3355,8442 3455,8442 3455,8342 3355,8342 Z"/>
 <path fill="rgb(255,51,51)" stroke="none" d="M 5028,9918 L 5028,10018 5128,10018 5128,9918 5028,9918 Z"/>
 <path fill="none" stroke="rgb(255,51,51)" stroke-linejoin="round" d="M 5028,9918 L 5028,10018 5128,10018 5128,9918 5028,9918 Z"/>
 <path fill="rgb(255,51,51)" stroke="none" d="M 6702,10253 L 6702,10353 6802,10353 6802,10253 6702,10253 Z"/>
 <path fill="none" stroke="rgb(255,51,51)" stroke-linejoin="round" d="M 6702,10253 L 6702,10353 6802,10353 6802,10253 6702,10253 Z"/>
 <path fill="rgb(255,51,51)" stroke="none" d="M 8376,10302 L 8376,10402 8476,10402 8476,10302 8376,10302 Z"/>
 <path fill="none" stroke="rgb(255,51,51)" stroke-linejoin="round" d="M 8376,10302 L 8376,10402 8476,10402 8476,10302 8376,10302 Z"/>
 <path fill="rgb(255,51,51)" stroke="none" d="M 10049,10346 L 10049,10446 10149,10446 10149,10346 10049,10346 Z"/>
 <path fill="none" stroke="rgb(255,51,51)" stroke-linejoin="round" d="M 10049,10346 L 10049,10446 10149,10446 10149,10346 10049,10346 Z"/>
 <path fill="rgb(255,51,51)" stroke="none" d="M 11723,10420 L 11723,10520 11823,10520 11823,10420 11723,10420 Z"/>
 <path fill="none" stroke="rgb(255,51,51)" stroke-linejoin="round" d="M 11723,10420 L 11723,10520 11823,10520 11823,10420 11723,10420 Z"/>
 <path fill="rgb(255,51,51)" stroke="none" d="M 13396,10449 L 13396,10549 13496,10549 13496,10449 13396,10449 Z"/>
 <path fill="none" stroke="rgb(255,51,51)" stroke-linejoin="round" d="M 13396,10449 L 13396,10549 13496,10549 13496,10449 13396,10449 Z"/>
 <path fill="rgb(255,51,51)" stroke="none" d="M 15069,10450 L 15069,10550 15169,10550 15169,10450 15069,10450 Z"/>
 <path fill="none" stroke="rgb(255,51,51)" stroke-linejoin="round" d="M 15069,10450 L 15069,10550 15169,10550 15169,10450 15069,10450 Z"/>
 <path fill="rgb(255,51,51)" stroke="none" d="M 16743,10504 L 16743,10604 16843,10604 16843,10504 16743,10504 Z"/>
 <path fill="none" stroke="rgb(255,51,51)" stroke-linejoin="round" d="M 16743,10504 L 16743,10604 16843,10604 16843,10504 16743,10504 Z"/>
 <path fill="rgb(255,51,51)" stroke="none" d="M 18416,10484 L 18416,10584 18516,10584 18516,10484 18416,10484 Z"/>
 <path fill="none" stroke="rgb(255,51,51)" stroke-linejoin="round" d="M 18416,10484 L 18416,10584 18516,10584 18516,10484 18416,10484 Z"/>
 <path fill="none" stroke="rgb(102,102,255)" stroke-width="80" stroke-linejoin="round" d="M 3405,551 L 5078,7357 6752,9325 8426,9339 10099,8836 11773,9964 13446,10240 15119,10182 16793,10294 18466,10342"/>
 <path fill="rgb(102,102,255)" stroke="none" d="M 3355,501 L 3355,601 3455,601 3455,501 3355,501 Z"/>
 <path fill="none" stroke="rgb(102,102,255)" stroke-linejoin="round" d="M 3355,501 L 3355,601 3455,601 3455,501 3355,501 Z"/>
 <path fill="rgb(102,102,255)" stroke="none" d="M 5028,7307 L 5028,7407 5128,7407 5128,7307 5028,7307 Z"/>
 <path fill="none" stroke="rgb(102,102,255)" stroke-linejoin="round" d="M 5028,7307 L 5028,7407 5128,7407 5128,7307 5028,7307 Z"/>
 <path fill="rgb(102,102,255)" stroke="none" d="M 6702,9275 L 6702,9375 6802,9375 6802,9275 6702,9275 Z"/>
 <path fill="none" stroke="rgb(102,102,255)" stroke-linejoin="round" d="M 6702,9275 L 6702,9375 6802,9375 6802,9275 6702,9275 Z"/>
 <path fill="rgb(102,102,255)" stroke="none" d="M 8376,9289 L 8376,9389 8476,9389 8476,9289 8376,9289 Z"/>
 <path fill="none" stroke="rgb(102,102,255)" stroke-linejoin="round" d="M 8376,9289 L 8376,9389 8476,9389 8476,9289 8376,9289 Z"/>
 <path fill="rgb(102,102,255)" stroke="none" d="M 10049,8786 L 10049,8886 10149,8886 10149,8786 10049,8786 Z"/>
 <path fill="none" stroke="rgb(102,102,255)" stroke-linejoin="round" d="M 10049,8786 L 10049,8886 10149,8886 10149,8786 10049,8786 Z"/>
 <path fill="rgb(102,102,255)" stroke="none" d="M 11723,9914 L 11723,10014 11823,10014 11823,9914 11723,9914 Z"/>
 <path fill="none" stroke="rgb(102,102,255)" stroke-linejoin="round" d="M 11723,9914 L 11723,10014 11823,10014 11823,9914 11723,9914 Z"/>
 <path fill="rgb(102,102,255)" stroke="none" d="M 13396,10190 L 13396,10290 13496,10290 13496,10190 13396,10190 Z"/>
 <path fill="none" stroke="rgb(102,102,255)" stroke-linejoin="round" d="M 13396,10190 L 13396,10290 13496,10290 13496,10190 13396,10190 Z"/>
 <path fill="rgb(102,102,255)" stroke="none" d="M 15069,10132 L 15069,10232 15169,10232 15169,10132 15069,10132 Z"/>
 <path fill="none" stroke="rgb(102,102,255)" stroke-linejoin="round" d="M 15069,10132 L 15069,10232 15169,10232 15169,10132 15069,10132 Z"/>
 <path fill="rgb(102,102,255)" stroke="none" d="M 16743,10244 L 16743,10344 16843,10344 16843,10244 16743,10244 Z"/>
 <path fill="none" stroke="rgb(102,102,255)" stroke-linejoin="round" d="M 16743,10244 L 16743,10344 16843,10344 16843,10244 16743,10244 Z"/>
 <path fill="rgb(102,102,255)" stroke="none" d="M 18416,10292 L 18416,10392 18516,10392 18516,10292 18416,10292 Z"/>
 <path fill="none" stroke="rgb(102,102,255)" stroke-linejoin="round" d="M 18416,10292 L 18416,10392 18516,10392 18516,10292 18416,10292 Z"/>
 <text class="TextShape"><tspan class="TextParagraph" font-family="Liberation Sans, sans-serif" font-size="353px" font-weight="400"><tspan class="TextPosition" x="3312" y="11257"><tspan fill="rgb(0,0,0)" stroke="none">1</tspan></tspan></tspan></text>
 <text class="TextShape"><tspan class="TextParagraph" font-family="Liberation Sans, sans-serif" font-size="353px" font-weight="400"><tspan class="TextPosition" x="4985" y="11257"><tspan fill="rgb(0,0,0)" stroke="none">2</tspan></tspan></tspan></text>
 <text class="TextShape"><tspan class="TextParagraph" font-family="Liberation Sans, sans-serif" font-size="353px" font-weight="400"><tspan class="TextPosition" x="6659" y="11257"><tspan fill="rgb(0,0,0)" stroke="none">3</tspan></tspan></tspan></text>
 <text class="TextShape"><tspan class="TextParagraph" font-family="Liberation Sans, sans-serif" font-size="353px" font-weight="400"><tspan class="TextPosition" x="8332" y="11257"><tspan fill="rgb(0,0,0)" stroke="none">4</tspan></tspan></tspan></text>
 <text class="TextShape"><tspan class="TextParagraph" font-family="Liberation Sans, sans-serif" font-size="353px" font-weight="400"><tspan class="TextPosition" x="10006" y="11257"><tspan fill="rgb(0,0,0)" stroke="none">5</tspan></tspan></tspan></text>
 <text class="TextShape"><tspan class="TextParagraph" font-family="Liberation Sans, sans-serif" font-size="353px" font-weight="400"><tspan class="TextPosition" x="11680" y="11257"><tspan fill="rgb(0,0,0)" stroke="none">6</tspan></tspan></tspan></text>
 <text class="TextShape"><tspan class="TextParagraph" font-family="Liberation Sans, sans-serif" font-size="353px" font-weight="400"><tspan class="TextPosition" x="13353" y="11257"><tspan fill="rgb(0,0,0)" stroke="none">7</tspan></tspan></tspan></text>
 <text class="TextShape"><tspan class="TextParagraph" font-family="Liberation Sans, sans-serif" font-size="353px" font-weight="400"><tspan class="TextPosition" x="15027" y="11257"><tspan fill="rgb(0,0,0)" stroke="none">8</tspan></tspan></tspan></text>
 <text class="TextShape"><tspan class="TextParagraph" font-family="Liberation Sans, sans-serif" font-size="353px" font-weight="400"><tspan class="TextPosition" x="16701" y="11257"><tspan fill="rgb(0,0,0)" stroke="none">9</tspan></tspan></tspan></text>
 <text class="TextShape"><tspan class="TextParagraph" font-family="Liberation Sans, sans-serif" font-size="353px" font-weight="400"><tspan class="TextPosition" x="18282" y="11257"><tspan fill="rgb(0,0,0)" stroke="none">10</tspan></tspan></tspan></text>
 <text class="TextShape"><tspan class="TextParagraph" font-family="Liberation Sans, sans-serif" font-size="353px" font-weight="400"><tspan class="TextPosition" x="2970" y="10810"><tspan fill="rgb(0,0,0)" stroke="none">0</tspan></tspan></tspan></text>
 <text class="TextShape"><tspan class="TextParagraph" font-family="Liberation Sans, sans-serif" font-size="353px" font-weight="400"><tspan class="TextPosition" x="2599" y="9110"><tspan fill="rgb(0,0,0)" stroke="none">500</tspan></tspan></tspan></text>
 <text class="TextShape"><tspan class="TextParagraph" font-family="Liberation Sans, sans-serif" font-size="353px" font-weight="400"><tspan class="TextPosition" x="2414" y="7410"><tspan fill="rgb(0,0,0)" stroke="none">1000</tspan></tspan></tspan></text>
 <text class="TextShape"><tspan class="TextParagraph" font-family="Liberation Sans, sans-serif" font-size="353px" font-weight="400"><tspan class="TextPosition" x="2414" y="5709"><tspan fill="rgb(0,0,0)" stroke="none">1500</tspan></tspan></tspan></text>
 <text class="TextShape"><tspan class="TextParagraph" font-family="Liberation Sans, sans-serif" font-size="353px" font-weight="400"><tspan class="TextPosition" x="2414" y="4009"><tspan fill="rgb(0,0,0)" stroke="none">2000</tspan></tspan></tspan></text>
 <text class="TextShape"><tspan class="TextParagraph" font-family="Liberation Sans, sans-serif" font-size="353px" font-weight="400"><tspan class="TextPosition" x="2414" y="2310"><tspan fill="rgb(0,0,0)" stroke="none">2500</tspan></tspan></tspan></text>
 <text class="TextShape"><tspan class="TextParagraph" font-family="Liberation Sans, sans-serif" font-size="353px" font-weight="400"><tspan class="TextPosition" x="2414" y="609"><tspan fill="rgb(0,0,0)" stroke="none">3000</tspan></tspan></tspan></text>
 <path fill="none" stroke="rgb(102,102,255)" stroke-width="80" stroke-linejoin="round" d="M 19786,6418 L 20586,6418"/>
 <path fill="rgb(102,102,255)" stroke="none" d="M 20059,6291 L 20059,6545 20313,6545 20313,6291 20059,6291 Z"/>
 <path fill="none" stroke="rgb(102,102,255)" stroke-linejoin="round" d="M 20059,6291 L 20059,6545 20313,6545 20313,6291 20059,6291 Z"/>
 <path fill="none" stroke="rgb(255,51,51)" stroke-width="80" stroke-linejoin="round" d="M 19786,6968 L 20586,6968"/>
 <path fill="rgb(255,51,51)" stroke="none" d="M 20059,6841 L 20059,7095 20313,7095 20313,6841 20059,6841 Z"/>
 <path fill="none" stroke="rgb(255,51,51)" stroke-linejoin="round" d="M 20059,6841 L 20059,7095 20313,7095 20313,6841 20059,6841 Z"/>
 <text class="TextShape"><tspan class="TextParagraph" font-family="Liberation Sans, sans-serif" font-size="423px" font-weight="400"><tspan class="TextPosition" x="20686" y="6563"><tspan fill="rgb(0,0,0)" stroke="none">valeur_maximum</tspan></tspan></tspan></text>
 <text class="TextShape"><tspan class="TextParagraph" font-family="Liberation Sans, sans-serif" font-size="423px" font-weight="400"><tspan class="TextPosition" x="20686" y="7113"><tspan fill="rgb(0,0,0)" stroke="none">valeur_moyenne</tspan></tspan></tspan></text>
 <text class="TextShape"><tspan class="TextParagraph" font-family="Liberation Sans, sans-serif" font-size="635px" font-weight="400"><tspan class="TextPosition" x="8099" y="12378"><tspan fill="rgb(0,0,0)" stroke="none">Nombre d&apos;agents</tspan></tspan></tspan></text>
 <text class="TextShape" transform="translate(1608,6276) rotate(-90) translate(-1608,-6276)"><tspan class="TextParagraph" font-family="Liberation Sans, sans-serif" font-size="635px" font-weight="400"><tspan class="TextPosition" x="1608" y="6276"><tspan fill="rgb(0,0,0)" stroke="none">IWI</tspan></tspan></tspan></text>
</svg>