<?xml version="1.0" encoding="UTF-8"?>
<!DOCTYPE svg PUBLIC "-//W3C//DTD SVG 1.1//EN" "http://www.w3.org/Graphics/SVG/1.1/DTD/svg11.dtd">
<svg width="222mm" height="117mm" viewBox="0 0 22200 11700" version="1.1" xmlns="http://www.w3.org/2000/svg" stroke-width="28.222" stroke-linejoin="round" xml:space="preserve">
 <path fill="rgb(255,255,255)" stroke="none" d="M 11109,11661 L 0,11661 0,0 22217,0 22217,11661 11109,11661 Z"/>
 <path fill="none" stroke="rgb(179,179,179)" stroke-linejoin="round" d="M 9857,9264 L 2798,9264 2798,432 16915,432 16915,9264 9857,9264 Z"/>
 <path fill="none" stroke="rgb(179,179,179)" stroke-linejoin="round" d="M 16914,9263 L 2798,9263"/>
 <path fill="none" stroke="rgb(179,179,179)" stroke-linejoin="round" d="M 16914,7790 L 2798,7790"/>
 <path fill="none" stroke="rgb(179,179,179)" stroke-linejoin="round" d="M 16914,6318 L 2798,6318"/>
 <path fill="none" stroke="rgb(179,179,179)" stroke-linejoin="round" d="M 16914,4847 L 2798,4847"/>
 <path fill="none" stroke="rgb(179,179,179)" stroke-linejoin="round" d="M 16914,3375 L 2798,3375"/>
 <path fill="none" stroke="rgb(179,179,179)" stroke-linejoin="round" d="M 16914,1903 L 2798,1903"/>
 <path fill="none" stroke="rgb(179,179,179)" stroke-linejoin="round" d="M 16914,431 L 2798,431"/>
 <path fill="none" stroke="rgb(179,179,179)" stroke-linejoin="round" d="M 2798,9413 L 2798,9263"/>
 <path fill="none" stroke="rgb(179,179,179)" stroke-linejoin="round" d="M 2798,9413 L 2798,9263"/>
 <path fill="none" stroke="rgb(179,179,179)" stroke-linejoin="round" d="M 4366,9413 L 4366,9263"/>
 <path fill="none" stroke="rgb(179,179,179)" stroke-linejoin="round" d="M 4366,9413 L 4366,9263"/>
 <path fill="none" stroke="rgb(179,179,179)" stroke-linejoin="round" d="M 5935,9413 L 5935,9263"/>
 <path fill="none" stroke="rgb(179,179,179)" stroke-linejoin="round" d="M 5935,9413 L 5935,9263"/>
 <path fill="none" stroke="rgb(179,179,179)" stroke-linejoin="round" d="M 7503,9413 L 7503,9263"/>
 <path fill="none" stroke="rgb(179,179,179)" stroke-linejoin="round" d="M 7503,9413 L 7503,9263"/>
 <path fill="none" stroke="rgb(179,179,179)" stroke-linejoin="round" d="M 9072,9413 L 9072,9263"/>
 <path fill="none" stroke="rgb(179,179,179)" stroke-linejoin="round" d="M 9072,9413 L 9072,9263"/>
 <path fill="none" stroke="rgb(179,179,179)" stroke-linejoin="round" d="M 10641,9413 L 10641,9263"/>
 <path fill="none" stroke="rgb(179,179,179)" stroke-linejoin="round" d="M 10641,9413 L 10641,9263"/>
 <path fill="none" stroke="rgb(179,179,179)" stroke-linejoin="round" d="M 12208,9413 L 12208,9263"/>
 <path fill="none" stroke="rgb(179,179,179)" stroke-linejoin="round" d="M 12208,9413 L 12208,9263"/>
 <path fill="none" stroke="rgb(179,179,179)" stroke-linejoin="round" d="M 13777,9413 L 13777,9263"/>
 <path fill="none" stroke="rgb(179,179,179)" stroke-linejoin="round" d="M 13777,9413 L 13777,9263"/>
 <path fill="none" stroke="rgb(179,179,179)" stroke-linejoin="round" d="M 15346,9413 L 15346,9263"/>
 <path fill="none" stroke="rgb(179,179,179)" stroke-linejoin="round" d="M 15346,9413 L 15346,9263"/>
 <path fill="none" stroke="rgb(179,179,179)" stroke-linejoin="round" d="M 16914,9413 L 16914,9263"/>
 <path fill="none" stroke="rgb(179,179,179)" stroke-linejoin="round" d="M 16914,9413 L 16914,9263"/>
 <path fill="none" stroke="rgb(179,179,179)" stroke-linejoin="round" d="M 2798,9263 L 16914,9263"/>
 <path fill="none" stroke="rgb(179,179,179)" stroke-linejoin="round" d="M 2648,9263 L 2798,9263"/>
 <path fill="none" stroke="rgb(179,179,179)" stroke-linejoin="round" d="M 2648,9263 L 2798,9263"/>
 <path fill="none" stroke="rgb(179,179,179)" stroke-linejoin="round" d="M 2648,7790 L 2798,7790"/>
 <path fill="none" stroke="rgb(179,179,179)" stroke-linejoin="round" d="M 2648,7790 L 2798,7790"/>
 <path fill="none" stroke="rgb(179,179,179)" stroke-linejoin="round" d="M 2648,6318 L 2798,6318"/>
 <path fill="none" stroke="rgb(179,179,179)" stroke-linejoin="round" d="M 2648,6318 L 2798,6318"/>
 <path fill="none" stroke="rgb(179,179,179)" stroke-linejoin="round" d="M 2648,4847 L 2798,4847"/>
 <path fill="none" stroke="rgb(179,179,179)" stroke-linejoin="round" d="M 2648,4847 L 2798,4847"/>
 <path fill="none" stroke="rgb(179,179,179)" stroke-linejoin="round" d="M 2648,3375 L 2798,3375"/>
 <path fill="none" stroke="rgb(179,179,179)" stroke-linejoin="round" d="M 2648,3375 L 2798,3375"/>
 <path fill="none" stroke="rgb(179,179,179)" stroke-linejoin="round" d="M 2648,1903 L 2798,1903"/>
 <path fill="none" stroke="rgb(179,179,179)" stroke-linejoin="round" d="M 2648,1903 L 2798,1903"/>
 <path fill="none" stroke="rgb(179,179,179)" stroke-linejoin="round" d="M 2648,431 L 2798,431"/>
 <path fill="none" stroke="rgb(179,179,179)" stroke-linejoin="round" d="M 2648,431 L 2798,431"/>
 <path fill="none" stroke="rgb(179,179,179)" stroke-linejoin="round" d="M 2798,9263 L 2798,431"/>
 <path fill="none" stroke="rgb(255,51,51)" stroke-width="80" stroke-linejoin="round" d="M 2798,5921 L 4366,6591 5935,7220 7504,7767 9072,8025 10641,8234 12209,8295 13777,8489 15346,8546 16914,8623"/>
 <path fill="rgb(255,51,51)" stroke="none" d="M 2748,5871 L 2748,5971 2848,5971 2848,5871 2748,5871 Z"/>
 <path fill="none" stroke="rgb(255,51,51)" stroke-linejoin="round" d="M 2748,5871 L 2748,5971 2848,5971 2848,5871 2748,5871 Z"/>
 <path fill="rgb(255,51,51)" stroke="none" d="M 4316,6541 L 4316,6641 4416,6641 4416,6541 4316,6541 Z"/>
 <path fill="none" stroke="rgb(255,51,51)" stroke-linejoin="round" d="M 4316,6541 L 4316,6641 4416,6641 4416,6541 4316,6541 Z"/>
 <path fill="rgb(255,51,51)" stroke="none" d="M 5885,7170 L 5885,7270 5985,7270 5985,7170 5885,7170 Z"/>
 <path fill="none" stroke="rgb(255,51,51)" stroke-linejoin="round" d="M 5885,7170 L 5885,7270 5985,7270 5985,7170 5885,7170 Z"/>
 <path fill="rgb(255,51,51)" stroke="none" d="M 7454,7717 L 7454,7817 7554,7817 7554,7717 7454,7717 Z"/>
 <path fill="none" stroke="rgb(255,51,51)" stroke-linejoin="round" d="M 7454,7717 L 7454,7817 7554,7817 7554,7717 7454,7717 Z"/>
 <path fill="rgb(255,51,51)" stroke="none" d="M 9022,7975 L 9022,8075 9122,8075 9122,7975 9022,7975 Z"/>
 <path fill="none" stroke="rgb(255,51,51)" stroke-linejoin="round" d="M 9022,7975 L 9022,8075 9122,8075 9122,7975 9022,7975 Z"/>
 <path fill="rgb(255,51,51)" stroke="none" d="M 10591,8184 L 10591,8284 10691,8284 10691,8184 10591,8184 Z"/>
 <path fill="none" stroke="rgb(255,51,51)" stroke-linejoin="round" d="M 10591,8184 L 10591,8284 10691,8284 10691,8184 10591,8184 Z"/>
 <path fill="rgb(255,51,51)" stroke="none" d="M 12159,8245 L 12159,8345 12259,8345 12259,8245 12159,8245 Z"/>
 <path fill="none" stroke="rgb(255,51,51)" stroke-linejoin="round" d="M 12159,8245 L 12159,8345 12259,8345 12259,8245 12159,8245 Z"/>
 <path fill="rgb(255,51,51)" stroke="none" d="M 13727,8439 L 13727,8539 13827,8539 13827,8439 13727,8439 Z"/>
 <path fill="none" stroke="rgb(255,51,51)" stroke-linejoin="round" d="M 13727,8439 L 13727,8539 13827,8539 13827,8439 13727,8439 Z"/>
 <path fill="rgb(255,51,51)" stroke="none" d="M 15296,8496 L 15296,8596 15396,8596 15396,8496 15296,8496 Z"/>
 <path fill="none" stroke="rgb(255,51,51)" stroke-linejoin="round" d="M 15296,8496 L 15296,8596 15396,8596 15396,8496 15296,8496 Z"/>
 <path fill="rgb(255,51,51)" stroke="none" d="M 16864,8573 L 16864,8673 16964,8673 16964,8573 16864,8573 Z"/>
 <path fill="none" stroke="rgb(255,51,51)" stroke-linejoin="round" d="M 16864,8573 L 16864,8673 16964,8673 16964,8573 16864,8573 Z"/>
 <path fill="none" stroke="rgb(102,102,255)" stroke-width="80" stroke-linejoin="round" d="M 2798,534 L 4366,1888 5935,4832 7504,5671 9072,5392 10641,6730 12209,5730 13777,6995 15346,7717 16914,7555"/>
 <path fill="rgb(102,102,255)" stroke="none" d="M 2748,484 L 2748,584 2848,584 2848,484 2748,484 Z"/>
 <path fill="none" stroke="rgb(102,102,255)" stroke-linejoin="round" d="M 2748,484 L 2748,584 2848,584 2848,484 2748,484 Z"/>
 <path fill="rgb(102,102,255)" stroke="none" d="M 4316,1838 L 4316,1938 4416,1938 4416,1838 4316,1838 Z"/>
 <path fill="none" stroke="rgb(102,102,255)" stroke-linejoin="round" d="M 4316,1838 L 4316,1938 4416,1938 4416,1838 4316,1838 Z"/>
 <path fill="rgb(102,102,255)" stroke="none" d="M 5885,4782 L 5885,4882 5985,4882 5985,4782 5885,4782 Z"/>
 <path fill="none" stroke="rgb(102,102,255)" stroke-linejoin="round" d="M 5885,4782 L 5885,4882 5985,4882 5985,4782 5885,4782 Z"/>
 <path fill="rgb(102,102,255)" stroke="none" d="M 7454,5621 L 7454,5721 7554,5721 7554,5621 7454,5621 Z"/>
 <path fill="none" stroke="rgb(102,102,255)" stroke-linejoin="round" d="M 7454,5621 L 7454,5721 7554,5721 7554,5621 7454,5621 Z"/>
 <path fill="rgb(102,102,255)" stroke="none" d="M 9022,5342 L 9022,5442 9122,5442 9122,5342 9022,5342 Z"/>
 <path fill="none" stroke="rgb(102,102,255)" stroke-linejoin="round" d="M 9022,5342 L 9022,5442 9122,5442 9122,5342 9022,5342 Z"/>
 <path fill="rgb(102,102,255)" stroke="none" d="M 10591,6680 L 10591,6780 10691,6780 10691,6680 10591,6680 Z"/>
 <path fill="none" stroke="rgb(102,102,255)" stroke-linejoin="round" d="M 10591,6680 L 10591,6780 10691,6780 10691,6680 10591,6680 Z"/>
 <path fill="rgb(102,102,255)" stroke="none" d="M 12159,5680 L 12159,5780 12259,5780 12259,5680 12159,5680 Z"/>
 <path fill="none" stroke="rgb(102,102,255)" stroke-linejoin="round" d="M 12159,5680 L 12159,5780 12259,5780 12259,5680 12159,5680 Z"/>
 <path fill="rgb(102,102,255)" stroke="none" d="M 13727,6945 L 13727,7045 13827,7045 13827,6945 13727,6945 Z"/>
 <path fill="none" stroke="rgb(102,102,255)" stroke-linejoin="round" d="M 13727,6945 L 13727,7045 13827,7045 13827,6945 13727,6945 Z"/>
 <path fill="rgb(102,102,255)" stroke="none" d="M 15296,7667 L 15296,7767 15396,7767 15396,7667 15296,7667 Z"/>
 <path fill="none" stroke="rgb(102,102,255)" stroke-linejoin="round" d="M 15296,7667 L 15296,7767 15396,7767 15396,7667 15296,7667 Z"/>
 <path fill="rgb(102,102,255)" stroke="none" d="M 16864,7505 L 16864,7605 16964,7605 16964,7505 16864,7505 Z"/>
 <path fill="none" stroke="rgb(102,102,255)" stroke-linejoin="round" d="M 16864,7505 L 16864,7605 16964,7605 16964,7505 16864,7505 Z"/>
 <text class="TextShape"><tspan class="TextParagraph" font-family="Liberation Sans, sans-serif" font-size="353px" font-weight="400"><tspan class="TextPosition" x="2705" y="9831"><tspan fill="rgb(0,0,0)" stroke="none">1</tspan></tspan></tspan></text>
 <text class="TextShape"><tspan class="TextParagraph" font-family="Liberation Sans, sans-serif" font-size="353px" font-weight="400"><tspan class="TextPosition" x="4273" y="9831"><tspan fill="rgb(0,0,0)" stroke="none">2</tspan></tspan></tspan></text>
 <text class="TextShape"><tspan class="TextParagraph" font-family="Liberation Sans, sans-serif" font-size="353px" font-weight="400"><tspan class="TextPosition" x="5842" y="9831"><tspan fill="rgb(0,0,0)" stroke="none">3</tspan></tspan></tspan></text>
 <text class="TextShape"><tspan class="TextParagraph" font-family="Liberation Sans, sans-serif" font-size="353px" font-weight="400"><tspan class="TextPosition" x="7410" y="9831"><tspan fill="rgb(0,0,0)" stroke="none">4</tspan></tspan></tspan></text>
 <text class="TextShape"><tspan class="TextParagraph" font-family="Liberation Sans, sans-serif" font-size="353px" font-weight="400"><tspan class="TextPosition" x="8979" y="9831"><tspan fill="rgb(0,0,0)" stroke="none">5</tspan></tspan></tspan></text>
 <text class="TextShape"><tspan class="TextParagraph" font-family="Liberation Sans, sans-serif" font-size="353px" font-weight="400"><tspan class="TextPosition" x="10548" y="9831"><tspan fill="rgb(0,0,0)" stroke="none">6</tspan></tspan></tspan></text>
 <text class="TextShape"><tspan class="TextParagraph" font-family="Liberation Sans, sans-serif" font-size="353px" font-weight="400"><tspan class="TextPosition" x="12116" y="9831"><tspan fill="rgb(0,0,0)" stroke="none">7</tspan></tspan></tspan></text>
 <text class="TextShape"><tspan class="TextParagraph" font-family="Liberation Sans, sans-serif" font-size="353px" font-weight="400"><tspan class="TextPosition" x="13685" y="9831"><tspan fill="rgb(0,0,0)" stroke="none">8</tspan></tspan></tspan></text>
 <text class="TextShape"><tspan class="TextParagraph" font-family="Liberation Sans, sans-serif" font-size="353px" font-weight="400"><tspan class="TextPosition" x="15254" y="9831"><tspan fill="rgb(0,0,0)" stroke="none">9</tspan></tspan></tspan></text>
 <text class="TextShape"><tspan class="TextParagraph" font-family="Liberation Sans, sans-serif" font-size="353px" font-weight="400"><tspan class="TextPosition" x="16730" y="9831"><tspan fill="rgb(0,0,0)" stroke="none">10</tspan></tspan></tspan></text>
 <text class="TextShape"><tspan class="TextParagraph" font-family="Liberation Sans, sans-serif" font-size="353px" font-weight="400"><tspan class="TextPosition" x="2363" y="9384"><tspan fill="rgb(0,0,0)" stroke="none">0</tspan></tspan></tspan></text>
 <text class="TextShape"><tspan class="TextParagraph" font-family="Liberation Sans, sans-serif" font-size="353px" font-weight="400"><tspan class="TextPosition" x="1992" y="7911"><tspan fill="rgb(0,0,0)" stroke="none">200</tspan></tspan></tspan></text>
 <text class="TextShape"><tspan class="TextParagraph" font-family="Liberation Sans, sans-serif" font-size="353px" font-weight="400"><tspan class="TextPosition" x="1992" y="6439"><tspan fill="rgb(0,0,0)" stroke="none">400</tspan></tspan></tspan></text>
 <text class="TextShape"><tspan class="TextParagraph" font-family="Liberation Sans, sans-serif" font-size="353px" font-weight="400"><tspan class="TextPosition" x="1992" y="4967"><tspan fill="rgb(0,0,0)" stroke="none">600</tspan></tspan></tspan></text>
 <text class="TextShape"><tspan class="TextParagraph" font-family="Liberation Sans, sans-serif" font-size="353px" font-weight="400"><tspan class="TextPosition" x="1992" y="3495"><tspan fill="rgb(0,0,0)" stroke="none">800</tspan></tspan></tspan></text>
 <text class="TextShape"><tspan class="TextParagraph" font-family="Liberation Sans, sans-serif" font-size="353px" font-weight="400"><tspan class="TextPosition" x="1807" y="2023"><tspan fill="rgb(0,0,0)" stroke="none">1000</tspan></tspan></tspan></text>
 <text class="TextShape"><tspan class="TextParagraph" font-family="Liberation Sans, sans-serif" font-size="353px" font-weight="400"><tspan class="TextPosition" x="1807" y="551"><tspan fill="rgb(0,0,0)" stroke="none">1200</tspan></tspan></tspan></text>
 <path fill="none" stroke="rgb(102,102,255)" stroke-width="80" stroke-linejoin="round" d="M 17870,5555 L 18670,5555"/>
 <path fill="rgb(102,102,255)" stroke="none" d="M 18143,5428 L 18143,5682 18397,5682 18397,5428 18143,5428 Z"/>
 <path fill="none" stroke="rgb(102,102,255)" stroke-linejoin="round" d="M 18143,5428 L 18143,5682 18397,5682 18397,5428 18143,5428 Z"/>
 <path fill="none" stroke="rgb(255,51,51)" stroke-width="80" stroke-linejoin="round" d="M 17870,6105 L 18670,6105"/>
 <path fill="rgb(255,51,51)" stroke="none" d="M 18143,5978 L 18143,6232 18397,6232 18397,5978 18143,5978 Z"/>
 <path fill="none" stroke="rgb(255,51,51)" stroke-linejoin="round" d="M 18143,5978 L 18143,6232 18397,6232 18397,5978 18143,5978 Z"/>
 <text class="TextShape"><tspan class="TextParagraph" font-family="Liberation Sans, sans-serif" font-size="423px" font-weight="400"><tspan class="TextPosition" x="18770" y="5700"><tspan fill="rgb(0,0,0)" stroke="none">valeur_maximum</tspan></tspan></tspan></text>
 <text class="TextShape"><tspan class="TextParagraph" font-family="Liberation Sans, sans-serif" font-size="423px" font-weight="400"><tspan class="TextPosition" x="18770" y="6250"><tspan fill="rgb(0,0,0)" stroke="none">valeur_moyenne</tspan></tspan></tspan></text>
 <text class="TextShape"><tspan class="TextParagraph" font-family="Liberation Sans, sans-serif" font-size="635px" font-weight="400"><tspan class="TextPosition" x="7205" y="10918"><tspan fill="rgb(0,0,0)" stroke="none">Nombre d&apos;agents</tspan></tspan></tspan></text>
 <text class="TextShape" transform="translate(1224,5534) rotate(-90) translate(-1224,-5534)"><tspan class="TextParagraph" font-family="Liberation Sans, sans-serif" font-size="635px" font-weight="400"><tspan class="TextPosition" x="1224" y="5534"><tspan fill="rgb(0,0,0)" stroke="none">IWI</tspan></tspan></tspan></text>
</svg>