<?xml version="1.0" encoding="UTF-8"?>
<!DOCTYPE svg PUBLIC "-//W3C//DTD SVG 1.1//EN" "http://www.w3.org/Graphics/SVG/1.1/DTD/svg11.dtd">
<svg width="267mm" height="135mm" viewBox="0 0 26700 13500" version="1.1" xmlns="http://www.w3.org/2000/svg" stroke-width="28.222" stroke-linejoin="round" xml:space="preserve">
 <path fill="rgb(255,255,255)" stroke="none" d="M 13334,13467 L 0,13467 0,0 26668,0 26668,13467 13334,13467 Z"/>
 <path fill="none" stroke="rgb(179,179,179)" stroke-linejoin="round" d="M 12129,11034 L 2887,11034 2887,468 21370,468 21370,11034 12129,11034 Z"/>
 <path fill="none" stroke="rgb(179,179,179)" stroke-linejoin="round" d="M 21370,11033 L 2887,11033"/>
 <path fill="none" stroke="rgb(179,179,179)" stroke-linejoin="round" d="M 21370,9523 L 2887,9523"/>
 <path fill="none" stroke="rgb(179,179,179)" stroke-linejoin="round" d="M 21370,8013 L 2887,8013"/>
 <path fill="none" stroke="rgb(179,179,179)" stroke-linejoin="round" d="M 21370,6505 L 2887,6505"/>
 <path fill="none" stroke="rgb(179,179,179)" stroke-linejoin="round" d="M 21370,4995 L 2887,4995"/>
 <path fill="none" stroke="rgb(179,179,179)" stroke-linejoin="round" d="M 21370,3486 L 2887,3486"/>
 <path fill="none" stroke="rgb(179,179,179)" stroke-linejoin="round" d="M 21370,1976 L 2887,1976"/>
 <path fill="none" stroke="rgb(179,179,179)" stroke-linejoin="round" d="M 21370,467 L 2887,467"/>
 <path fill="none" stroke="rgb(179,179,179)" stroke-linejoin="round" d="M 2887,11183 L 2887,11033"/>
 <path fill="none" stroke="rgb(179,179,179)" stroke-linejoin="round" d="M 2887,11183 L 2887,11033"/>
 <path fill="none" stroke="rgb(179,179,179)" stroke-linejoin="round" d="M 4735,11183 L 4735,11033"/>
 <path fill="none" stroke="rgb(179,179,179)" stroke-linejoin="round" d="M 4735,11183 L 4735,11033"/>
 <path fill="none" stroke="rgb(179,179,179)" stroke-linejoin="round" d="M 6583,11183 L 6583,11033"/>
 <path fill="none" stroke="rgb(179,179,179)" stroke-linejoin="round" d="M 6583,11183 L 6583,11033"/>
 <path fill="none" stroke="rgb(179,179,179)" stroke-linejoin="round" d="M 8432,11183 L 8432,11033"/>
 <path fill="none" stroke="rgb(179,179,179)" stroke-linejoin="round" d="M 8432,11183 L 8432,11033"/>
 <path fill="none" stroke="rgb(179,179,179)" stroke-linejoin="round" d="M 10280,11183 L 10280,11033"/>
 <path fill="none" stroke="rgb(179,179,179)" stroke-linejoin="round" d="M 10280,11183 L 10280,11033"/>
 <path fill="none" stroke="rgb(179,179,179)" stroke-linejoin="round" d="M 12129,11183 L 12129,11033"/>
 <path fill="none" stroke="rgb(179,179,179)" stroke-linejoin="round" d="M 12129,11183 L 12129,11033"/>
 <path fill="none" stroke="rgb(179,179,179)" stroke-linejoin="round" d="M 13976,11183 L 13976,11033"/>
 <path fill="none" stroke="rgb(179,179,179)" stroke-linejoin="round" d="M 13976,11183 L 13976,11033"/>
 <path fill="none" stroke="rgb(179,179,179)" stroke-linejoin="round" d="M 15824,11183 L 15824,11033"/>
 <path fill="none" stroke="rgb(179,179,179)" stroke-linejoin="round" d="M 15824,11183 L 15824,11033"/>
 <path fill="none" stroke="rgb(179,179,179)" stroke-linejoin="round" d="M 17673,11183 L 17673,11033"/>
 <path fill="none" stroke="rgb(179,179,179)" stroke-linejoin="round" d="M 17673,11183 L 17673,11033"/>
 <path fill="none" stroke="rgb(179,179,179)" stroke-linejoin="round" d="M 19521,11183 L 19521,11033"/>
 <path fill="none" stroke="rgb(179,179,179)" stroke-linejoin="round" d="M 19521,11183 L 19521,11033"/>
 <path fill="none" stroke="rgb(179,179,179)" stroke-linejoin="round" d="M 21370,11183 L 21370,11033"/>
 <path fill="none" stroke="rgb(179,179,179)" stroke-linejoin="round" d="M 21370,11183 L 21370,11033"/>
 <path fill="none" stroke="rgb(179,179,179)" stroke-linejoin="round" d="M 2887,11033 L 21370,11033"/>
 <path fill="none" stroke="rgb(179,179,179)" stroke-linejoin="round" d="M 2737,11033 L 2887,11033"/>
 <path fill="none" stroke="rgb(179,179,179)" stroke-linejoin="round" d="M 2737,11033 L 2887,11033"/>
 <path fill="none" stroke="rgb(179,179,179)" stroke-linejoin="round" d="M 2737,9523 L 2887,9523"/>
 <path fill="none" stroke="rgb(179,179,179)" stroke-linejoin="round" d="M 2737,9523 L 2887,9523"/>
 <path fill="none" stroke="rgb(179,179,179)" stroke-linejoin="round" d="M 2737,8013 L 2887,8013"/>
 <path fill="none" stroke="rgb(179,179,179)" stroke-linejoin="round" d="M 2737,8013 L 2887,8013"/>
 <path fill="none" stroke="rgb(179,179,179)" stroke-linejoin="round" d="M 2737,6505 L 2887,6505"/>
 <path fill="none" stroke="rgb(179,179,179)" stroke-linejoin="round" d="M 2737,6505 L 2887,6505"/>
 <path fill="none" stroke="rgb(179,179,179)" stroke-linejoin="round" d="M 2737,4995 L 2887,4995"/>
 <path fill="none" stroke="rgb(179,179,179)" stroke-linejoin="round" d="M 2737,4995 L 2887,4995"/>
 <path fill="none" stroke="rgb(179,179,179)" stroke-linejoin="round" d="M 2737,3486 L 2887,3486"/>
 <path fill="none" stroke="rgb(179,179,179)" stroke-linejoin="round" d="M 2737,3486 L 2887,3486"/>
 <path fill="none" stroke="rgb(179,179,179)" stroke-linejoin="round" d="M 2737,1976 L 2887,1976"/>
 <path fill="none" stroke="rgb(179,179,179)" stroke-linejoin="round" d="M 2737,1976 L 2887,1976"/>
 <path fill="none" stroke="rgb(179,179,179)" stroke-linejoin="round" d="M 2737,467 L 2887,467"/>
 <path fill="none" stroke="rgb(179,179,179)" stroke-linejoin="round" d="M 2737,467 L 2887,467"/>
 <path fill="none" stroke="rgb(179,179,179)" stroke-linejoin="round" d="M 2887,11033 L 2887,467"/>
 <path fill="none" stroke="rgb(255,51,51)" stroke-width="80" stroke-linejoin="round" d="M 2887,10282 L 3071,10304 3256,9989 3441,10318 3626,10281 3811,10242 3996,10296 4180,10288 4365,10264 4550,10287 4735,10347 4920,10262 5105,10288 5289,10027 5474,10187 5659,10253 5844,9897 6029,10242 6214,10239 6398,10291 6583,9945 6768,10356 6953,10316 7138,10295 7323,10212 7508,10300 7692,10129 7877,10278 8062,10312 8247,9807 8432,10225 8617,10280 8801,10376 8986,10320 9171,10342 9356,10020 9541,10229 9726,10344 9910,10295 10095,10090 10280,10374 10465,10266 10650,10224 10835,10271 11019,10325 11204,10260 11389,10333 11574,10327 11759,10334 11944,10347 12129,10332 12313,10291 12498,10250 12683,10257 12868,10181 13053,10335 13238,10207 13421,10339 13606,10320 13791,10327 13976,10150 14161,10302 14346,10292 14530,10149 14715,10278 14900,10259 15085,10399 15270,10315 15455,10364 15639,10302 15824,10276 16009,10264 16194,10305 16379,10354 16564,10383 16749,10310 16933,10324 17118,10241 17303,10294 17488,10364 17673,10247 17858,10334 18042,10263 18227,10339 18412,10361 18597,10325 18782,10432 18967,10308 19151,10303 19336,10324 19521,10230 19706,10290 19891,10307 20076,10316 20260,10429 20445,10329 20630,10320 20815,10403 21000,10308 21185,10347 21370,10294"/>
 <path fill="rgb(255,51,51)" stroke="none" d="M 2837,10232 L 2837,10332 2937,10332 2937,10232 2837,10232 Z"/>
 <path fill="none" stroke="rgb(255,51,51)" stroke-linejoin="round" d="M 2837,10232 L 2837,10332 2937,10332 2937,10232 2837,10232 Z"/>
 <path fill="rgb(255,51,51)" stroke="none" d="M 3021,10254 L 3021,10354 3121,10354 3121,10254 3021,10254 Z"/>
 <path fill="none" stroke="rgb(255,51,51)" stroke-linejoin="round" d="M 3021,10254 L 3021,10354 3121,10354 3121,10254 3021,10254 Z"/>
 <path fill="rgb(255,51,51)" stroke="none" d="M 3206,9939 L 3206,10039 3306,10039 3306,9939 3206,9939 Z"/>
 <path fill="none" stroke="rgb(255,51,51)" stroke-linejoin="round" d="M 3206,9939 L 3206,10039 3306,10039 3306,9939 3206,9939 Z"/>
 <path fill="rgb(255,51,51)" stroke="none" d="M 3391,10268 L 3391,10368 3491,10368 3491,10268 3391,10268 Z"/>
 <path fill="none" stroke="rgb(255,51,51)" stroke-linejoin="round" d="M 3391,10268 L 3391,10368 3491,10368 3491,10268 3391,10268 Z"/>
 <path fill="rgb(255,51,51)" stroke="none" d="M 3576,10231 L 3576,10331 3676,10331 3676,10231 3576,10231 Z"/>
 <path fill="none" stroke="rgb(255,51,51)" stroke-linejoin="round" d="M 3576,10231 L 3576,10331 3676,10331 3676,10231 3576,10231 Z"/>
 <path fill="rgb(255,51,51)" stroke="none" d="M 3761,10192 L 3761,10292 3861,10292 3861,10192 3761,10192 Z"/>
 <path fill="none" stroke="rgb(255,51,51)" stroke-linejoin="round" d="M 3761,10192 L 3761,10292 3861,10292 3861,10192 3761,10192 Z"/>
 <path fill="rgb(255,51,51)" stroke="none" d="M 3946,10246 L 3946,10346 4046,10346 4046,10246 3946,10246 Z"/>
 <path fill="none" stroke="rgb(255,51,51)" stroke-linejoin="round" d="M 3946,10246 L 3946,10346 4046,10346 4046,10246 3946,10246 Z"/>
 <path fill="rgb(255,51,51)" stroke="none" d="M 4130,10238 L 4130,10338 4230,10338 4230,10238 4130,10238 Z"/>
 <path fill="none" stroke="rgb(255,51,51)" stroke-linejoin="round" d="M 4130,10238 L 4130,10338 4230,10338 4230,10238 4130,10238 Z"/>
 <path fill="rgb(255,51,51)" stroke="none" d="M 4315,10214 L 4315,10314 4415,10314 4415,10214 4315,10214 Z"/>
 <path fill="none" stroke="rgb(255,51,51)" stroke-linejoin="round" d="M 4315,10214 L 4315,10314 4415,10314 4415,10214 4315,10214 Z"/>
 <path fill="rgb(255,51,51)" stroke="none" d="M 4500,10237 L 4500,10337 4600,10337 4600,10237 4500,10237 Z"/>
 <path fill="none" stroke="rgb(255,51,51)" stroke-linejoin="round" d="M 4500,10237 L 4500,10337 4600,10337 4600,10237 4500,10237 Z"/>
 <path fill="rgb(255,51,51)" stroke="none" d="M 4685,10297 L 4685,10397 4785,10397 4785,10297 4685,10297 Z"/>
 <path fill="none" stroke="rgb(255,51,51)" stroke-linejoin="round" d="M 4685,10297 L 4685,10397 4785,10397 4785,10297 4685,10297 Z"/>
 <path fill="rgb(255,51,51)" stroke="none" d="M 4870,10212 L 4870,10312 4970,10312 4970,10212 4870,10212 Z"/>
 <path fill="none" stroke="rgb(255,51,51)" stroke-linejoin="round" d="M 4870,10212 L 4870,10312 4970,10312 4970,10212 4870,10212 Z"/>
 <path fill="rgb(255,51,51)" stroke="none" d="M 5055,10238 L 5055,10338 5155,10338 5155,10238 5055,10238 Z"/>
 <path fill="none" stroke="rgb(255,51,51)" stroke-linejoin="round" d="M 5055,10238 L 5055,10338 5155,10338 5155,10238 5055,10238 Z"/>
 <path fill="rgb(255,51,51)" stroke="none" d="M 5239,9977 L 5239,10077 5339,10077 5339,9977 5239,9977 Z"/>
 <path fill="none" stroke="rgb(255,51,51)" stroke-linejoin="round" d="M 5239,9977 L 5239,10077 5339,10077 5339,9977 5239,9977 Z"/>
 <path fill="rgb(255,51,51)" stroke="none" d="M 5424,10137 L 5424,10237 5524,10237 5524,10137 5424,10137 Z"/>
 <path fill="none" stroke="rgb(255,51,51)" stroke-linejoin="round" d="M 5424,10137 L 5424,10237 5524,10237 5524,10137 5424,10137 Z"/>
 <path fill="rgb(255,51,51)" stroke="none" d="M 5609,10203 L 5609,10303 5709,10303 5709,10203 5609,10203 Z"/>
 <path fill="none" stroke="rgb(255,51,51)" stroke-linejoin="round" d="M 5609,10203 L 5609,10303 5709,10303 5709,10203 5609,10203 Z"/>
 <path fill="rgb(255,51,51)" stroke="none" d="M 5794,9847 L 5794,9947 5894,9947 5894,9847 5794,9847 Z"/>
 <path fill="none" stroke="rgb(255,51,51)" stroke-linejoin="round" d="M 5794,9847 L 5794,9947 5894,9947 5894,9847 5794,9847 Z"/>
 <path fill="rgb(255,51,51)" stroke="none" d="M 5979,10192 L 5979,10292 6079,10292 6079,10192 5979,10192 Z"/>
 <path fill="none" stroke="rgb(255,51,51)" stroke-linejoin="round" d="M 5979,10192 L 5979,10292 6079,10292 6079,10192 5979,10192 Z"/>
 <path fill="rgb(255,51,51)" stroke="none" d="M 6164,10189 L 6164,10289 6264,10289 6264,10189 6164,10189 Z"/>
 <path fill="none" stroke="rgb(255,51,51)" stroke-linejoin="round" d="M 6164,10189 L 6164,10289 6264,10289 6264,10189 6164,10189 Z"/>
 <path fill="rgb(255,51,51)" stroke="none" d="M 6348,10241 L 6348,10341 6448,10341 6448,10241 6348,10241 Z"/>
 <path fill="none" stroke="rgb(255,51,51)" stroke-linejoin="round" d="M 6348,10241 L 6348,10341 6448,10341 6448,10241 6348,10241 Z"/>
 <path fill="rgb(255,51,51)" stroke="none" d="M 6533,9895 L 6533,9995 6633,9995 6633,9895 6533,9895 Z"/>
 <path fill="none" stroke="rgb(255,51,51)" stroke-linejoin="round" d="M 6533,9895 L 6533,9995 6633,9995 6633,9895 6533,9895 Z"/>
 <path fill="rgb(255,51,51)" stroke="none" d="M 6718,10306 L 6718,10406 6818,10406 6818,10306 6718,10306 Z"/>
 <path fill="none" stroke="rgb(255,51,51)" stroke-linejoin="round" d="M 6718,10306 L 6718,10406 6818,10406 6818,10306 6718,10306 Z"/>
 <path fill="rgb(255,51,51)" stroke="none" d="M 6903,10266 L 6903,10366 7003,10366 7003,10266 6903,10266 Z"/>
 <path fill="none" stroke="rgb(255,51,51)" stroke-linejoin="round" d="M 6903,10266 L 6903,10366 7003,10366 7003,10266 6903,10266 Z"/>
 <path fill="rgb(255,51,51)" stroke="none" d="M 7088,10245 L 7088,10345 7188,10345 7188,10245 7088,10245 Z"/>
 <path fill="none" stroke="rgb(255,51,51)" stroke-linejoin="round" d="M 7088,10245 L 7088,10345 7188,10345 7188,10245 7088,10245 Z"/>
 <path fill="rgb(255,51,51)" stroke="none" d="M 7273,10162 L 7273,10262 7373,10262 7373,10162 7273,10162 Z"/>
 <path fill="none" stroke="rgb(255,51,51)" stroke-linejoin="round" d="M 7273,10162 L 7273,10262 7373,10262 7373,10162 7273,10162 Z"/>
 <path fill="rgb(255,51,51)" stroke="none" d="M 7458,10250 L 7458,10350 7558,10350 7558,10250 7458,10250 Z"/>
 <path fill="none" stroke="rgb(255,51,51)" stroke-linejoin="round" d="M 7458,10250 L 7458,10350 7558,10350 7558,10250 7458,10250 Z"/>
 <path fill="rgb(255,51,51)" stroke="none" d="M 7642,10079 L 7642,10179 7742,10179 7742,10079 7642,10079 Z"/>
 <path fill="none" stroke="rgb(255,51,51)" stroke-linejoin="round" d="M 7642,10079 L 7642,10179 7742,10179 7742,10079 7642,10079 Z"/>
 <path fill="rgb(255,51,51)" stroke="none" d="M 7827,10228 L 7827,10328 7927,10328 7927,10228 7827,10228 Z"/>
 <path fill="none" stroke="rgb(255,51,51)" stroke-linejoin="round" d="M 7827,10228 L 7827,10328 7927,10328 7927,10228 7827,10228 Z"/>
 <path fill="rgb(255,51,51)" stroke="none" d="M 8012,10262 L 8012,10362 8112,10362 8112,10262 8012,10262 Z"/>
 <path fill="none" stroke="rgb(255,51,51)" stroke-linejoin="round" d="M 8012,10262 L 8012,10362 8112,10362 8112,10262 8012,10262 Z"/>
 <path fill="rgb(255,51,51)" stroke="none" d="M 8197,9757 L 8197,9857 8297,9857 8297,9757 8197,9757 Z"/>
 <path fill="none" stroke="rgb(255,51,51)" stroke-linejoin="round" d="M 8197,9757 L 8197,9857 8297,9857 8297,9757 8197,9757 Z"/>
 <path fill="rgb(255,51,51)" stroke="none" d="M 8382,10175 L 8382,10275 8482,10275 8482,10175 8382,10175 Z"/>
 <path fill="none" stroke="rgb(255,51,51)" stroke-linejoin="round" d="M 8382,10175 L 8382,10275 8482,10275 8482,10175 8382,10175 Z"/>
 <path fill="rgb(255,51,51)" stroke="none" d="M 8567,10230 L 8567,10330 8667,10330 8667,10230 8567,10230 Z"/>
 <path fill="none" stroke="rgb(255,51,51)" stroke-linejoin="round" d="M 8567,10230 L 8567,10330 8667,10330 8667,10230 8567,10230 Z"/>
 <path fill="rgb(255,51,51)" stroke="none" d="M 8751,10326 L 8751,10426 8851,10426 8851,10326 8751,10326 Z"/>
 <path fill="none" stroke="rgb(255,51,51)" stroke-linejoin="round" d="M 8751,10326 L 8751,10426 8851,10426 8851,10326 8751,10326 Z"/>
 <path fill="rgb(255,51,51)" stroke="none" d="M 8936,10270 L 8936,10370 9036,10370 9036,10270 8936,10270 Z"/>
 <path fill="none" stroke="rgb(255,51,51)" stroke-linejoin="round" d="M 8936,10270 L 8936,10370 9036,10370 9036,10270 8936,10270 Z"/>
 <path fill="rgb(255,51,51)" stroke="none" d="M 9121,10292 L 9121,10392 9221,10392 9221,10292 9121,10292 Z"/>
 <path fill="none" stroke="rgb(255,51,51)" stroke-linejoin="round" d="M 9121,10292 L 9121,10392 9221,10392 9221,10292 9121,10292 Z"/>
 <path fill="rgb(255,51,51)" stroke="none" d="M 9306,9970 L 9306,10070 9406,10070 9406,9970 9306,9970 Z"/>
 <path fill="none" stroke="rgb(255,51,51)" stroke-linejoin="round" d="M 9306,9970 L 9306,10070 9406,10070 9406,9970 9306,9970 Z"/>
 <path fill="rgb(255,51,51)" stroke="none" d="M 9491,10179 L 9491,10279 9591,10279 9591,10179 9491,10179 Z"/>
 <path fill="none" stroke="rgb(255,51,51)" stroke-linejoin="round" d="M 9491,10179 L 9491,10279 9591,10279 9591,10179 9491,10179 Z"/>
 <path fill="rgb(255,51,51)" stroke="none" d="M 9676,10294 L 9676,10394 9776,10394 9776,10294 9676,10294 Z"/>
 <path fill="none" stroke="rgb(255,51,51)" stroke-linejoin="round" d="M 9676,10294 L 9676,10394 9776,10394 9776,10294 9676,10294 Z"/>
 <path fill="rgb(255,51,51)" stroke="none" d="M 9860,10245 L 9860,10345 9960,10345 9960,10245 9860,10245 Z"/>
 <path fill="none" stroke="rgb(255,51,51)" stroke-linejoin="round" d="M 9860,10245 L 9860,10345 9960,10345 9960,10245 9860,10245 Z"/>
 <path fill="rgb(255,51,51)" stroke="none" d="M 10045,10040 L 10045,10140 10145,10140 10145,10040 10045,10040 Z"/>
 <path fill="none" stroke="rgb(255,51,51)" stroke-linejoin="round" d="M 10045,10040 L 10045,10140 10145,10140 10145,10040 10045,10040 Z"/>
 <path fill="rgb(255,51,51)" stroke="none" d="M 10230,10324 L 10230,10424 10330,10424 10330,10324 10230,10324 Z"/>
 <path fill="none" stroke="rgb(255,51,51)" stroke-linejoin="round" d="M 10230,10324 L 10230,10424 10330,10424 10330,10324 10230,10324 Z"/>
 <path fill="rgb(255,51,51)" stroke="none" d="M 10415,10216 L 10415,10316 10515,10316 10515,10216 10415,10216 Z"/>
 <path fill="none" stroke="rgb(255,51,51)" stroke-linejoin="round" d="M 10415,10216 L 10415,10316 10515,10316 10515,10216 10415,10216 Z"/>
 <path fill="rgb(255,51,51)" stroke="none" d="M 10600,10174 L 10600,10274 10700,10274 10700,10174 10600,10174 Z"/>
 <path fill="none" stroke="rgb(255,51,51)" stroke-linejoin="round" d="M 10600,10174 L 10600,10274 10700,10274 10700,10174 10600,10174 Z"/>
 <path fill="rgb(255,51,51)" stroke="none" d="M 10785,10221 L 10785,10321 10885,10321 10885,10221 10785,10221 Z"/>
 <path fill="none" stroke="rgb(255,51,51)" stroke-linejoin="round" d="M 10785,10221 L 10785,10321 10885,10321 10885,10221 10785,10221 Z"/>
 <path fill="rgb(255,51,51)" stroke="none" d="M 10969,10275 L 10969,10375 11069,10375 11069,10275 10969,10275 Z"/>
 <path fill="none" stroke="rgb(255,51,51)" stroke-linejoin="round" d="M 10969,10275 L 10969,10375 11069,10375 11069,10275 10969,10275 Z"/>
 <path fill="rgb(255,51,51)" stroke="none" d="M 11154,10210 L 11154,10310 11254,10310 11254,10210 11154,10210 Z"/>
 <path fill="none" stroke="rgb(255,51,51)" stroke-linejoin="round" d="M 11154,10210 L 11154,10310 11254,10310 11254,10210 11154,10210 Z"/>
 <path fill="rgb(255,51,51)" stroke="none" d="M 11339,10283 L 11339,10383 11439,10383 11439,10283 11339,10283 Z"/>
 <path fill="none" stroke="rgb(255,51,51)" stroke-linejoin="round" d="M 11339,10283 L 11339,10383 11439,10383 11439,10283 11339,10283 Z"/>
 <path fill="rgb(255,51,51)" stroke="none" d="M 11524,10277 L 11524,10377 11624,10377 11624,10277 11524,10277 Z"/>
 <path fill="none" stroke="rgb(255,51,51)" stroke-linejoin="round" d="M 11524,10277 L 11524,10377 11624,10377 11624,10277 11524,10277 Z"/>
 <path fill="rgb(255,51,51)" stroke="none" d="M 11709,10284 L 11709,10384 11809,10384 11809,10284 11709,10284 Z"/>
 <path fill="none" stroke="rgb(255,51,51)" stroke-linejoin="round" d="M 11709,10284 L 11709,10384 11809,10384 11809,10284 11709,10284 Z"/>
 <path fill="rgb(255,51,51)" stroke="none" d="M 11894,10297 L 11894,10397 11994,10397 11994,10297 11894,10297 Z"/>
 <path fill="none" stroke="rgb(255,51,51)" stroke-linejoin="round" d="M 11894,10297 L 11894,10397 11994,10397 11994,10297 11894,10297 Z"/>
 <path fill="rgb(255,51,51)" stroke="none" d="M 12079,10282 L 12079,10382 12179,10382 12179,10282 12079,10282 Z"/>
 <path fill="none" stroke="rgb(255,51,51)" stroke-linejoin="round" d="M 12079,10282 L 12079,10382 12179,10382 12179,10282 12079,10282 Z"/>
 <path fill="rgb(255,51,51)" stroke="none" d="M 12263,10241 L 12263,10341 12363,10341 12363,10241 12263,10241 Z"/>
 <path fill="none" stroke="rgb(255,51,51)" stroke-linejoin="round" d="M 12263,10241 L 12263,10341 12363,10341 12363,10241 12263,10241 Z"/>
 <path fill="rgb(255,51,51)" stroke="none" d="M 12448,10200 L 12448,10300 12548,10300 12548,10200 12448,10200 Z"/>
 <path fill="none" stroke="rgb(255,51,51)" stroke-linejoin="round" d="M 12448,10200 L 12448,10300 12548,10300 12548,10200 12448,10200 Z"/>
 <path fill="rgb(255,51,51)" stroke="none" d="M 12633,10207 L 12633,10307 12733,10307 12733,10207 12633,10207 Z"/>
 <path fill="none" stroke="rgb(255,51,51)" stroke-linejoin="round" d="M 12633,10207 L 12633,10307 12733,10307 12733,10207 12633,10207 Z"/>
 <path fill="rgb(255,51,51)" stroke="none" d="M 12818,10131 L 12818,10231 12918,10231 12918,10131 12818,10131 Z"/>
 <path fill="none" stroke="rgb(255,51,51)" stroke-linejoin="round" d="M 12818,10131 L 12818,10231 12918,10231 12918,10131 12818,10131 Z"/>
 <path fill="rgb(255,51,51)" stroke="none" d="M 13003,10285 L 13003,10385 13103,10385 13103,10285 13003,10285 Z"/>
 <path fill="none" stroke="rgb(255,51,51)" stroke-linejoin="round" d="M 13003,10285 L 13003,10385 13103,10385 13103,10285 13003,10285 Z"/>
 <path fill="rgb(255,51,51)" stroke="none" d="M 13188,10157 L 13188,10257 13288,10257 13288,10157 13188,10157 Z"/>
 <path fill="none" stroke="rgb(255,51,51)" stroke-linejoin="round" d="M 13188,10157 L 13188,10257 13288,10257 13288,10157 13188,10157 Z"/>
 <path fill="rgb(255,51,51)" stroke="none" d="M 13371,10289 L 13371,10389 13471,10389 13471,10289 13371,10289 Z"/>
 <path fill="none" stroke="rgb(255,51,51)" stroke-linejoin="round" d="M 13371,10289 L 13371,10389 13471,10389 13471,10289 13371,10289 Z"/>
 <path fill="rgb(255,51,51)" stroke="none" d="M 13556,10270 L 13556,10370 13656,10370 13656,10270 13556,10270 Z"/>
 <path fill="none" stroke="rgb(255,51,51)" stroke-linejoin="round" d="M 13556,10270 L 13556,10370 13656,10370 13656,10270 13556,10270 Z"/>
 <path fill="rgb(255,51,51)" stroke="none" d="M 13741,10277 L 13741,10377 13841,10377 13841,10277 13741,10277 Z"/>
 <path fill="none" stroke="rgb(255,51,51)" stroke-linejoin="round" d="M 13741,10277 L 13741,10377 13841,10377 13841,10277 13741,10277 Z"/>
 <path fill="rgb(255,51,51)" stroke="none" d="M 13926,10100 L 13926,10200 14026,10200 14026,10100 13926,10100 Z"/>
 <path fill="none" stroke="rgb(255,51,51)" stroke-linejoin="round" d="M 13926,10100 L 13926,10200 14026,10200 14026,10100 13926,10100 Z"/>
 <path fill="rgb(255,51,51)" stroke="none" d="M 14111,10252 L 14111,10352 14211,10352 14211,10252 14111,10252 Z"/>
 <path fill="none" stroke="rgb(255,51,51)" stroke-linejoin="round" d="M 14111,10252 L 14111,10352 14211,10352 14211,10252 14111,10252 Z"/>
 <path fill="rgb(255,51,51)" stroke="none" d="M 14296,10242 L 14296,10342 14396,10342 14396,10242 14296,10242 Z"/>
 <path fill="none" stroke="rgb(255,51,51)" stroke-linejoin="round" d="M 14296,10242 L 14296,10342 14396,10342 14396,10242 14296,10242 Z"/>
 <path fill="rgb(255,51,51)" stroke="none" d="M 14480,10099 L 14480,10199 14580,10199 14580,10099 14480,10099 Z"/>
 <path fill="none" stroke="rgb(255,51,51)" stroke-linejoin="round" d="M 14480,10099 L 14480,10199 14580,10199 14580,10099 14480,10099 Z"/>
 <path fill="rgb(255,51,51)" stroke="none" d="M 14665,10228 L 14665,10328 14765,10328 14765,10228 14665,10228 Z"/>
 <path fill="none" stroke="rgb(255,51,51)" stroke-linejoin="round" d="M 14665,10228 L 14665,10328 14765,10328 14765,10228 14665,10228 Z"/>
 <path fill="rgb(255,51,51)" stroke="none" d="M 14850,10209 L 14850,10309 14950,10309 14950,10209 14850,10209 Z"/>
 <path fill="none" stroke="rgb(255,51,51)" stroke-linejoin="round" d="M 14850,10209 L 14850,10309 14950,10309 14950,10209 14850,10209 Z"/>
 <path fill="rgb(255,51,51)" stroke="none" d="M 15035,10349 L 15035,10449 15135,10449 15135,10349 15035,10349 Z"/>
 <path fill="none" stroke="rgb(255,51,51)" stroke-linejoin="round" d="M 15035,10349 L 15035,10449 15135,10449 15135,10349 15035,10349 Z"/>
 <path fill="rgb(255,51,51)" stroke="none" d="M 15220,10265 L 15220,10365 15320,10365 15320,10265 15220,10265 Z"/>
 <path fill="none" stroke="rgb(255,51,51)" stroke-linejoin="round" d="M 15220,10265 L 15220,10365 15320,10365 15320,10265 15220,10265 Z"/>
 <path fill="rgb(255,51,51)" stroke="none" d="M 15405,10314 L 15405,10414 15505,10414 15505,10314 15405,10314 Z"/>
 <path fill="none" stroke="rgb(255,51,51)" stroke-linejoin="round" d="M 15405,10314 L 15405,10414 15505,10414 15505,10314 15405,10314 Z"/>
 <path fill="rgb(255,51,51)" stroke="none" d="M 15589,10252 L 15589,10352 15689,10352 15689,10252 15589,10252 Z"/>
 <path fill="none" stroke="rgb(255,51,51)" stroke-linejoin="round" d="M 15589,10252 L 15589,10352 15689,10352 15689,10252 15589,10252 Z"/>
 <path fill="rgb(255,51,51)" stroke="none" d="M 15774,10226 L 15774,10326 15874,10326 15874,10226 15774,10226 Z"/>
 <path fill="none" stroke="rgb(255,51,51)" stroke-linejoin="round" d="M 15774,10226 L 15774,10326 15874,10326 15874,10226 15774,10226 Z"/>
 <path fill="rgb(255,51,51)" stroke="none" d="M 15959,10214 L 15959,10314 16059,10314 16059,10214 15959,10214 Z"/>
 <path fill="none" stroke="rgb(255,51,51)" stroke-linejoin="round" d="M 15959,10214 L 15959,10314 16059,10314 16059,10214 15959,10214 Z"/>
 <path fill="rgb(255,51,51)" stroke="none" d="M 16144,10255 L 16144,10355 16244,10355 16244,10255 16144,10255 Z"/>
 <path fill="none" stroke="rgb(255,51,51)" stroke-linejoin="round" d="M 16144,10255 L 16144,10355 16244,10355 16244,10255 16144,10255 Z"/>
 <path fill="rgb(255,51,51)" stroke="none" d="M 16329,10304 L 16329,10404 16429,10404 16429,10304 16329,10304 Z"/>
 <path fill="none" stroke="rgb(255,51,51)" stroke-linejoin="round" d="M 16329,10304 L 16329,10404 16429,10404 16429,10304 16329,10304 Z"/>
 <path fill="rgb(255,51,51)" stroke="none" d="M 16514,10333 L 16514,10433 16614,10433 16614,10333 16514,10333 Z"/>
 <path fill="none" stroke="rgb(255,51,51)" stroke-linejoin="round" d="M 16514,10333 L 16514,10433 16614,10433 16614,10333 16514,10333 Z"/>
 <path fill="rgb(255,51,51)" stroke="none" d="M 16699,10260 L 16699,10360 16799,10360 16799,10260 16699,10260 Z"/>
 <path fill="none" stroke="rgb(255,51,51)" stroke-linejoin="round" d="M 16699,10260 L 16699,10360 16799,10360 16799,10260 16699,10260 Z"/>
 <path fill="rgb(255,51,51)" stroke="none" d="M 16883,10274 L 16883,10374 16983,10374 16983,10274 16883,10274 Z"/>
 <path fill="none" stroke="rgb(255,51,51)" stroke-linejoin="round" d="M 16883,10274 L 16883,10374 16983,10374 16983,10274 16883,10274 Z"/>
 <path fill="rgb(255,51,51)" stroke="none" d="M 17068,10191 L 17068,10291 17168,10291 17168,10191 17068,10191 Z"/>
 <path fill="none" stroke="rgb(255,51,51)" stroke-linejoin="round" d="M 17068,10191 L 17068,10291 17168,10291 17168,10191 17068,10191 Z"/>
 <path fill="rgb(255,51,51)" stroke="none" d="M 17253,10244 L 17253,10344 17353,10344 17353,10244 17253,10244 Z"/>
 <path fill="none" stroke="rgb(255,51,51)" stroke-linejoin="round" d="M 17253,10244 L 17253,10344 17353,10344 17353,10244 17253,10244 Z"/>
 <path fill="rgb(255,51,51)" stroke="none" d="M 17438,10314 L 17438,10414 17538,10414 17538,10314 17438,10314 Z"/>
 <path fill="none" stroke="rgb(255,51,51)" stroke-linejoin="round" d="M 17438,10314 L 17438,10414 17538,10414 17538,10314 17438,10314 Z"/>
 <path fill="rgb(255,51,51)" stroke="none" d="M 17623,10197 L 17623,10297 17723,10297 17723,10197 17623,10197 Z"/>
 <path fill="none" stroke="rgb(255,51,51)" stroke-linejoin="round" d="M 17623,10197 L 17623,10297 17723,10297 17723,10197 17623,10197 Z"/>
 <path fill="rgb(255,51,51)" stroke="none" d="M 17808,10284 L 17808,10384 17908,10384 17908,10284 17808,10284 Z"/>
 <path fill="none" stroke="rgb(255,51,51)" stroke-linejoin="round" d="M 17808,10284 L 17808,10384 17908,10384 17908,10284 17808,10284 Z"/>
 <path fill="rgb(255,51,51)" stroke="none" d="M 17992,10213 L 17992,10313 18092,10313 18092,10213 17992,10213 Z"/>
 <path fill="none" stroke="rgb(255,51,51)" stroke-linejoin="round" d="M 17992,10213 L 17992,10313 18092,10313 18092,10213 17992,10213 Z"/>
 <path fill="rgb(255,51,51)" stroke="none" d="M 18177,10289 L 18177,10389 18277,10389 18277,10289 18177,10289 Z"/>
 <path fill="none" stroke="rgb(255,51,51)" stroke-linejoin="round" d="M 18177,10289 L 18177,10389 18277,10389 18277,10289 18177,10289 Z"/>
 <path fill="rgb(255,51,51)" stroke="none" d="M 18362,10311 L 18362,10411 18462,10411 18462,10311 18362,10311 Z"/>
 <path fill="none" stroke="rgb(255,51,51)" stroke-linejoin="round" d="M 18362,10311 L 18362,10411 18462,10411 18462,10311 18362,10311 Z"/>
 <path fill="rgb(255,51,51)" stroke="none" d="M 18547,10275 L 18547,10375 18647,10375 18647,10275 18547,10275 Z"/>
 <path fill="none" stroke="rgb(255,51,51)" stroke-linejoin="round" d="M 18547,10275 L 18547,10375 18647,10375 18647,10275 18547,10275 Z"/>
 <path fill="rgb(255,51,51)" stroke="none" d="M 18732,10382 L 18732,10482 18832,10482 18832,10382 18732,10382 Z"/>
 <path fill="none" stroke="rgb(255,51,51)" stroke-linejoin="round" d="M 18732,10382 L 18732,10482 18832,10482 18832,10382 18732,10382 Z"/>
 <path fill="rgb(255,51,51)" stroke="none" d="M 18917,10258 L 18917,10358 19017,10358 19017,10258 18917,10258 Z"/>
 <path fill="none" stroke="rgb(255,51,51)" stroke-linejoin="round" d="M 18917,10258 L 18917,10358 19017,10358 19017,10258 18917,10258 Z"/>
 <path fill="rgb(255,51,51)" stroke="none" d="M 19101,10253 L 19101,10353 19201,10353 19201,10253 19101,10253 Z"/>
 <path fill="none" stroke="rgb(255,51,51)" stroke-linejoin="round" d="M 19101,10253 L 19101,10353 19201,10353 19201,10253 19101,10253 Z"/>
 <path fill="rgb(255,51,51)" stroke="none" d="M 19286,10274 L 19286,10374 19386,10374 19386,10274 19286,10274 Z"/>
 <path fill="none" stroke="rgb(255,51,51)" stroke-linejoin="round" d="M 19286,10274 L 19286,10374 19386,10374 19386,10274 19286,10274 Z"/>
 <path fill="rgb(255,51,51)" stroke="none" d="M 19471,10180 L 19471,10280 19571,10280 19571,10180 19471,10180 Z"/>
 <path fill="none" stroke="rgb(255,51,51)" stroke-linejoin="round" d="M 19471,10180 L 19471,10280 19571,10280 19571,10180 19471,10180 Z"/>
 <path fill="rgb(255,51,51)" stroke="none" d="M 19656,10240 L 19656,10340 19756,10340 19756,10240 19656,10240 Z"/>
 <path fill="none" stroke="rgb(255,51,51)" stroke-linejoin="round" d="M 19656,10240 L 19656,10340 19756,10340 19756,10240 19656,10240 Z"/>
 <path fill="rgb(255,51,51)" stroke="none" d="M 19841,10257 L 19841,10357 19941,10357 19941,10257 19841,10257 Z"/>
 <path fill="none" stroke="rgb(255,51,51)" stroke-linejoin="round" d="M 19841,10257 L 19841,10357 19941,10357 19941,10257 19841,10257 Z"/>
 <path fill="rgb(255,51,51)" stroke="none" d="M 20026,10266 L 20026,10366 20126,10366 20126,10266 20026,10266 Z"/>
 <path fill="none" stroke="rgb(255,51,51)" stroke-linejoin="round" d="M 20026,10266 L 20026,10366 20126,10366 20126,10266 20026,10266 Z"/>
 <path fill="rgb(255,51,51)" stroke="none" d="M 20210,10379 L 20210,10479 20310,10479 20310,10379 20210,10379 Z"/>
 <path fill="none" stroke="rgb(255,51,51)" stroke-linejoin="round" d="M 20210,10379 L 20210,10479 20310,10479 20310,10379 20210,10379 Z"/>
 <path fill="rgb(255,51,51)" stroke="none" d="M 20395,10279 L 20395,10379 20495,10379 20495,10279 20395,10279 Z"/>
 <path fill="none" stroke="rgb(255,51,51)" stroke-linejoin="round" d="M 20395,10279 L 20395,10379 20495,10379 20495,10279 20395,10279 Z"/>
 <path fill="rgb(255,51,51)" stroke="none" d="M 20580,10270 L 20580,10370 20680,10370 20680,10270 20580,10270 Z"/>
 <path fill="none" stroke="rgb(255,51,51)" stroke-linejoin="round" d="M 20580,10270 L 20580,10370 20680,10370 20680,10270 20580,10270 Z"/>
 <path fill="rgb(255,51,51)" stroke="none" d="M 20765,10353 L 20765,10453 20865,10453 20865,10353 20765,10353 Z"/>
 <path fill="none" stroke="rgb(255,51,51)" stroke-linejoin="round" d="M 20765,10353 L 20765,10453 20865,10453 20865,10353 20765,10353 Z"/>
 <path fill="rgb(255,51,51)" stroke="none" d="M 20950,10258 L 20950,10358 21050,10358 21050,10258 20950,10258 Z"/>
 <path fill="none" stroke="rgb(255,51,51)" stroke-linejoin="round" d="M 20950,10258 L 20950,10358 21050,10358 21050,10258 20950,10258 Z"/>
 <path fill="rgb(255,51,51)" stroke="none" d="M 21135,10297 L 21135,10397 21235,10397 21235,10297 21135,10297 Z"/>
 <path fill="none" stroke="rgb(255,51,51)" stroke-linejoin="round" d="M 21135,10297 L 21135,10397 21235,10397 21235,10297 21135,10297 Z"/>
 <path fill="rgb(255,51,51)" stroke="none" d="M 21320,10244 L 21320,10344 21420,10344 21420,10244 21320,10244 Z"/>
 <path fill="none" stroke="rgb(255,51,51)" stroke-linejoin="round" d="M 21320,10244 L 21320,10344 21420,10344 21420,10244 21320,10244 Z"/>
 <path fill="none" stroke="rgb(102,102,255)" stroke-width="80" stroke-linejoin="round" d="M 2887,6376 L 3071,8572 3256,3003 3441,8308 3626,6964 3811,7296 3996,8315 4180,8889 4365,7168 4550,7734 4735,8406 4920,8187 5105,7998 5289,4218 5474,4874 5659,8504 5844,2731 6029,7530 6214,6806 6398,7236 6583,2852 6768,9047 6953,8632 7138,7764 7323,6783 7508,8376 7692,4097 7877,7176 8062,7787 8247,1885 8432,7040 8617,8708 8801,8293 8986,8761 9171,9342 9356,3674 9541,6437 9726,7923 9910,6233 10095,4082 10280,8104 10465,8262 10650,6821 10835,8323 11019,7893 11204,7538 11389,8678 11574,7908 11759,8028 11944,8036 12129,8919 12313,8255 12498,6565 12683,8262 12868,5976 13053,8602 13238,5418 13421,8028 13606,9304 13791,8270 13976,5780 14161,6663 14346,9161 14530,4784 14715,7870 14900,8557 15085,9425 15270,9644 15455,9417 15639,8368 15824,6716 16009,7938 16194,9002 16379,8157 16564,8632 16749,7560 16933,9508 17118,5818 17303,7727 17488,8202 17673,6369 17858,8693 18042,8798 18227,8813 18412,9342 18597,7810 18782,9825 18967,6052 19151,9130 19336,9666 19521,8972 19706,8745 19891,9183 20076,9614 20260,9568 20445,8889 20630,7153 20815,9281 21000,9146 21185,9674 21370,9515"/>
 <path fill="rgb(102,102,255)" stroke="none" d="M 2837,6326 L 2837,6426 2937,6426 2937,6326 2837,6326 Z"/>
 <path fill="none" stroke="rgb(102,102,255)" stroke-linejoin="round" d="M 2837,6326 L 2837,6426 2937,6426 2937,6326 2837,6326 Z"/>
 <path fill="rgb(102,102,255)" stroke="none" d="M 3021,8522 L 3021,8622 3121,8622 3121,8522 3021,8522 Z"/>
 <path fill="none" stroke="rgb(102,102,255)" stroke-linejoin="round" d="M 3021,8522 L 3021,8622 3121,8622 3121,8522 3021,8522 Z"/>
 <path fill="rgb(102,102,255)" stroke="none" d="M 3206,2953 L 3206,3053 3306,3053 3306,2953 3206,2953 Z"/>
 <path fill="none" stroke="rgb(102,102,255)" stroke-linejoin="round" d="M 3206,2953 L 3206,3053 3306,3053 3306,2953 3206,2953 Z"/>
 <path fill="rgb(102,102,255)" stroke="none" d="M 3391,8258 L 3391,8358 3491,8358 3491,8258 3391,8258 Z"/>
 <path fill="none" stroke="rgb(102,102,255)" stroke-linejoin="round" d="M 3391,8258 L 3391,8358 3491,8358 3491,8258 3391,8258 Z"/>
 <path fill="rgb(102,102,255)" stroke="none" d="M 3576,6914 L 3576,7014 3676,7014 3676,6914 3576,6914 Z"/>
 <path fill="none" stroke="rgb(102,102,255)" stroke-linejoin="round" d="M 3576,6914 L 3576,7014 3676,7014 3676,6914 3576,6914 Z"/>
 <path fill="rgb(102,102,255)" stroke="none" d="M 3761,7246 L 3761,7346 3861,7346 3861,7246 3761,7246 Z"/>
 <path fill="none" stroke="rgb(102,102,255)" stroke-linejoin="round" d="M 3761,7246 L 3761,7346 3861,7346 3861,7246 3761,7246 Z"/>
 <path fill="rgb(102,102,255)" stroke="none" d="M 3946,8265 L 3946,8365 4046,8365 4046,8265 3946,8265 Z"/>
 <path fill="none" stroke="rgb(102,102,255)" stroke-linejoin="round" d="M 3946,8265 L 3946,8365 4046,8365 4046,8265 3946,8265 Z"/>
 <path fill="rgb(102,102,255)" stroke="none" d="M 4130,8839 L 4130,8939 4230,8939 4230,8839 4130,8839 Z"/>
 <path fill="none" stroke="rgb(102,102,255)" stroke-linejoin="round" d="M 4130,8839 L 4130,8939 4230,8939 4230,8839 4130,8839 Z"/>
 <path fill="rgb(102,102,255)" stroke="none" d="M 4315,7118 L 4315,7218 4415,7218 4415,7118 4315,7118 Z"/>
 <path fill="none" stroke="rgb(102,102,255)" stroke-linejoin="round" d="M 4315,7118 L 4315,7218 4415,7218 4415,7118 4315,7118 Z"/>
 <path fill="rgb(102,102,255)" stroke="none" d="M 4500,7684 L 4500,7784 4600,7784 4600,7684 4500,7684 Z"/>
 <path fill="none" stroke="rgb(102,102,255)" stroke-linejoin="round" d="M 4500,7684 L 4500,7784 4600,7784 4600,7684 4500,7684 Z"/>
 <path fill="rgb(102,102,255)" stroke="none" d="M 4685,8356 L 4685,8456 4785,8456 4785,8356 4685,8356 Z"/>
 <path fill="none" stroke="rgb(102,102,255)" stroke-linejoin="round" d="M 4685,8356 L 4685,8456 4785,8456 4785,8356 4685,8356 Z"/>
 <path fill="rgb(102,102,255)" stroke="none" d="M 4870,8137 L 4870,8237 4970,8237 4970,8137 4870,8137 Z"/>
 <path fill="none" stroke="rgb(102,102,255)" stroke-linejoin="round" d="M 4870,8137 L 4870,8237 4970,8237 4970,8137 4870,8137 Z"/>
 <path fill="rgb(102,102,255)" stroke="none" d="M 5055,7948 L 5055,8048 5155,8048 5155,7948 5055,7948 Z"/>
 <path fill="none" stroke="rgb(102,102,255)" stroke-linejoin="round" d="M 5055,7948 L 5055,8048 5155,8048 5155,7948 5055,7948 Z"/>
 <path fill="rgb(102,102,255)" stroke="none" d="M 5239,4168 L 5239,4268 5339,4268 5339,4168 5239,4168 Z"/>
 <path fill="none" stroke="rgb(102,102,255)" stroke-linejoin="round" d="M 5239,4168 L 5239,4268 5339,4268 5339,4168 5239,4168 Z"/>
 <path fill="rgb(102,102,255)" stroke="none" d="M 5424,4824 L 5424,4924 5524,4924 5524,4824 5424,4824 Z"/>
 <path fill="none" stroke="rgb(102,102,255)" stroke-linejoin="round" d="M 5424,4824 L 5424,4924 5524,4924 5524,4824 5424,4824 Z"/>
 <path fill="rgb(102,102,255)" stroke="none" d="M 5609,8454 L 5609,8554 5709,8554 5709,8454 5609,8454 Z"/>
 <path fill="none" stroke="rgb(102,102,255)" stroke-linejoin="round" d="M 5609,8454 L 5609,8554 5709,8554 5709,8454 5609,8454 Z"/>
 <path fill="rgb(102,102,255)" stroke="none" d="M 5794,2681 L 5794,2781 5894,2781 5894,2681 5794,2681 Z"/>
 <path fill="none" stroke="rgb(102,102,255)" stroke-linejoin="round" d="M 5794,2681 L 5794,2781 5894,2781 5894,2681 5794,2681 Z"/>
 <path fill="rgb(102,102,255)" stroke="none" d="M 5979,7480 L 5979,7580 6079,7580 6079,7480 5979,7480 Z"/>
 <path fill="none" stroke="rgb(102,102,255)" stroke-linejoin="round" d="M 5979,7480 L 5979,7580 6079,7580 6079,7480 5979,7480 Z"/>
 <path fill="rgb(102,102,255)" stroke="none" d="M 6164,6756 L 6164,6856 6264,6856 6264,6756 6164,6756 Z"/>
 <path fill="none" stroke="rgb(102,102,255)" stroke-linejoin="round" d="M 6164,6756 L 6164,6856 6264,6856 6264,6756 6164,6756 Z"/>
 <path fill="rgb(102,102,255)" stroke="none" d="M 6348,7186 L 6348,7286 6448,7286 6448,7186 6348,7186 Z"/>
 <path fill="none" stroke="rgb(102,102,255)" stroke-linejoin="round" d="M 6348,7186 L 6348,7286 6448,7286 6448,7186 6348,7186 Z"/>
 <path fill="rgb(102,102,255)" stroke="none" d="M 6533,2802 L 6533,2902 6633,2902 6633,2802 6533,2802 Z"/>
 <path fill="none" stroke="rgb(102,102,255)" stroke-linejoin="round" d="M 6533,2802 L 6533,2902 6633,2902 6633,2802 6533,2802 Z"/>
 <path fill="rgb(102,102,255)" stroke="none" d="M 6718,8997 L 6718,9097 6818,9097 6818,8997 6718,8997 Z"/>
 <path fill="none" stroke="rgb(102,102,255)" stroke-linejoin="round" d="M 6718,8997 L 6718,9097 6818,9097 6818,8997 6718,8997 Z"/>
 <path fill="rgb(102,102,255)" stroke="none" d="M 6903,8582 L 6903,8682 7003,8682 7003,8582 6903,8582 Z"/>
 <path fill="none" stroke="rgb(102,102,255)" stroke-linejoin="round" d="M 6903,8582 L 6903,8682 7003,8682 7003,8582 6903,8582 Z"/>
 <path fill="rgb(102,102,255)" stroke="none" d="M 7088,7714 L 7088,7814 7188,7814 7188,7714 7088,7714 Z"/>
 <path fill="none" stroke="rgb(102,102,255)" stroke-linejoin="round" d="M 7088,7714 L 7088,7814 7188,7814 7188,7714 7088,7714 Z"/>
 <path fill="rgb(102,102,255)" stroke="none" d="M 7273,6734 L 7273,6833 7373,6833 7373,6734 7273,6734 Z"/>
 <path fill="none" stroke="rgb(102,102,255)" stroke-linejoin="round" d="M 7273,6734 L 7273,6833 7373,6833 7373,6734 7273,6734 Z"/>
 <path fill="rgb(102,102,255)" stroke="none" d="M 7458,8326 L 7458,8426 7558,8426 7558,8326 7458,8326 Z"/>
 <path fill="none" stroke="rgb(102,102,255)" stroke-linejoin="round" d="M 7458,8326 L 7458,8426 7558,8426 7558,8326 7458,8326 Z"/>
 <path fill="rgb(102,102,255)" stroke="none" d="M 7642,4047 L 7642,4147 7742,4147 7742,4047 7642,4047 Z"/>
 <path fill="none" stroke="rgb(102,102,255)" stroke-linejoin="round" d="M 7642,4047 L 7642,4147 7742,4147 7742,4047 7642,4047 Z"/>
 <path fill="rgb(102,102,255)" stroke="none" d="M 7827,7126 L 7827,7226 7927,7226 7927,7126 7827,7126 Z"/>
 <path fill="none" stroke="rgb(102,102,255)" stroke-linejoin="round" d="M 7827,7126 L 7827,7226 7927,7226 7927,7126 7827,7126 Z"/>
 <path fill="rgb(102,102,255)" stroke="none" d="M 8012,7737 L 8012,7837 8112,7837 8112,7737 8012,7737 Z"/>
 <path fill="none" stroke="rgb(102,102,255)" stroke-linejoin="round" d="M 8012,7737 L 8012,7837 8112,7837 8112,7737 8012,7737 Z"/>
 <path fill="rgb(102,102,255)" stroke="none" d="M 8197,1835 L 8197,1935 8297,1935 8297,1835 8197,1835 Z"/>
 <path fill="none" stroke="rgb(102,102,255)" stroke-linejoin="round" d="M 8197,1835 L 8197,1935 8297,1935 8297,1835 8197,1835 Z"/>
 <path fill="rgb(102,102,255)" stroke="none" d="M 8382,6990 L 8382,7090 8482,7090 8482,6990 8382,6990 Z"/>
 <path fill="none" stroke="rgb(102,102,255)" stroke-linejoin="round" d="M 8382,6990 L 8382,7090 8482,7090 8482,6990 8382,6990 Z"/>
 <path fill="rgb(102,102,255)" stroke="none" d="M 8567,8658 L 8567,8758 8667,8758 8667,8658 8567,8658 Z"/>
 <path fill="none" stroke="rgb(102,102,255)" stroke-linejoin="round" d="M 8567,8658 L 8567,8758 8667,8758 8667,8658 8567,8658 Z"/>
 <path fill="rgb(102,102,255)" stroke="none" d="M 8751,8243 L 8751,8343 8851,8343 8851,8243 8751,8243 Z"/>
 <path fill="none" stroke="rgb(102,102,255)" stroke-linejoin="round" d="M 8751,8243 L 8751,8343 8851,8343 8851,8243 8751,8243 Z"/>
 <path fill="rgb(102,102,255)" stroke="none" d="M 8936,8711 L 8936,8811 9036,8811 9036,8711 8936,8711 Z"/>
 <path fill="none" stroke="rgb(102,102,255)" stroke-linejoin="round" d="M 8936,8711 L 8936,8811 9036,8811 9036,8711 8936,8711 Z"/>
 <path fill="rgb(102,102,255)" stroke="none" d="M 9121,9292 L 9121,9392 9221,9392 9221,9292 9121,9292 Z"/>
 <path fill="none" stroke="rgb(102,102,255)" stroke-linejoin="round" d="M 9121,9292 L 9121,9392 9221,9392 9221,9292 9121,9292 Z"/>
 <path fill="rgb(102,102,255)" stroke="none" d="M 9306,3624 L 9306,3724 9406,3724 9406,3624 9306,3624 Z"/>
 <path fill="none" stroke="rgb(102,102,255)" stroke-linejoin="round" d="M 9306,3624 L 9306,3724 9406,3724 9406,3624 9306,3624 Z"/>
 <path fill="rgb(102,102,255)" stroke="none" d="M 9491,6387 L 9491,6487 9591,6487 9591,6387 9491,6387 Z"/>
 <path fill="none" stroke="rgb(102,102,255)" stroke-linejoin="round" d="M 9491,6387 L 9491,6487 9591,6487 9591,6387 9491,6387 Z"/>
 <path fill="rgb(102,102,255)" stroke="none" d="M 9676,7873 L 9676,7973 9776,7973 9776,7873 9676,7873 Z"/>
 <path fill="none" stroke="rgb(102,102,255)" stroke-linejoin="round" d="M 9676,7873 L 9676,7973 9776,7973 9776,7873 9676,7873 Z"/>
 <path fill="rgb(102,102,255)" stroke="none" d="M 9860,6183 L 9860,6283 9960,6283 9960,6183 9860,6183 Z"/>
 <path fill="none" stroke="rgb(102,102,255)" stroke-linejoin="round" d="M 9860,6183 L 9860,6283 9960,6283 9960,6183 9860,6183 Z"/>
 <path fill="rgb(102,102,255)" stroke="none" d="M 10045,4032 L 10045,4132 10145,4132 10145,4032 10045,4032 Z"/>
 <path fill="none" stroke="rgb(102,102,255)" stroke-linejoin="round" d="M 10045,4032 L 10045,4132 10145,4132 10145,4032 10045,4032 Z"/>
 <path fill="rgb(102,102,255)" stroke="none" d="M 10230,8054 L 10230,8154 10330,8154 10330,8054 10230,8054 Z"/>
 <path fill="none" stroke="rgb(102,102,255)" stroke-linejoin="round" d="M 10230,8054 L 10230,8154 10330,8154 10330,8054 10230,8054 Z"/>
 <path fill="rgb(102,102,255)" stroke="none" d="M 10415,8212 L 10415,8312 10515,8312 10515,8212 10415,8212 Z"/>
 <path fill="none" stroke="rgb(102,102,255)" stroke-linejoin="round" d="M 10415,8212 L 10415,8312 10515,8312 10515,8212 10415,8212 Z"/>
 <path fill="rgb(102,102,255)" stroke="none" d="M 10600,6771 L 10600,6871 10700,6871 10700,6771 10600,6771 Z"/>
 <path fill="none" stroke="rgb(102,102,255)" stroke-linejoin="round" d="M 10600,6771 L 10600,6871 10700,6871 10700,6771 10600,6771 Z"/>
 <path fill="rgb(102,102,255)" stroke="none" d="M 10785,8273 L 10785,8373 10885,8373 10885,8273 10785,8273 Z"/>
 <path fill="none" stroke="rgb(102,102,255)" stroke-linejoin="round" d="M 10785,8273 L 10785,8373 10885,8373 10885,8273 10785,8273 Z"/>
 <path fill="rgb(102,102,255)" stroke="none" d="M 10969,7843 L 10969,7943 11069,7943 11069,7843 10969,7843 Z"/>
 <path fill="none" stroke="rgb(102,102,255)" stroke-linejoin="round" d="M 10969,7843 L 10969,7943 11069,7943 11069,7843 10969,7843 Z"/>
 <path fill="rgb(102,102,255)" stroke="none" d="M 11154,7488 L 11154,7588 11254,7588 11254,7488 11154,7488 Z"/>
 <path fill="none" stroke="rgb(102,102,255)" stroke-linejoin="round" d="M 11154,7488 L 11154,7588 11254,7588 11254,7488 11154,7488 Z"/>
 <path fill="rgb(102,102,255)" stroke="none" d="M 11339,8628 L 11339,8728 11439,8728 11439,8628 11339,8628 Z"/>
 <path fill="none" stroke="rgb(102,102,255)" stroke-linejoin="round" d="M 11339,8628 L 11339,8728 11439,8728 11439,8628 11339,8628 Z"/>
 <path fill="rgb(102,102,255)" stroke="none" d="M 11524,7858 L 11524,7958 11624,7958 11624,7858 11524,7858 Z"/>
 <path fill="none" stroke="rgb(102,102,255)" stroke-linejoin="round" d="M 11524,7858 L 11524,7958 11624,7958 11624,7858 11524,7858 Z"/>
 <path fill="rgb(102,102,255)" stroke="none" d="M 11709,7978 L 11709,8078 11809,8078 11809,7978 11709,7978 Z"/>
 <path fill="none" stroke="rgb(102,102,255)" stroke-linejoin="round" d="M 11709,7978 L 11709,8078 11809,8078 11809,7978 11709,7978 Z"/>
 <path fill="rgb(102,102,255)" stroke="none" d="M 11894,7986 L 11894,8086 11994,8086 11994,7986 11894,7986 Z"/>
 <path fill="none" stroke="rgb(102,102,255)" stroke-linejoin="round" d="M 11894,7986 L 11894,8086 11994,8086 11994,7986 11894,7986 Z"/>
 <path fill="rgb(102,102,255)" stroke="none" d="M 12079,8869 L 12079,8969 12179,8969 12179,8869 12079,8869 Z"/>
 <path fill="none" stroke="rgb(102,102,255)" stroke-linejoin="round" d="M 12079,8869 L 12079,8969 12179,8969 12179,8869 12079,8869 Z"/>
 <path fill="rgb(102,102,255)" stroke="none" d="M 12263,8205 L 12263,8305 12363,8305 12363,8205 12263,8205 Z"/>
 <path fill="none" stroke="rgb(102,102,255)" stroke-linejoin="round" d="M 12263,8205 L 12263,8305 12363,8305 12363,8205 12263,8205 Z"/>
 <path fill="rgb(102,102,255)" stroke="none" d="M 12448,6515 L 12448,6615 12548,6615 12548,6515 12448,6515 Z"/>
 <path fill="none" stroke="rgb(102,102,255)" stroke-linejoin="round" d="M 12448,6515 L 12448,6615 12548,6615 12548,6515 12448,6515 Z"/>
 <path fill="rgb(102,102,255)" stroke="none" d="M 12633,8212 L 12633,8312 12733,8312 12733,8212 12633,8212 Z"/>
 <path fill="none" stroke="rgb(102,102,255)" stroke-linejoin="round" d="M 12633,8212 L 12633,8312 12733,8312 12733,8212 12633,8212 Z"/>
 <path fill="rgb(102,102,255)" stroke="none" d="M 12818,5926 L 12818,6026 12918,6026 12918,5926 12818,5926 Z"/>
 <path fill="none" stroke="rgb(102,102,255)" stroke-linejoin="round" d="M 12818,5926 L 12818,6026 12918,6026 12918,5926 12818,5926 Z"/>
 <path fill="rgb(102,102,255)" stroke="none" d="M 13003,8552 L 13003,8652 13103,8652 13103,8552 13003,8552 Z"/>
 <path fill="none" stroke="rgb(102,102,255)" stroke-linejoin="round" d="M 13003,8552 L 13003,8652 13103,8652 13103,8552 13003,8552 Z"/>
 <path fill="rgb(102,102,255)" stroke="none" d="M 13188,5368 L 13188,5468 13288,5468 13288,5368 13188,5368 Z"/>
 <path fill="none" stroke="rgb(102,102,255)" stroke-linejoin="round" d="M 13188,5368 L 13188,5468 13288,5468 13288,5368 13188,5368 Z"/>
 <path fill="rgb(102,102,255)" stroke="none" d="M 13371,7978 L 13371,8078 13471,8078 13471,7978 13371,7978 Z"/>
 <path fill="none" stroke="rgb(102,102,255)" stroke-linejoin="round" d="M 13371,7978 L 13371,8078 13471,8078 13471,7978 13371,7978 Z"/>
 <path fill="rgb(102,102,255)" stroke="none" d="M 13556,9254 L 13556,9354 13656,9354 13656,9254 13556,9254 Z"/>
 <path fill="none" stroke="rgb(102,102,255)" stroke-linejoin="round" d="M 13556,9254 L 13556,9354 13656,9354 13656,9254 13556,9254 Z"/>
 <path fill="rgb(102,102,255)" stroke="none" d="M 13741,8220 L 13741,8320 13841,8320 13841,8220 13741,8220 Z"/>
 <path fill="none" stroke="rgb(102,102,255)" stroke-linejoin="round" d="M 13741,8220 L 13741,8320 13841,8320 13841,8220 13741,8220 Z"/>
 <path fill="rgb(102,102,255)" stroke="none" d="M 13926,5730 L 13926,5830 14026,5830 14026,5730 13926,5730 Z"/>
 <path fill="none" stroke="rgb(102,102,255)" stroke-linejoin="round" d="M 13926,5730 L 13926,5830 14026,5830 14026,5730 13926,5730 Z"/>
 <path fill="rgb(102,102,255)" stroke="none" d="M 14111,6613 L 14111,6713 14211,6713 14211,6613 14111,6613 Z"/>
 <path fill="none" stroke="rgb(102,102,255)" stroke-linejoin="round" d="M 14111,6613 L 14111,6713 14211,6713 14211,6613 14111,6613 Z"/>
 <path fill="rgb(102,102,255)" stroke="none" d="M 14296,9111 L 14296,9211 14396,9211 14396,9111 14296,9111 Z"/>
 <path fill="none" stroke="rgb(102,102,255)" stroke-linejoin="round" d="M 14296,9111 L 14296,9211 14396,9211 14396,9111 14296,9111 Z"/>
 <path fill="rgb(102,102,255)" stroke="none" d="M 14480,4734 L 14480,4834 14580,4834 14580,4734 14480,4734 Z"/>
 <path fill="none" stroke="rgb(102,102,255)" stroke-linejoin="round" d="M 14480,4734 L 14480,4834 14580,4834 14580,4734 14480,4734 Z"/>
 <path fill="rgb(102,102,255)" stroke="none" d="M 14665,7820 L 14665,7920 14765,7920 14765,7820 14665,7820 Z"/>
 <path fill="none" stroke="rgb(102,102,255)" stroke-linejoin="round" d="M 14665,7820 L 14665,7920 14765,7920 14765,7820 14665,7820 Z"/>
 <path fill="rgb(102,102,255)" stroke="none" d="M 14850,8507 L 14850,8607 14950,8607 14950,8507 14850,8507 Z"/>
 <path fill="none" stroke="rgb(102,102,255)" stroke-linejoin="round" d="M 14850,8507 L 14850,8607 14950,8607 14950,8507 14850,8507 Z"/>
 <path fill="rgb(102,102,255)" stroke="none" d="M 15035,9375 L 15035,9475 15135,9475 15135,9375 15035,9375 Z"/>
 <path fill="none" stroke="rgb(102,102,255)" stroke-linejoin="round" d="M 15035,9375 L 15035,9475 15135,9475 15135,9375 15035,9375 Z"/>
 <path fill="rgb(102,102,255)" stroke="none" d="M 15220,9594 L 15220,9694 15320,9694 15320,9594 15220,9594 Z"/>
 <path fill="none" stroke="rgb(102,102,255)" stroke-linejoin="round" d="M 15220,9594 L 15220,9694 15320,9694 15320,9594 15220,9594 Z"/>
 <path fill="rgb(102,102,255)" stroke="none" d="M 15405,9367 L 15405,9467 15505,9467 15505,9367 15405,9367 Z"/>
 <path fill="none" stroke="rgb(102,102,255)" stroke-linejoin="round" d="M 15405,9367 L 15405,9467 15505,9467 15505,9367 15405,9367 Z"/>
 <path fill="rgb(102,102,255)" stroke="none" d="M 15589,8318 L 15589,8418 15689,8418 15689,8318 15589,8318 Z"/>
 <path fill="none" stroke="rgb(102,102,255)" stroke-linejoin="round" d="M 15589,8318 L 15589,8418 15689,8418 15689,8318 15589,8318 Z"/>
 <path fill="rgb(102,102,255)" stroke="none" d="M 15774,6666 L 15774,6765 15874,6765 15874,6666 15774,6666 Z"/>
 <path fill="none" stroke="rgb(102,102,255)" stroke-linejoin="round" d="M 15774,6666 L 15774,6765 15874,6765 15874,6666 15774,6666 Z"/>
 <path fill="rgb(102,102,255)" stroke="none" d="M 15959,7888 L 15959,7988 16059,7988 16059,7888 15959,7888 Z"/>
 <path fill="none" stroke="rgb(102,102,255)" stroke-linejoin="round" d="M 15959,7888 L 15959,7988 16059,7988 16059,7888 15959,7888 Z"/>
 <path fill="rgb(102,102,255)" stroke="none" d="M 16144,8952 L 16144,9052 16244,9052 16244,8952 16144,8952 Z"/>
 <path fill="none" stroke="rgb(102,102,255)" stroke-linejoin="round" d="M 16144,8952 L 16144,9052 16244,9052 16244,8952 16144,8952 Z"/>
 <path fill="rgb(102,102,255)" stroke="none" d="M 16329,8107 L 16329,8207 16429,8207 16429,8107 16329,8107 Z"/>
 <path fill="none" stroke="rgb(102,102,255)" stroke-linejoin="round" d="M 16329,8107 L 16329,8207 16429,8207 16429,8107 16329,8107 Z"/>
 <path fill="rgb(102,102,255)" stroke="none" d="M 16514,8582 L 16514,8682 16614,8682 16614,8582 16514,8582 Z"/>
 <path fill="none" stroke="rgb(102,102,255)" stroke-linejoin="round" d="M 16514,8582 L 16514,8682 16614,8682 16614,8582 16514,8582 Z"/>
 <path fill="rgb(102,102,255)" stroke="none" d="M 16699,7510 L 16699,7610 16799,7610 16799,7510 16699,7510 Z"/>
 <path fill="none" stroke="rgb(102,102,255)" stroke-linejoin="round" d="M 16699,7510 L 16699,7610 16799,7610 16799,7510 16699,7510 Z"/>
 <path fill="rgb(102,102,255)" stroke="none" d="M 16883,9458 L 16883,9558 16983,9558 16983,9458 16883,9458 Z"/>
 <path fill="none" stroke="rgb(102,102,255)" stroke-linejoin="round" d="M 16883,9458 L 16883,9558 16983,9558 16983,9458 16883,9458 Z"/>
 <path fill="rgb(102,102,255)" stroke="none" d="M 17068,5768 L 17068,5868 17168,5868 17168,5768 17068,5768 Z"/>
 <path fill="none" stroke="rgb(102,102,255)" stroke-linejoin="round" d="M 17068,5768 L 17068,5868 17168,5868 17168,5768 17068,5768 Z"/>
 <path fill="rgb(102,102,255)" stroke="none" d="M 17253,7677 L 17253,7777 17353,7777 17353,7677 17253,7677 Z"/>
 <path fill="none" stroke="rgb(102,102,255)" stroke-linejoin="round" d="M 17253,7677 L 17253,7777 17353,7777 17353,7677 17253,7677 Z"/>
 <path fill="rgb(102,102,255)" stroke="none" d="M 17438,8152 L 17438,8252 17538,8252 17538,8152 17438,8152 Z"/>
 <path fill="none" stroke="rgb(102,102,255)" stroke-linejoin="round" d="M 17438,8152 L 17438,8252 17538,8252 17538,8152 17438,8152 Z"/>
 <path fill="rgb(102,102,255)" stroke="none" d="M 17623,6319 L 17623,6419 17723,6419 17723,6319 17623,6319 Z"/>
 <path fill="none" stroke="rgb(102,102,255)" stroke-linejoin="round" d="M 17623,6319 L 17623,6419 17723,6419 17723,6319 17623,6319 Z"/>
 <path fill="rgb(102,102,255)" stroke="none" d="M 17808,8643 L 17808,8743 17908,8743 17908,8643 17808,8643 Z"/>
 <path fill="none" stroke="rgb(102,102,255)" stroke-linejoin="round" d="M 17808,8643 L 17808,8743 17908,8743 17908,8643 17808,8643 Z"/>
 <path fill="rgb(102,102,255)" stroke="none" d="M 17992,8748 L 17992,8848 18092,8848 18092,8748 17992,8748 Z"/>
 <path fill="none" stroke="rgb(102,102,255)" stroke-linejoin="round" d="M 17992,8748 L 17992,8848 18092,8848 18092,8748 17992,8748 Z"/>
 <path fill="rgb(102,102,255)" stroke="none" d="M 18177,8763 L 18177,8863 18277,8863 18277,8763 18177,8763 Z"/>
 <path fill="none" stroke="rgb(102,102,255)" stroke-linejoin="round" d="M 18177,8763 L 18177,8863 18277,8863 18277,8763 18177,8763 Z"/>
 <path fill="rgb(102,102,255)" stroke="none" d="M 18362,9292 L 18362,9392 18462,9392 18462,9292 18362,9292 Z"/>
 <path fill="none" stroke="rgb(102,102,255)" stroke-linejoin="round" d="M 18362,9292 L 18362,9392 18462,9392 18462,9292 18362,9292 Z"/>
 <path fill="rgb(102,102,255)" stroke="none" d="M 18547,7760 L 18547,7860 18647,7860 18647,7760 18547,7760 Z"/>
 <path fill="none" stroke="rgb(102,102,255)" stroke-linejoin="round" d="M 18547,7760 L 18547,7860 18647,7860 18647,7760 18547,7760 Z"/>
 <path fill="rgb(102,102,255)" stroke="none" d="M 18732,9775 L 18732,9875 18832,9875 18832,9775 18732,9775 Z"/>
 <path fill="none" stroke="rgb(102,102,255)" stroke-linejoin="round" d="M 18732,9775 L 18732,9875 18832,9875 18832,9775 18732,9775 Z"/>
 <path fill="rgb(102,102,255)" stroke="none" d="M 18917,6002 L 18917,6102 19017,6102 19017,6002 18917,6002 Z"/>
 <path fill="none" stroke="rgb(102,102,255)" stroke-linejoin="round" d="M 18917,6002 L 18917,6102 19017,6102 19017,6002 18917,6002 Z"/>
 <path fill="rgb(102,102,255)" stroke="none" d="M 19101,9080 L 19101,9180 19201,9180 19201,9080 19101,9080 Z"/>
 <path fill="none" stroke="rgb(102,102,255)" stroke-linejoin="round" d="M 19101,9080 L 19101,9180 19201,9180 19201,9080 19101,9080 Z"/>
 <path fill="rgb(102,102,255)" stroke="none" d="M 19286,9616 L 19286,9716 19386,9716 19386,9616 19286,9616 Z"/>
 <path fill="none" stroke="rgb(102,102,255)" stroke-linejoin="round" d="M 19286,9616 L 19286,9716 19386,9716 19386,9616 19286,9616 Z"/>
 <path fill="rgb(102,102,255)" stroke="none" d="M 19471,8922 L 19471,9022 19571,9022 19571,8922 19471,8922 Z"/>
 <path fill="none" stroke="rgb(102,102,255)" stroke-linejoin="round" d="M 19471,8922 L 19471,9022 19571,9022 19571,8922 19471,8922 Z"/>
 <path fill="rgb(102,102,255)" stroke="none" d="M 19656,8695 L 19656,8795 19756,8795 19756,8695 19656,8695 Z"/>
 <path fill="none" stroke="rgb(102,102,255)" stroke-linejoin="round" d="M 19656,8695 L 19656,8795 19756,8795 19756,8695 19656,8695 Z"/>
 <path fill="rgb(102,102,255)" stroke="none" d="M 19841,9133 L 19841,9233 19941,9233 19941,9133 19841,9133 Z"/>
 <path fill="none" stroke="rgb(102,102,255)" stroke-linejoin="round" d="M 19841,9133 L 19841,9233 19941,9233 19941,9133 19841,9133 Z"/>
 <path fill="rgb(102,102,255)" stroke="none" d="M 20026,9564 L 20026,9664 20126,9664 20126,9564 20026,9564 Z"/>
 <path fill="none" stroke="rgb(102,102,255)" stroke-linejoin="round" d="M 20026,9564 L 20026,9664 20126,9664 20126,9564 20026,9564 Z"/>
 <path fill="rgb(102,102,255)" stroke="none" d="M 20210,9518 L 20210,9618 20310,9618 20310,9518 20210,9518 Z"/>
 <path fill="none" stroke="rgb(102,102,255)" stroke-linejoin="round" d="M 20210,9518 L 20210,9618 20310,9618 20310,9518 20210,9518 Z"/>
 <path fill="rgb(102,102,255)" stroke="none" d="M 20395,8839 L 20395,8939 20495,8939 20495,8839 20395,8839 Z"/>
 <path fill="none" stroke="rgb(102,102,255)" stroke-linejoin="round" d="M 20395,8839 L 20395,8939 20495,8939 20495,8839 20395,8839 Z"/>
 <path fill="rgb(102,102,255)" stroke="none" d="M 20580,7103 L 20580,7203 20680,7203 20680,7103 20580,7103 Z"/>
 <path fill="none" stroke="rgb(102,102,255)" stroke-linejoin="round" d="M 20580,7103 L 20580,7203 20680,7203 20680,7103 20580,7103 Z"/>
 <path fill="rgb(102,102,255)" stroke="none" d="M 20765,9231 L 20765,9331 20865,9331 20865,9231 20765,9231 Z"/>
 <path fill="none" stroke="rgb(102,102,255)" stroke-linejoin="round" d="M 20765,9231 L 20765,9331 20865,9331 20865,9231 20765,9231 Z"/>
 <path fill="rgb(102,102,255)" stroke="none" d="M 20950,9096 L 20950,9196 21050,9196 21050,9096 20950,9096 Z"/>
 <path fill="none" stroke="rgb(102,102,255)" stroke-linejoin="round" d="M 20950,9096 L 20950,9196 21050,9196 21050,9096 20950,9096 Z"/>
 <path fill="rgb(102,102,255)" stroke="none" d="M 21135,9624 L 21135,9724 21235,9724 21235,9624 21135,9624 Z"/>
 <path fill="none" stroke="rgb(102,102,255)" stroke-linejoin="round" d="M 21135,9624 L 21135,9724 21235,9724 21235,9624 21135,9624 Z"/>
 <path fill="rgb(102,102,255)" stroke="none" d="M 21320,9465 L 21320,9565 21420,9565 21420,9465 21320,9465 Z"/>
 <path fill="none" stroke="rgb(102,102,255)" stroke-linejoin="round" d="M 21320,9465 L 21320,9565 21420,9565 21420,9465 21320,9465 Z"/>
 <text class="TextShape"><tspan class="TextParagraph" font-family="Liberation Sans, sans-serif" font-size="353px" font-weight="400"><tspan class="TextPosition" x="2794" y="11601"><tspan fill="rgb(0,0,0)" stroke="none">0</tspan></tspan></tspan></text>
 <text class="TextShape"><tspan class="TextParagraph" font-family="Liberation Sans, sans-serif" font-size="353px" font-weight="400"><tspan class="TextPosition" x="4497" y="11601"><tspan fill="rgb(0,0,0)" stroke="none">0.1</tspan></tspan></tspan></text>
 <text class="TextShape"><tspan class="TextParagraph" font-family="Liberation Sans, sans-serif" font-size="353px" font-weight="400"><tspan class="TextPosition" x="6345" y="11601"><tspan fill="rgb(0,0,0)" stroke="none">0.2</tspan></tspan></tspan></text>
 <text class="TextShape"><tspan class="TextParagraph" font-family="Liberation Sans, sans-serif" font-size="353px" font-weight="400"><tspan class="TextPosition" x="8194" y="11601"><tspan fill="rgb(0,0,0)" stroke="none">0.3</tspan></tspan></tspan></text>
 <text class="TextShape"><tspan class="TextParagraph" font-family="Liberation Sans, sans-serif" font-size="353px" font-weight="400"><tspan class="TextPosition" x="10042" y="11601"><tspan fill="rgb(0,0,0)" stroke="none">0.4</tspan></tspan></tspan></text>
 <text class="TextShape"><tspan class="TextParagraph" font-family="Liberation Sans, sans-serif" font-size="353px" font-weight="400"><tspan class="TextPosition" x="11891" y="11601"><tspan fill="rgb(0,0,0)" stroke="none">0.5</tspan></tspan></tspan></text>
 <text class="TextShape"><tspan class="TextParagraph" font-family="Liberation Sans, sans-serif" font-size="353px" font-weight="400"><tspan class="TextPosition" x="13739" y="11601"><tspan fill="rgb(0,0,0)" stroke="none">0.6</tspan></tspan></tspan></text>
 <text class="TextShape"><tspan class="TextParagraph" font-family="Liberation Sans, sans-serif" font-size="353px" font-weight="400"><tspan class="TextPosition" x="15587" y="11601"><tspan fill="rgb(0,0,0)" stroke="none">0.7</tspan></tspan></tspan></text>
 <text class="TextShape"><tspan class="TextParagraph" font-family="Liberation Sans, sans-serif" font-size="353px" font-weight="400"><tspan class="TextPosition" x="17436" y="11601"><tspan fill="rgb(0,0,0)" stroke="none">0.8</tspan></tspan></tspan></text>
 <text class="TextShape"><tspan class="TextParagraph" font-family="Liberation Sans, sans-serif" font-size="353px" font-weight="400"><tspan class="TextPosition" x="19284" y="11601"><tspan fill="rgb(0,0,0)" stroke="none">0.9</tspan></tspan></tspan></text>
 <text class="TextShape"><tspan class="TextParagraph" font-family="Liberation Sans, sans-serif" font-size="353px" font-weight="400"><tspan class="TextPosition" x="21278" y="11601"><tspan fill="rgb(0,0,0)" stroke="none">1</tspan></tspan></tspan></text>
 <text class="TextShape"><tspan class="TextParagraph" font-family="Liberation Sans, sans-serif" font-size="353px" font-weight="400"><tspan class="TextPosition" x="2452" y="11154"><tspan fill="rgb(0,0,0)" stroke="none">0</tspan></tspan></tspan></text>
 <text class="TextShape"><tspan class="TextParagraph" font-family="Liberation Sans, sans-serif" font-size="353px" font-weight="400"><tspan class="TextPosition" x="2081" y="9644"><tspan fill="rgb(0,0,0)" stroke="none">200</tspan></tspan></tspan></text>
 <text class="TextShape"><tspan class="TextParagraph" font-family="Liberation Sans, sans-serif" font-size="353px" font-weight="400"><tspan class="TextPosition" x="2081" y="8134"><tspan fill="rgb(0,0,0)" stroke="none">400</tspan></tspan></tspan></text>
 <text class="TextShape"><tspan class="TextParagraph" font-family="Liberation Sans, sans-serif" font-size="353px" font-weight="400"><tspan class="TextPosition" x="2081" y="6625"><tspan fill="rgb(0,0,0)" stroke="none">600</tspan></tspan></tspan></text>
 <text class="TextShape"><tspan class="TextParagraph" font-family="Liberation Sans, sans-serif" font-size="353px" font-weight="400"><tspan class="TextPosition" x="2081" y="5115"><tspan fill="rgb(0,0,0)" stroke="none">800</tspan></tspan></tspan></text>
 <text class="TextShape"><tspan class="TextParagraph" font-family="Liberation Sans, sans-serif" font-size="353px" font-weight="400"><tspan class="TextPosition" x="1896" y="3606"><tspan fill="rgb(0,0,0)" stroke="none">1000</tspan></tspan></tspan></text>
 <text class="TextShape"><tspan class="TextParagraph" font-family="Liberation Sans, sans-serif" font-size="353px" font-weight="400"><tspan class="TextPosition" x="1896" y="2096"><tspan fill="rgb(0,0,0)" stroke="none">1200</tspan></tspan></tspan></text>
 <text class="TextShape"><tspan class="TextParagraph" font-family="Liberation Sans, sans-serif" font-size="353px" font-weight="400"><tspan class="TextPosition" x="1896" y="587"><tspan fill="rgb(0,0,0)" stroke="none">1400</tspan></tspan></tspan></text>
 <path fill="none" stroke="rgb(102,102,255)" stroke-width="80" stroke-linejoin="round" d="M 22321,6458 L 23121,6458"/>
 <path fill="rgb(102,102,255)" stroke="none" d="M 22594,6331 L 22594,6585 22848,6585 22848,6331 22594,6331 Z"/>
 <path fill="none" stroke="rgb(102,102,255)" stroke-linejoin="round" d="M 22594,6331 L 22594,6585 22848,6585 22848,6331 22594,6331 Z"/>
 <path fill="none" stroke="rgb(255,51,51)" stroke-width="80" stroke-linejoin="round" d="M 22321,7008 L 23121,7008"/>
 <path fill="rgb(255,51,51)" stroke="none" d="M 22594,6881 L 22594,7135 22848,7135 22848,6881 22594,6881 Z"/>
 <path fill="none" stroke="rgb(255,51,51)" stroke-linejoin="round" d="M 22594,6881 L 22594,7135 22848,7135 22848,6881 22594,6881 Z"/>
 <text class="TextShape"><tspan class="TextParagraph" font-family="Liberation Sans, sans-serif" font-size="423px" font-weight="400"><tspan class="TextPosition" x="23221" y="6603"><tspan fill="rgb(0,0,0)" stroke="none">valeur_maximum</tspan></tspan></tspan></text>
 <text class="TextShape"><tspan class="TextParagraph" font-family="Liberation Sans, sans-serif" font-size="423px" font-weight="400"><tspan class="TextPosition" x="23221" y="7153"><tspan fill="rgb(0,0,0)" stroke="none">valeur_moyenne</tspan></tspan></tspan></text>
 <text class="TextShape"><tspan class="TextParagraph" font-family="Liberation Sans, sans-serif" font-size="635px" font-weight="400"><tspan class="TextPosition" x="8081" y="12724"><tspan fill="rgb(0,0,0)" stroke="none">probabilit d&apos;aller tout droit</tspan></tspan></tspan></text>
 <text class="TextShape" transform="translate(1224,6437) rotate(-90) translate(-1224,-6437)"><tspan class="TextParagraph" font-family="Liberation Sans, sans-serif" font-size="635px" font-weight="400"><tspan class="TextPosition" x="1224" y="6437"><tspan fill="rgb(0,0,0)" stroke="none">IWI</tspan></tspan></tspan></text>
</svg>