<?xml version="1.0" encoding="UTF-8"?>
<!DOCTYPE svg PUBLIC "-//W3C//DTD SVG 1.1//EN" "http://www.w3.org/Graphics/SVG/1.1/DTD/svg11.dtd">
<svg width="202mm" height="131mm" viewBox="0 0 20200 13100" version="1.1" xmlns="http://www.w3.org/2000/svg" stroke-width="28.222" stroke-linejoin="round" xml:space="preserve">
 <path fill="rgb(255,255,255)" stroke="none" d="M 10122,13069 L 0,13069 0,0 20243,0 20243,13069 10122,13069 Z"/>
 <path fill="none" stroke="rgb(179,179,179)" stroke-linejoin="round" d="M 8962,10644 L 2758,10644 2758,460 15166,460 15166,10644 8962,10644 Z"/>
 <path fill="none" stroke="rgb(179,179,179)" stroke-linejoin="round" d="M 15165,10643 L 2758,10643"/>
 <path fill="none" stroke="rgb(179,179,179)" stroke-linejoin="round" d="M 15165,9624 L 2758,9624"/>
 <path fill="none" stroke="rgb(179,179,179)" stroke-linejoin="round" d="M 15165,8606 L 2758,8606"/>
 <path fill="none" stroke="rgb(179,179,179)" stroke-linejoin="round" d="M 15165,7587 L 2758,7587"/>
 <path fill="none" stroke="rgb(179,179,179)" stroke-linejoin="round" d="M 15165,6569 L 2758,6569"/>
 <path fill="none" stroke="rgb(179,179,179)" stroke-linejoin="round" d="M 15165,5551 L 2758,5551"/>
 <path fill="none" stroke="rgb(179,179,179)" stroke-linejoin="round" d="M 15165,4533 L 2758,4533"/>
 <path fill="none" stroke="rgb(179,179,179)" stroke-linejoin="round" d="M 15165,3514 L 2758,3514"/>
 <path fill="none" stroke="rgb(179,179,179)" stroke-linejoin="round" d="M 15165,2496 L 2758,2496"/>
 <path fill="none" stroke="rgb(179,179,179)" stroke-linejoin="round" d="M 15165,1477 L 2758,1477"/>
 <path fill="none" stroke="rgb(179,179,179)" stroke-linejoin="round" d="M 15165,459 L 2758,459"/>
 <path fill="none" stroke="rgb(179,179,179)" stroke-linejoin="round" d="M 2758,10793 L 2758,10643"/>
 <path fill="none" stroke="rgb(179,179,179)" stroke-linejoin="round" d="M 2758,10793 L 2758,10643"/>
 <path fill="none" stroke="rgb(179,179,179)" stroke-linejoin="round" d="M 4136,10793 L 4136,10643"/>
 <path fill="none" stroke="rgb(179,179,179)" stroke-linejoin="round" d="M 4136,10793 L 4136,10643"/>
 <path fill="none" stroke="rgb(179,179,179)" stroke-linejoin="round" d="M 5515,10793 L 5515,10643"/>
 <path fill="none" stroke="rgb(179,179,179)" stroke-linejoin="round" d="M 5515,10793 L 5515,10643"/>
 <path fill="none" stroke="rgb(179,179,179)" stroke-linejoin="round" d="M 6894,10793 L 6894,10643"/>
 <path fill="none" stroke="rgb(179,179,179)" stroke-linejoin="round" d="M 6894,10793 L 6894,10643"/>
 <path fill="none" stroke="rgb(179,179,179)" stroke-linejoin="round" d="M 8273,10793 L 8273,10643"/>
 <path fill="none" stroke="rgb(179,179,179)" stroke-linejoin="round" d="M 8273,10793 L 8273,10643"/>
 <path fill="none" stroke="rgb(179,179,179)" stroke-linejoin="round" d="M 9651,10793 L 9651,10643"/>
 <path fill="none" stroke="rgb(179,179,179)" stroke-linejoin="round" d="M 9651,10793 L 9651,10643"/>
 <path fill="none" stroke="rgb(179,179,179)" stroke-linejoin="round" d="M 11029,10793 L 11029,10643"/>
 <path fill="none" stroke="rgb(179,179,179)" stroke-linejoin="round" d="M 11029,10793 L 11029,10643"/>
 <path fill="none" stroke="rgb(179,179,179)" stroke-linejoin="round" d="M 12408,10793 L 12408,10643"/>
 <path fill="none" stroke="rgb(179,179,179)" stroke-linejoin="round" d="M 12408,10793 L 12408,10643"/>
 <path fill="none" stroke="rgb(179,179,179)" stroke-linejoin="round" d="M 13787,10793 L 13787,10643"/>
 <path fill="none" stroke="rgb(179,179,179)" stroke-linejoin="round" d="M 13787,10793 L 13787,10643"/>
 <path fill="none" stroke="rgb(179,179,179)" stroke-linejoin="round" d="M 15165,10793 L 15165,10643"/>
 <path fill="none" stroke="rgb(179,179,179)" stroke-linejoin="round" d="M 15165,10793 L 15165,10643"/>
 <path fill="none" stroke="rgb(179,179,179)" stroke-linejoin="round" d="M 2758,10643 L 15165,10643"/>
 <path fill="none" stroke="rgb(179,179,179)" stroke-linejoin="round" d="M 2608,10643 L 2758,10643"/>
 <path fill="none" stroke="rgb(179,179,179)" stroke-linejoin="round" d="M 2608,10643 L 2758,10643"/>
 <path fill="none" stroke="rgb(179,179,179)" stroke-linejoin="round" d="M 2608,9624 L 2758,9624"/>
 <path fill="none" stroke="rgb(179,179,179)" stroke-linejoin="round" d="M 2608,9624 L 2758,9624"/>
 <path fill="none" stroke="rgb(179,179,179)" stroke-linejoin="round" d="M 2608,8606 L 2758,8606"/>
 <path fill="none" stroke="rgb(179,179,179)" stroke-linejoin="round" d="M 2608,8606 L 2758,8606"/>
 <path fill="none" stroke="rgb(179,179,179)" stroke-linejoin="round" d="M 2608,7587 L 2758,7587"/>
 <path fill="none" stroke="rgb(179,179,179)" stroke-linejoin="round" d="M 2608,7587 L 2758,7587"/>
 <path fill="none" stroke="rgb(179,179,179)" stroke-linejoin="round" d="M 2608,6569 L 2758,6569"/>
 <path fill="none" stroke="rgb(179,179,179)" stroke-linejoin="round" d="M 2608,6569 L 2758,6569"/>
 <path fill="none" stroke="rgb(179,179,179)" stroke-linejoin="round" d="M 2608,5551 L 2758,5551"/>
 <path fill="none" stroke="rgb(179,179,179)" stroke-linejoin="round" d="M 2608,5551 L 2758,5551"/>
 <path fill="none" stroke="rgb(179,179,179)" stroke-linejoin="round" d="M 2608,4533 L 2758,4533"/>
 <path fill="none" stroke="rgb(179,179,179)" stroke-linejoin="round" d="M 2608,4533 L 2758,4533"/>
 <path fill="none" stroke="rgb(179,179,179)" stroke-linejoin="round" d="M 2608,3514 L 2758,3514"/>
 <path fill="none" stroke="rgb(179,179,179)" stroke-linejoin="round" d="M 2608,3514 L 2758,3514"/>
 <path fill="none" stroke="rgb(179,179,179)" stroke-linejoin="round" d="M 2608,2496 L 2758,2496"/>
 <path fill="none" stroke="rgb(179,179,179)" stroke-linejoin="round" d="M 2608,2496 L 2758,2496"/>
 <path fill="none" stroke="rgb(179,179,179)" stroke-linejoin="round" d="M 2608,1477 L 2758,1477"/>
 <path fill="none" stroke="rgb(179,179,179)" stroke-linejoin="round" d="M 2608,1477 L 2758,1477"/>
 <path fill="none" stroke="rgb(179,179,179)" stroke-linejoin="round" d="M 2608,459 L 2758,459"/>
 <path fill="none" stroke="rgb(179,179,179)" stroke-linejoin="round" d="M 2608,459 L 2758,459"/>
 <path fill="none" stroke="rgb(179,179,179)" stroke-linejoin="round" d="M 2758,10643 L 2758,459"/>
 <path fill="none" stroke="rgb(255,51,51)" stroke-width="80" stroke-linejoin="round" d="M 2758,6498 L 4136,8971 5515,9569 6894,9796 8273,9948 9651,10093 11029,10172 12408,10219 13787,10283 15165,10301"/>
 <path fill="rgb(255,51,51)" stroke="none" d="M 2708,6448 L 2708,6547 2808,6547 2808,6448 2708,6448 Z"/>
 <path fill="none" stroke="rgb(255,51,51)" stroke-linejoin="round" d="M 2708,6448 L 2708,6547 2808,6547 2808,6448 2708,6448 Z"/>
 <path fill="rgb(255,51,51)" stroke="none" d="M 4086,8921 L 4086,9021 4186,9021 4186,8921 4086,8921 Z"/>
 <path fill="none" stroke="rgb(255,51,51)" stroke-linejoin="round" d="M 4086,8921 L 4086,9021 4186,9021 4186,8921 4086,8921 Z"/>
 <path fill="rgb(255,51,51)" stroke="none" d="M 5465,9519 L 5465,9619 5565,9619 5565,9519 5465,9519 Z"/>
 <path fill="none" stroke="rgb(255,51,51)" stroke-linejoin="round" d="M 5465,9519 L 5465,9619 5565,9619 5565,9519 5465,9519 Z"/>
 <path fill="rgb(255,51,51)" stroke="none" d="M 6844,9746 L 6844,9846 6944,9846 6944,9746 6844,9746 Z"/>
 <path fill="none" stroke="rgb(255,51,51)" stroke-linejoin="round" d="M 6844,9746 L 6844,9846 6944,9846 6944,9746 6844,9746 Z"/>
 <path fill="rgb(255,51,51)" stroke="none" d="M 8223,9898 L 8223,9998 8323,9998 8323,9898 8223,9898 Z"/>
 <path fill="none" stroke="rgb(255,51,51)" stroke-linejoin="round" d="M 8223,9898 L 8223,9998 8323,9998 8323,9898 8223,9898 Z"/>
 <path fill="rgb(255,51,51)" stroke="none" d="M 9601,10043 L 9601,10143 9701,10143 9701,10043 9601,10043 Z"/>
 <path fill="none" stroke="rgb(255,51,51)" stroke-linejoin="round" d="M 9601,10043 L 9601,10143 9701,10143 9701,10043 9601,10043 Z"/>
 <path fill="rgb(255,51,51)" stroke="none" d="M 10979,10122 L 10979,10222 11079,10222 11079,10122 10979,10122 Z"/>
 <path fill="none" stroke="rgb(255,51,51)" stroke-linejoin="round" d="M 10979,10122 L 10979,10222 11079,10222 11079,10122 10979,10122 Z"/>
 <path fill="rgb(255,51,51)" stroke="none" d="M 12358,10169 L 12358,10269 12458,10269 12458,10169 12358,10169 Z"/>
 <path fill="none" stroke="rgb(255,51,51)" stroke-linejoin="round" d="M 12358,10169 L 12358,10269 12458,10269 12458,10169 12358,10169 Z"/>
 <path fill="rgb(255,51,51)" stroke="none" d="M 13737,10233 L 13737,10333 13837,10333 13837,10233 13737,10233 Z"/>
 <path fill="none" stroke="rgb(255,51,51)" stroke-linejoin="round" d="M 13737,10233 L 13737,10333 13837,10333 13837,10233 13737,10233 Z"/>
 <path fill="rgb(255,51,51)" stroke="none" d="M 15115,10251 L 15115,10351 15215,10351 15215,10251 15115,10251 Z"/>
 <path fill="none" stroke="rgb(255,51,51)" stroke-linejoin="round" d="M 15115,10251 L 15115,10351 15215,10351 15215,10251 15115,10251 Z"/>
 <path fill="none" stroke="rgb(102,102,255)" stroke-width="80" stroke-linejoin="round" d="M 2758,1296 L 4136,7044 5515,8541 6894,8517 8273,8406 9651,9809 11029,9925 12408,9942 13787,10124 15165,10202"/>
 <path fill="rgb(102,102,255)" stroke="none" d="M 2708,1246 L 2708,1346 2808,1346 2808,1246 2708,1246 Z"/>
 <path fill="none" stroke="rgb(102,102,255)" stroke-linejoin="round" d="M 2708,1246 L 2708,1346 2808,1346 2808,1246 2708,1246 Z"/>
 <path fill="rgb(102,102,255)" stroke="none" d="M 4086,6994 L 4086,7094 4186,7094 4186,6994 4086,6994 Z"/>
 <path fill="none" stroke="rgb(102,102,255)" stroke-linejoin="round" d="M 4086,6994 L 4086,7094 4186,7094 4186,6994 4086,6994 Z"/>
 <path fill="rgb(102,102,255)" stroke="none" d="M 5465,8491 L 5465,8591 5565,8591 5565,8491 5465,8491 Z"/>
 <path fill="none" stroke="rgb(102,102,255)" stroke-linejoin="round" d="M 5465,8491 L 5465,8591 5565,8591 5565,8491 5465,8491 Z"/>
 <path fill="rgb(102,102,255)" stroke="none" d="M 6844,8467 L 6844,8567 6944,8567 6944,8467 6844,8467 Z"/>
 <path fill="none" stroke="rgb(102,102,255)" stroke-linejoin="round" d="M 6844,8467 L 6844,8567 6944,8567 6944,8467 6844,8467 Z"/>
 <path fill="rgb(102,102,255)" stroke="none" d="M 8223,8356 L 8223,8456 8323,8456 8323,8356 8223,8356 Z"/>
 <path fill="none" stroke="rgb(102,102,255)" stroke-linejoin="round" d="M 8223,8356 L 8223,8456 8323,8456 8323,8356 8223,8356 Z"/>
 <path fill="rgb(102,102,255)" stroke="none" d="M 9601,9759 L 9601,9859 9701,9859 9701,9759 9601,9759 Z"/>
 <path fill="none" stroke="rgb(102,102,255)" stroke-linejoin="round" d="M 9601,9759 L 9601,9859 9701,9859 9701,9759 9601,9759 Z"/>
 <path fill="rgb(102,102,255)" stroke="none" d="M 10979,9875 L 10979,9975 11079,9975 11079,9875 10979,9875 Z"/>
 <path fill="none" stroke="rgb(102,102,255)" stroke-linejoin="round" d="M 10979,9875 L 10979,9975 11079,9975 11079,9875 10979,9875 Z"/>
 <path fill="rgb(102,102,255)" stroke="none" d="M 12358,9892 L 12358,9992 12458,9992 12458,9892 12358,9892 Z"/>
 <path fill="none" stroke="rgb(102,102,255)" stroke-linejoin="round" d="M 12358,9892 L 12358,9992 12458,9992 12458,9892 12358,9892 Z"/>
 <path fill="rgb(102,102,255)" stroke="none" d="M 13737,10074 L 13737,10174 13837,10174 13837,10074 13737,10074 Z"/>
 <path fill="none" stroke="rgb(102,102,255)" stroke-linejoin="round" d="M 13737,10074 L 13737,10174 13837,10174 13837,10074 13737,10074 Z"/>
 <path fill="rgb(102,102,255)" stroke="none" d="M 15115,10152 L 15115,10252 15215,10252 15215,10152 15115,10152 Z"/>
 <path fill="none" stroke="rgb(102,102,255)" stroke-linejoin="round" d="M 15115,10152 L 15115,10252 15215,10252 15215,10152 15115,10152 Z"/>
 <text class="TextShape"><tspan class="TextParagraph" font-family="Liberation Sans, sans-serif" font-size="353px" font-weight="400"><tspan class="TextPosition" x="2665" y="11211"><tspan fill="rgb(0,0,0)" stroke="none">1</tspan></tspan></tspan></text>
 <text class="TextShape"><tspan class="TextParagraph" font-family="Liberation Sans, sans-serif" font-size="353px" font-weight="400"><tspan class="TextPosition" x="4043" y="11211"><tspan fill="rgb(0,0,0)" stroke="none">2</tspan></tspan></tspan></text>
 <text class="TextShape"><tspan class="TextParagraph" font-family="Liberation Sans, sans-serif" font-size="353px" font-weight="400"><tspan class="TextPosition" x="5422" y="11211"><tspan fill="rgb(0,0,0)" stroke="none">3</tspan></tspan></tspan></text>
 <text class="TextShape"><tspan class="TextParagraph" font-family="Liberation Sans, sans-serif" font-size="353px" font-weight="400"><tspan class="TextPosition" x="6801" y="11211"><tspan fill="rgb(0,0,0)" stroke="none">4</tspan></tspan></tspan></text>
 <text class="TextShape"><tspan class="TextParagraph" font-family="Liberation Sans, sans-serif" font-size="353px" font-weight="400"><tspan class="TextPosition" x="8180" y="11211"><tspan fill="rgb(0,0,0)" stroke="none">5</tspan></tspan></tspan></text>
 <text class="TextShape"><tspan class="TextParagraph" font-family="Liberation Sans, sans-serif" font-size="353px" font-weight="400"><tspan class="TextPosition" x="9558" y="11211"><tspan fill="rgb(0,0,0)" stroke="none">6</tspan></tspan></tspan></text>
 <text class="TextShape"><tspan class="TextParagraph" font-family="Liberation Sans, sans-serif" font-size="353px" font-weight="400"><tspan class="TextPosition" x="10937" y="11211"><tspan fill="rgb(0,0,0)" stroke="none">7</tspan></tspan></tspan></text>
 <text class="TextShape"><tspan class="TextParagraph" font-family="Liberation Sans, sans-serif" font-size="353px" font-weight="400"><tspan class="TextPosition" x="12316" y="11211"><tspan fill="rgb(0,0,0)" stroke="none">8</tspan></tspan></tspan></text>
 <text class="TextShape"><tspan class="TextParagraph" font-family="Liberation Sans, sans-serif" font-size="353px" font-weight="400"><tspan class="TextPosition" x="13695" y="11211"><tspan fill="rgb(0,0,0)" stroke="none">9</tspan></tspan></tspan></text>
 <text class="TextShape"><tspan class="TextParagraph" font-family="Liberation Sans, sans-serif" font-size="353px" font-weight="400"><tspan class="TextPosition" x="14981" y="11211"><tspan fill="rgb(0,0,0)" stroke="none">10</tspan></tspan></tspan></text>
 <text class="TextShape"><tspan class="TextParagraph" font-family="Liberation Sans, sans-serif" font-size="353px" font-weight="400"><tspan class="TextPosition" x="2323" y="10764"><tspan fill="rgb(0,0,0)" stroke="none">0</tspan></tspan></tspan></text>
 <text class="TextShape"><tspan class="TextParagraph" font-family="Liberation Sans, sans-serif" font-size="353px" font-weight="400"><tspan class="TextPosition" x="2138" y="9745"><tspan fill="rgb(0,0,0)" stroke="none">50</tspan></tspan></tspan></text>
 <text class="TextShape"><tspan class="TextParagraph" font-family="Liberation Sans, sans-serif" font-size="353px" font-weight="400"><tspan class="TextPosition" x="1952" y="8727"><tspan fill="rgb(0,0,0)" stroke="none">100</tspan></tspan></tspan></text>
 <text class="TextShape"><tspan class="TextParagraph" font-family="Liberation Sans, sans-serif" font-size="353px" font-weight="400"><tspan class="TextPosition" x="1952" y="7708"><tspan fill="rgb(0,0,0)" stroke="none">150</tspan></tspan></tspan></text>
 <text class="TextShape"><tspan class="TextParagraph" font-family="Liberation Sans, sans-serif" font-size="353px" font-weight="400"><tspan class="TextPosition" x="1952" y="6690"><tspan fill="rgb(0,0,0)" stroke="none">200</tspan></tspan></tspan></text>
 <text class="TextShape"><tspan class="TextParagraph" font-family="Liberation Sans, sans-serif" font-size="353px" font-weight="400"><tspan class="TextPosition" x="1952" y="5671"><tspan fill="rgb(0,0,0)" stroke="none">250</tspan></tspan></tspan></text>
 <text class="TextShape"><tspan class="TextParagraph" font-family="Liberation Sans, sans-serif" font-size="353px" font-weight="400"><tspan class="TextPosition" x="1952" y="4653"><tspan fill="rgb(0,0,0)" stroke="none">300</tspan></tspan></tspan></text>
 <text class="TextShape"><tspan class="TextParagraph" font-family="Liberation Sans, sans-serif" font-size="353px" font-weight="400"><tspan class="TextPosition" x="1952" y="3634"><tspan fill="rgb(0,0,0)" stroke="none">350</tspan></tspan></tspan></text>
 <text class="TextShape"><tspan class="TextParagraph" font-family="Liberation Sans, sans-serif" font-size="353px" font-weight="400"><tspan class="TextPosition" x="1952" y="2616"><tspan fill="rgb(0,0,0)" stroke="none">400</tspan></tspan></tspan></text>
 <text class="TextShape"><tspan class="TextParagraph" font-family="Liberation Sans, sans-serif" font-size="353px" font-weight="400"><tspan class="TextPosition" x="1952" y="1597"><tspan fill="rgb(0,0,0)" stroke="none">450</tspan></tspan></tspan></text>
 <text class="TextShape"><tspan class="TextParagraph" font-family="Liberation Sans, sans-serif" font-size="353px" font-weight="400"><tspan class="TextPosition" x="1952" y="579"><tspan fill="rgb(0,0,0)" stroke="none">500</tspan></tspan></tspan></text>
 <path fill="none" stroke="rgb(102,102,255)" stroke-width="80" stroke-linejoin="round" d="M 15896,6259 L 16696,6259"/>
 <path fill="rgb(102,102,255)" stroke="none" d="M 16169,6132 L 16169,6386 16423,6386 16423,6132 16169,6132 Z"/>
 <path fill="none" stroke="rgb(102,102,255)" stroke-linejoin="round" d="M 16169,6132 L 16169,6386 16423,6386 16423,6132 16169,6132 Z"/>
 <path fill="none" stroke="rgb(255,51,51)" stroke-width="80" stroke-linejoin="round" d="M 15896,6809 L 16696,6809"/>
 <path fill="rgb(255,51,51)" stroke="none" d="M 16169,6682 L 16169,6936 16423,6936 16423,6682 16169,6682 Z"/>
 <path fill="none" stroke="rgb(255,51,51)" stroke-linejoin="round" d="M 16169,6682 L 16169,6936 16423,6936 16423,6682 16169,6682 Z"/>
 <text class="TextShape"><tspan class="TextParagraph" font-family="Liberation Sans, sans-serif" font-size="423px" font-weight="400"><tspan class="TextPosition" x="16796" y="6404"><tspan fill="rgb(0,0,0)" stroke="none">valeur_maximum</tspan></tspan></tspan></text>
 <text class="TextShape"><tspan class="TextParagraph" font-family="Liberation Sans, sans-serif" font-size="423px" font-weight="400"><tspan class="TextPosition" x="16796" y="6954"><tspan fill="rgb(0,0,0)" stroke="none">valeur_moyenne</tspan></tspan></tspan></text>
 <text class="TextShape"><tspan class="TextParagraph" font-family="Liberation Sans, sans-serif" font-size="635px" font-weight="400"><tspan class="TextPosition" x="6218" y="12326"><tspan fill="rgb(0,0,0)" stroke="none">Nombre d&apos;agents</tspan></tspan></tspan></text>
 <text class="TextShape" transform="translate(1224,6185) rotate(-90) translate(-1224,-6185)"><tspan class="TextParagraph" font-family="Liberation Sans, sans-serif" font-size="635px" font-weight="400"><tspan class="TextPosition" x="1224" y="6185"><tspan fill="rgb(0,0,0)" stroke="none">IGI</tspan></tspan></tspan></text>
</svg>